<svg width="187" height="136" viewBox="0 0 187 136" fill="none" xmlns="http://www.w3.org/2000/svg">
<path d="M19.321 167.988C61.6371 167.988 87.7801 135.863 87.7801 83.688C87.7801 31.1806 61.4156 0.0527995 19.321 0.0527995C-22.6627 0.0527995 -49.2488 31.2914 -49.2488 83.7988C-49.2488 136.085 -22.9951 167.988 19.321 167.988ZM19.321 136.306C2.48322 136.306 -7.92964 118.693 -7.92964 83.688C-7.92964 48.9046 2.48322 31.7345 19.321 31.7345C36.1589 31.7345 46.461 48.7939 46.461 83.7988C46.461 118.693 36.2696 136.306 19.321 136.306ZM166.098 166.548C178.173 166.548 186.259 158.683 186.259 146.498V24.3126C186.259 10.3549 177.729 1.60365 163.107 1.60365C155.131 1.60365 148.263 2.48985 139.734 8.25016L109.492 28.8543C103.732 32.8422 101.405 37.384 101.405 43.2551C101.405 51.4525 107.276 57.3235 115.142 57.3235C119.019 57.3235 121.456 56.4373 125.111 53.8895L145.051 40.0426H145.826V146.498C145.826 158.683 154.024 166.548 166.098 166.548Z" fill="#008CFF" fill-opacity="0.05"/>
</svg>
