<svg width="231" height="136" viewBox="0 0 231 136" fill="none" xmlns="http://www.w3.org/2000/svg">
<path d="M19.321 167.988C61.6371 167.988 87.7801 135.863 87.7801 83.688C87.7801 31.1806 61.4156 0.0527995 19.321 0.0527995C-22.6627 0.0527995 -49.2488 31.2914 -49.2488 83.7988C-49.2488 136.085 -22.9951 167.988 19.321 167.988ZM19.321 136.306C2.48322 136.306 -7.92964 118.693 -7.92964 83.688C-7.92964 48.9046 2.48322 31.7345 19.321 31.7345C36.1589 31.7345 46.461 48.7939 46.461 83.7988C46.461 118.693 36.2696 136.306 19.321 136.306ZM125.333 164H213.953C224.255 164 230.237 157.686 230.237 148.381C230.237 138.854 224.255 132.761 213.953 132.761H158.676V131.986L190.469 102.963C215.836 80.0324 226.249 68.2903 226.249 47.7969C226.249 19.5492 202.322 0.163575 165.877 0.163575C136.743 0.163575 115.474 14.232 108.495 32.6207C107.276 35.5008 106.833 38.381 106.833 41.4827C106.833 51.4525 113.148 57.5451 123.671 57.5451C131.869 57.5451 136.632 54.3326 141.728 46.4676C147.599 35.8332 154.799 30.7375 165.323 30.7375C178.062 30.7375 186.924 38.9349 186.924 50.4555C186.924 60.8683 181.828 68.1795 163.107 85.2389L117.468 126.669C109.492 133.537 106.28 138.965 106.28 146.608C106.28 156.689 112.261 164 125.333 164Z" fill="#008CFF" fill-opacity="0.05"/>
</svg>
