<svg width="236" height="136" viewBox="0 0 236 136" fill="none" xmlns="http://www.w3.org/2000/svg">
<path d="M19.321 167.988C61.6371 167.988 87.7801 135.863 87.7801 83.688C87.7801 31.1806 61.4156 0.0527995 19.321 0.0527995C-22.6627 0.0527995 -49.2488 31.2914 -49.2488 83.7988C-49.2488 136.085 -22.9951 167.988 19.321 167.988ZM19.321 136.306C2.48322 136.306 -7.92964 118.693 -7.92964 83.688C-7.92964 48.9046 2.48322 31.7345 19.321 31.7345C36.1589 31.7345 46.461 48.7939 46.461 83.7988C46.461 118.693 36.2696 136.306 19.321 136.306ZM169.311 167.988C209.411 167.988 235.222 148.713 235.222 118.804C235.222 97.2026 219.935 83.5773 195.786 81.1402V80.3648C214.064 76.7092 228.908 63.6377 228.908 43.1443C228.908 16.0044 203.872 0.163575 169.089 0.163575C137.629 0.163575 118.797 15.229 112.483 30.7375C111.043 34.1715 110.489 36.9409 110.489 40.3749C110.489 49.6801 116.139 56.3266 127.216 56.3266C136.189 56.3266 141.063 53.1141 145.605 44.5844C150.479 35.0577 157.901 30.4052 169.311 30.4052C183.157 30.4052 191.133 37.6056 191.133 48.9046C191.133 60.536 181.607 68.1795 165.987 68.1795H162.332C152.694 68.1795 147.599 73.829 147.599 81.9156C147.599 90.2238 152.694 95.7625 162.332 95.7625H166.209C183.933 95.7625 193.903 102.963 193.903 116.367C193.903 127.887 184.154 136.085 170.197 136.085C155.021 136.085 147.82 130.214 141.949 120.244C137.961 113.819 132.976 111.049 125.222 111.049C114.145 111.049 107.387 117.474 107.387 127.666C107.387 130.546 108.052 133.869 109.381 136.971C115.806 152.479 135.303 167.988 169.311 167.988Z" fill="#008CFF" fill-opacity="0.05"/>
</svg>
