<svg width="245" height="136" viewBox="0 0 245 136" fill="none" xmlns="http://www.w3.org/2000/svg">
<path d="M19.321 167.988C61.6371 167.988 87.7801 135.863 87.7801 83.688C87.7801 31.1806 61.4156 0.0527995 19.321 0.0527995C-22.6627 0.0527995 -49.2488 31.2914 -49.2488 83.7988C-49.2488 136.085 -22.9951 167.988 19.321 167.988ZM19.321 136.306C2.48322 136.306 -7.92964 118.693 -7.92964 83.688C-7.92964 48.9046 2.48322 31.7345 19.321 31.7345C36.1589 31.7345 46.461 48.7939 46.461 83.7988C46.461 118.693 36.2696 136.306 19.321 136.306ZM202.543 166.548C213.621 166.548 221.707 160.123 221.707 147.162V136.749H227.911C238.545 136.749 244.084 130.214 244.084 121.019C244.084 111.825 238.656 105.178 227.911 105.178H221.707V30.1836C221.707 12.7919 208.525 1.60365 188.142 1.60365C172.08 1.60365 162.664 8.02861 150.368 27.0819C135.635 49.3477 122.896 69.5088 112.261 88.6729C106.612 98.6427 104.175 106.286 104.175 114.04C104.175 127.555 114.145 136.749 128.767 136.749H183.268V147.162C183.268 160.123 191.355 166.548 202.543 166.548ZM184.376 106.618H138.183V105.511C151.143 80.5863 164.326 60.0929 183.601 32.1776H184.376V106.618Z" fill="#008CFF" fill-opacity="0.05"/>
</svg>
