<svg width="75" height="75" viewBox="0 0 75 75" fill="none" xmlns="http://www.w3.org/2000/svg">
<path d="M10.1666 6.39999C7.66663 6.39999 5.6333 8.43333 5.6333 10.9333V64.55C5.6333 66.9167 7.54997 68.8333 9.91663 68.8333H37.6333V6.39999H10.1666ZM32.3 62.6333H11.5166V12.4833H32.2833V62.6333H32.3Z" fill="#99D1FF"/>
<path d="M64.4667 68.8333C66.9667 68.8333 69 66.8 69 64.3L69 10.6833C69 8.31665 67.0833 6.39998 64.7167 6.39998L37 6.39998L37 68.8333L64.4667 68.8333ZM42.3333 12.6L63.1167 12.6L63.1167 62.75L42.35 62.75L42.35 12.6L42.3333 12.6Z" fill="#99D1FF"/>
<path d="M5.6333 67.25C5.6333 47.5 5.6333 27.75 5.6333 8C6.09997 6.81666 6.96663 6.38333 8.2333 6.4C10.9666 6.45 13.6833 6.41666 16.4166 6.41666C16.6833 6.41666 17.0333 6.36666 17.2 6.51666C17.4666 6.75 17.7333 7.1 17.7833 7.43333C17.85 7.85 17.5333 8.16666 17.0833 8.25C16.8666 8.3 16.6333 8.28333 16.4 8.28333C13.7 8.28333 10.9833 8.28333 8.2833 8.28333C8.0333 8.28333 7.79997 8.31666 7.49997 8.33333C7.49997 8.63333 7.49997 8.88333 7.49997 9.13333C7.49997 28.1333 7.49997 47.1333 7.49997 66.1333C7.49997 66.95 7.49997 66.95 8.29997 66.95C17.5 66.95 26.7166 66.95 35.9166 66.95C36.1333 66.95 36.3666 66.95 36.5833 66.95C36.5833 47.35 36.5833 27.85 36.5833 8.28333C36.3 8.28333 36.05 8.28333 35.8 8.28333C31.1333 8.28333 26.4666 8.28333 21.8 8.28333C21.5666 8.28333 21.3333 8.28333 21.1166 8.26666C20.65 8.2 20.3666 7.91666 20.3333 7.43333C20.3 6.93333 20.5333 6.58333 21.0333 6.46666C21.3 6.4 21.5666 6.41666 21.8333 6.41666C36.9 6.41666 51.95 6.41666 67.0166 6.4C68.2666 6.4 69.15 6.81666 69.6166 8C69.6166 27.75 69.6166 47.5 69.6166 67.25C69.15 68.4333 68.2666 68.85 67.0166 68.85C47.4166 68.8333 27.8166 68.8333 8.21663 68.85C6.96663 68.85 6.09997 68.4333 5.6333 67.25ZM38.6333 66.9667C38.9 66.9667 39.1166 66.9667 39.3166 66.9667C48.55 66.9667 57.7666 66.9667 67 66.9833C67.5833 66.9833 67.7666 66.8333 67.7666 66.2167C67.75 47.15 67.75 28.1 67.7666 9.03333C67.7666 8.41666 67.5833 8.28333 67 8.28333C57.7666 8.3 48.55 8.3 39.3166 8.3C39.1 8.3 38.8833 8.3 38.6333 8.3C38.6333 27.8833 38.6333 47.3667 38.6333 66.9667Z" fill="#008CFF"/>
<path d="M33.6499 37.6167C33.6499 45.5667 33.6499 53.5333 33.6499 61.4833C33.6499 63.2 32.8999 63.95 31.1833 63.95C25.1166 63.95 19.0666 63.95 12.9999 63.95C11.2833 63.95 10.5166 63.1833 10.5166 61.4833C10.5166 45.5667 10.5166 29.6667 10.5166 13.75C10.5166 12.0333 11.2833 11.2833 12.9999 11.2833C19.0666 11.2833 25.1166 11.2833 31.1833 11.2833C32.9166 11.2833 33.6666 12.0333 33.6666 13.75C33.6499 21.7 33.6499 29.6667 33.6499 37.6167ZM31.7666 48.5167C31.5999 48.5667 31.4999 48.5833 31.3999 48.6167C29.2833 49.0333 27.6333 47.6833 27.6166 45.5167C27.6166 43.2833 27.5999 41.0667 27.6166 38.8333C27.6333 37.0333 28.8666 35.7833 30.6833 35.7333C31.0333 35.7333 31.3833 35.7333 31.7333 35.7333C31.7499 35.5 31.7666 35.35 31.7666 35.2167C31.7666 28.0667 31.7666 20.9333 31.7833 13.7833C31.7833 13.2667 31.5999 13.1667 31.1333 13.1667C25.0833 13.1667 19.0499 13.1667 12.9999 13.15C12.5166 13.15 12.3666 13.2833 12.3666 13.7833C12.3833 29.6833 12.3833 45.5667 12.3666 61.4667C12.3666 61.9833 12.5499 62.0833 13.0166 62.0833C19.0499 62.0667 25.0999 62.0667 31.1333 62.0833C31.6833 62.0833 31.7833 61.8833 31.7833 61.3833C31.7666 58.6833 31.7666 55.9667 31.7666 53.2667C31.7666 51.7167 31.7666 50.1667 31.7666 48.5167ZM31.7666 37.6C31.3499 37.6 30.9999 37.5833 30.6499 37.6C29.9499 37.6333 29.5166 38.05 29.4999 38.75C29.4833 41.0667 29.4833 43.3667 29.4999 45.6833C29.4999 46.3667 30.0333 46.8333 30.6499 46.8167C31.2666 46.8 31.7499 46.35 31.7499 45.6833C31.7666 43.0333 31.7666 40.3667 31.7666 37.6Z" fill="#008CFF"/>
<path d="M43.4834 35.7333C43.9501 35.7333 44.3168 35.7167 44.7001 35.7333C46.3501 35.7833 47.6168 37.05 47.6334 38.7C47.6501 40.9667 47.6501 43.2333 47.6334 45.5167C47.6334 47.6833 45.9668 49.0333 43.8501 48.6167C43.7501 48.6 43.6501 48.5667 43.4834 48.5333C43.4834 48.7667 43.4834 48.9667 43.4834 49.1833C43.4834 53.25 43.5001 57.3 43.4668 61.3667C43.4668 61.9833 43.6668 62.1333 44.2501 62.1167C46.7834 62.0833 49.3334 62.1 51.8668 62.1C52.0668 62.1 52.2834 62.1 52.4834 62.1333C52.9501 62.2167 53.2168 62.5167 53.2501 62.9833C53.2834 63.45 53.0501 63.7833 52.5834 63.9167C52.3668 63.9833 52.1334 63.9833 51.9001 63.9833C49.2834 63.9833 46.6501 63.9833 44.0334 63.9833C42.3501 63.9833 41.6001 63.2167 41.6001 61.5333C41.6001 45.6167 41.6001 29.7 41.6001 13.8C41.6001 12.0667 42.3334 11.3333 44.0668 11.3333C50.1334 11.3333 56.1834 11.3333 62.2501 11.3333C63.9668 11.3333 64.7334 12.1 64.7334 13.8C64.7334 29.7167 64.7334 45.6333 64.7334 61.5333C64.7334 63.2167 63.9668 63.9833 62.3001 64C60.6168 64 58.9334 64 57.2334 64C57.0834 64 56.9334 64 56.8001 63.9833C56.2501 63.9167 55.8834 63.5333 55.8834 63.05C55.8834 62.5333 56.2668 62.1333 56.8501 62.1167C57.5834 62.1 58.3001 62.1 59.0334 62.1C60.1334 62.1 61.2334 62.0833 62.3501 62.1C62.7168 62.1 62.9001 62 62.8501 61.6C62.8334 61.5 62.8501 61.4 62.8501 61.2833C62.8501 45.5167 62.8501 29.75 62.8501 13.9833C62.8501 13.1833 62.8501 13.1833 62.0334 13.1833C56.1001 13.1833 50.1668 13.1833 44.2168 13.1667C43.6334 13.1667 43.4334 13.3 43.4334 13.9167C43.4501 20.95 43.4501 28 43.4501 35.0333C43.4834 35.2333 43.4834 35.4333 43.4834 35.7333ZM43.5668 37.6333C43.5501 37.7 43.5001 37.7667 43.5001 37.85C43.5001 40.4667 43.4834 43.1 43.5168 45.7167C43.5168 46.0167 43.7501 46.45 44.0001 46.5833C44.3168 46.75 44.8668 46.8167 45.1501 46.65C45.4501 46.4667 45.7334 45.9667 45.7501 45.6C45.8001 43.5833 45.7834 41.5667 45.7834 39.55C45.7834 37.8 45.5501 37.5667 43.8001 37.6167C43.7168 37.6 43.6501 37.6167 43.5668 37.6333Z" fill="#008CFF"/>
</svg>
