<svg width="75" height="75" viewBox="0 0 75 75" fill="none" xmlns="http://www.w3.org/2000/svg">
<path d="M5.63379 67.25C5.63379 47.5 5.63379 27.75 5.63379 8C6.10046 6.81666 6.96712 6.38333 8.23379 6.4C10.9671 6.45 13.6838 6.41666 16.4171 6.41666C16.6838 6.41666 17.0338 6.36666 17.2005 6.51666C17.4671 6.75 17.7338 7.1 17.7838 7.43333C17.8505 7.85 17.5338 8.16666 17.0838 8.25C16.8671 8.3 16.6338 8.28333 16.4005 8.28333C13.7005 8.28333 10.9838 8.28333 8.28379 8.28333C8.03379 8.28333 7.80046 8.31666 7.50046 8.33333C7.50046 8.63333 7.50046 8.88333 7.50046 9.13333C7.50046 28.1333 7.50046 47.1333 7.50046 66.1333C7.50046 66.95 7.50046 66.95 8.30046 66.95C17.5005 66.95 26.7171 66.95 35.9171 66.95C36.1338 66.95 36.3671 66.95 36.5838 66.95C36.5838 47.35 36.5838 27.85 36.5838 8.28333C36.3005 8.28333 36.0505 8.28333 35.8005 8.28333C31.1338 8.28333 26.4671 8.28333 21.8005 8.28333C21.5671 8.28333 21.3338 8.28333 21.1171 8.26666C20.6505 8.2 20.3671 7.91666 20.3338 7.43333C20.3005 6.93333 20.5338 6.58333 21.0338 6.46666C21.3005 6.4 21.5671 6.41666 21.8338 6.41666C36.9005 6.41666 51.9505 6.41666 67.0171 6.4C68.2671 6.4 69.1505 6.81666 69.6171 8C69.6171 27.75 69.6171 47.5 69.6171 67.25C69.1505 68.4333 68.2671 68.85 67.0171 68.85C47.4171 68.8333 27.8171 68.8333 8.21712 68.85C6.96712 68.85 6.10046 68.4333 5.63379 67.25ZM38.6338 66.9667C38.9005 66.9667 39.1171 66.9667 39.3171 66.9667C48.5505 66.9667 57.7671 66.9667 67.0005 66.9833C67.5838 66.9833 67.7671 66.8333 67.7671 66.2167C67.7505 47.15 67.7505 28.1 67.7671 9.03333C67.7671 8.41666 67.5838 8.28333 67.0005 8.28333C57.7671 8.3 48.5505 8.3 39.3171 8.3C39.1005 8.3 38.8838 8.3 38.6338 8.3C38.6338 27.8833 38.6338 47.3667 38.6338 66.9667Z" fill="#008CFF"/>
<path d="M33.6509 37.6167C33.6509 45.5667 33.6509 53.5333 33.6509 61.4833C33.6509 63.2 32.9009 63.95 31.1842 63.95C25.1176 63.95 19.0676 63.95 13.0009 63.95C11.2842 63.95 10.5176 63.1833 10.5176 61.4833C10.5176 45.5667 10.5176 29.6667 10.5176 13.75C10.5176 12.0333 11.2842 11.2833 13.0009 11.2833C19.0676 11.2833 25.1176 11.2833 31.1842 11.2833C32.9176 11.2833 33.6676 12.0333 33.6676 13.75C33.6509 21.7 33.6509 29.6667 33.6509 37.6167ZM31.7676 48.5167C31.6009 48.5667 31.5009 48.5833 31.4009 48.6167C29.2842 49.0333 27.6342 47.6833 27.6176 45.5167C27.6176 43.2833 27.6009 41.0667 27.6176 38.8333C27.6342 37.0333 28.8676 35.7833 30.6842 35.7333C31.0342 35.7333 31.3842 35.7333 31.7342 35.7333C31.7509 35.5 31.7676 35.35 31.7676 35.2167C31.7676 28.0667 31.7676 20.9333 31.7842 13.7833C31.7842 13.2667 31.6009 13.1667 31.1342 13.1667C25.0842 13.1667 19.0509 13.1667 13.0009 13.15C12.5176 13.15 12.3676 13.2833 12.3676 13.7833C12.3842 29.6833 12.3842 45.5667 12.3676 61.4667C12.3676 61.9833 12.5509 62.0833 13.0176 62.0833C19.0509 62.0667 25.1009 62.0667 31.1342 62.0833C31.6842 62.0833 31.7842 61.8833 31.7842 61.3833C31.7676 58.6833 31.7676 55.9667 31.7676 53.2667C31.7676 51.7167 31.7676 50.1667 31.7676 48.5167ZM31.7676 37.6C31.3509 37.6 31.0009 37.5833 30.6509 37.6C29.9509 37.6333 29.5176 38.05 29.5009 38.75C29.4842 41.0667 29.4842 43.3667 29.5009 45.6833C29.5009 46.3667 30.0342 46.8333 30.6509 46.8167C31.2676 46.8 31.7509 46.35 31.7509 45.6833C31.7676 43.0333 31.7676 40.3667 31.7676 37.6Z" fill="#008CFF"/>
<path d="M43.4839 35.7333C43.9506 35.7333 44.3173 35.7166 44.7006 35.7333C46.3506 35.7833 47.6172 37.05 47.6339 38.7C47.6506 40.9666 47.6506 43.2333 47.6339 45.5166C47.6339 47.6833 45.9673 49.0333 43.8506 48.6166C43.7506 48.6 43.6506 48.5666 43.4839 48.5333C43.4839 48.7666 43.4839 48.9666 43.4839 49.1833C43.4839 53.25 43.5006 57.3 43.4672 61.3666C43.4672 61.9833 43.6673 62.1333 44.2506 62.1166C46.7839 62.0833 49.3339 62.1 51.8673 62.1C52.0673 62.1 52.2839 62.1 52.4839 62.1333C52.9506 62.2166 53.2173 62.5166 53.2506 62.9833C53.2839 63.45 53.0506 63.7833 52.5839 63.9166C52.3673 63.9833 52.1339 63.9833 51.9006 63.9833C49.2839 63.9833 46.6506 63.9833 44.0339 63.9833C42.3506 63.9833 41.6006 63.2166 41.6006 61.5333C41.6006 45.6166 41.6006 29.7 41.6006 13.8C41.6006 12.0666 42.3339 11.3333 44.0673 11.3333C50.1339 11.3333 56.1839 11.3333 62.2506 11.3333C63.9673 11.3333 64.7339 12.1 64.7339 13.8C64.7339 29.7166 64.7339 45.6333 64.7339 61.5333C64.7339 63.2166 63.9673 63.9833 62.3006 64C60.6173 64 58.9339 64 57.2339 64C57.0839 64 56.9339 64 56.8006 63.9833C56.2506 63.9166 55.8839 63.5333 55.8839 63.05C55.8839 62.5333 56.2673 62.1333 56.8506 62.1166C57.5839 62.1 58.3006 62.1 59.0339 62.1C60.1339 62.1 61.2339 62.0833 62.3506 62.1C62.7173 62.1 62.9006 62 62.8506 61.6C62.8339 61.5 62.8506 61.4 62.8506 61.2833C62.8506 45.5166 62.8506 29.75 62.8506 13.9833C62.8506 13.1833 62.8506 13.1833 62.0339 13.1833C56.1006 13.1833 50.1672 13.1833 44.2172 13.1666C43.6339 13.1666 43.4339 13.3 43.4339 13.9166C43.4506 20.95 43.4506 28 43.4506 35.0333C43.4839 35.2333 43.4839 35.4333 43.4839 35.7333ZM43.5673 37.6333C43.5506 37.7 43.5006 37.7666 43.5006 37.85C43.5006 40.4666 43.4839 43.1 43.5173 45.7166C43.5173 46.0166 43.7506 46.45 44.0006 46.5833C44.3173 46.75 44.8673 46.8166 45.1506 46.65C45.4506 46.4666 45.7339 45.9666 45.7506 45.6C45.8006 43.5833 45.7839 41.5666 45.7839 39.55C45.7839 37.8 45.5506 37.5666 43.8006 37.6166C43.7172 37.6 43.6506 37.6166 43.5673 37.6333Z" fill="#008CFF"/>
</svg>
