<svg width="35" height="25" viewBox="0 0 35 25" fill="none" xmlns="http://www.w3.org/2000/svg">
<path d="M2.1817 25C1.56278 25 1.04443 24.7905 0.626658 24.3715C0.208886 23.9525 0 23.4326 0 22.8119C0 22.1912 0.208886 21.6713 0.626658 21.2523C1.04443 20.8333 1.56278 20.6238 2.1817 20.6238H32.8183C33.4372 20.6238 33.9556 20.8333 34.3733 21.2523C34.7911 21.6713 35 22.1912 35 22.8119C35 23.4326 34.7911 23.9525 34.3733 24.3715C33.9556 24.7905 33.4372 25 32.8183 25H2.1817ZM2.1817 14.7114C1.56278 14.7114 1.04443 14.5019 0.626658 14.0829C0.208886 13.6639 0 13.144 0 12.5233C0 11.9025 0.208886 11.3827 0.626658 10.9637C1.04443 10.5447 1.56278 10.3352 2.1817 10.3352H32.8183C33.4372 10.3352 33.9556 10.5447 34.3733 10.9637C34.7911 11.3827 35 11.9025 35 12.5233C35 13.144 34.7911 13.6639 34.3733 14.0829C33.9556 14.5019 33.4372 14.7114 32.8183 14.7114H2.1817ZM2.1817 4.42272C1.56278 4.42272 1.04443 4.21322 0.626658 3.79423C0.208886 3.37523 0 2.85537 0 2.23464C0 1.6139 0.208886 1.08628 0.626658 0.651769C1.04443 0.217256 1.56278 0 2.1817 0H32.8183C33.4372 0 33.9556 0.217256 34.3733 0.651769C34.7911 1.08628 35 1.6139 35 2.23464C35 2.85537 34.7911 3.37523 34.3733 3.79423C33.9556 4.21322 33.4372 4.42272 32.8183 4.42272H2.1817Z" fill="#D9D9D9"/>
</svg>
