<svg width="350" height="200" viewBox="0 0 350 200" fill="none" xmlns="http://www.w3.org/2000/svg">
<path fill-rule="evenodd" clip-rule="evenodd" d="M161.408 60L122.026 99.2774L161.408 138.765H139.295L100.018 99.2774L139.295 60H161.408Z" fill="#231F20"/>
<path fill-rule="evenodd" clip-rule="evenodd" d="M115.813 122.97L131.503 138.765H76.4302V60H131.503L115.813 75.6899H92.2254V122.97H115.813Z" fill="#ED1C29"/>
<path fill-rule="evenodd" clip-rule="evenodd" d="M169.306 138.765H180.362V128.972L184.258 123.497L191.314 138.765H204.371L191.945 113.809L201.949 99.2773H190.892L180.362 115.704V99.2773H169.306V138.765Z" fill="#231F20"/>
<path fill-rule="evenodd" clip-rule="evenodd" d="M243.648 138.765H273.449V129.499H255.126V122.865H269.974V114.335H255.126V108.439H273.238V99.2773H243.648V138.765Z" fill="#231F20"/>
<path fill-rule="evenodd" clip-rule="evenodd" d="M239.015 126.866C239.015 126.445 239.015 126.024 239.015 125.708L238.91 125.603C238.91 125.497 238.91 125.181 238.91 125.076L238.805 124.971V124.655L238.699 124.55C238.699 124.444 238.699 124.234 238.699 124.128L238.594 124.023V123.707C238.489 123.602 238.278 123.391 238.278 123.181C238.173 123.075 237.962 122.865 237.962 122.654C237.857 122.549 237.752 122.444 237.646 122.338V122.022C237.33 121.707 237.015 121.391 236.699 121.075C236.593 120.864 236.488 120.654 236.277 120.548H236.172C235.856 120.232 235.435 120.022 235.119 119.601H234.803C234.593 119.39 234.382 119.179 234.171 119.179C233.961 118.969 233.645 118.969 233.329 118.758C233.118 118.758 232.908 118.547 232.697 118.653L232.592 118.547C232.171 118.547 231.855 118.232 231.434 118.232C231.644 118.126 231.855 118.126 232.065 118.126L232.171 118.021H232.487L232.592 117.916C232.803 117.916 233.013 117.81 233.118 117.6C233.329 117.6 233.434 117.389 233.645 117.494C233.75 117.389 233.856 117.284 233.961 117.179H234.277C234.382 117.073 234.593 116.863 234.698 116.757H234.803C235.119 116.441 235.435 116.126 235.751 115.81H235.856C236.067 115.494 236.488 115.283 236.488 114.862C236.593 114.757 236.804 114.546 236.909 114.441C237.015 114.335 237.12 114.23 237.225 114.125V113.809L237.33 113.704V113.598L237.436 113.493C237.436 113.282 237.646 113.177 237.541 112.967L237.646 112.861V112.545L237.752 112.44C237.752 112.335 237.752 112.124 237.752 112.019L237.857 111.914C237.857 111.387 237.962 111.387 237.962 110.966C237.962 109.913 237.962 108.965 237.962 107.912L237.857 107.807C237.857 107.596 237.857 107.386 237.857 107.175L237.752 107.07C237.752 106.964 237.752 106.754 237.752 106.648L237.646 106.543C237.646 106.438 237.646 106.333 237.646 106.227L237.541 106.122C237.541 106.017 237.541 105.911 237.541 105.806L237.436 105.701C237.436 105.595 237.436 105.49 237.436 105.385L237.33 105.28V105.174L237.225 105.069V104.964L237.12 104.858C237.12 104.753 237.12 104.648 237.12 104.542H237.015V104.437L236.909 104.332V104.227C236.804 104.121 236.699 104.016 236.593 103.911V103.805H236.488V103.7L236.383 103.595V103.489L236.277 103.384H236.172V103.279L236.067 103.174V103.068H235.646L235.54 102.963V102.858H235.435C235.224 102.647 234.909 102.331 234.593 102.015H234.487V101.91H234.382C234.277 101.805 234.171 101.699 234.066 101.594H233.961V101.489H233.856L233.75 101.383H233.54C233.434 101.278 233.329 101.173 233.224 101.067H233.118L233.013 100.962H232.908L232.803 100.857H232.697L232.592 100.752H232.487L232.381 100.646C232.276 100.646 232.171 100.646 232.065 100.646L231.96 100.541C231.855 100.541 231.75 100.541 231.644 100.541L231.539 100.436C231.434 100.436 231.328 100.436 231.223 100.436L231.118 100.33C231.012 100.33 230.802 100.33 230.696 100.33L230.591 100.225C230.486 100.225 230.17 100.225 230.065 100.225L229.959 100.12C229.749 100.12 229.433 100.12 229.117 100.12L229.012 100.014C228.38 100.014 227.748 100.014 227.116 100.014L227.011 99.9092C226.484 99.9092 207.32 99.9092 206.267 99.9092C206.267 111.387 206.267 127.919 206.267 139.397C210.057 139.187 227.116 139.924 230.381 138.871C230.696 138.976 231.118 138.66 231.434 138.555C231.644 138.555 231.96 138.449 232.065 138.449C233.118 138.134 234.066 137.712 235.014 137.081C235.646 136.449 236.488 136.133 236.909 135.396L237.225 135.29C237.646 134.553 238.068 133.921 238.383 133.184C238.699 132.763 238.699 132.237 238.91 131.815C238.805 131.5 239.121 131.289 239.015 130.973C238.91 130.657 239.226 130.341 239.121 130.025C239.121 129.709 239.015 129.288 239.226 129.078C239.226 128.656 239.226 128.13 239.226 127.603L239.015 126.866ZM217.218 107.807C217.744 107.807 223.431 107.807 223.747 107.807L223.852 107.912C224.063 107.912 224.168 107.912 224.378 107.912L224.484 108.017C224.589 108.017 224.694 108.017 224.8 108.017L224.905 108.123C225.01 108.123 225.116 108.123 225.221 108.123V108.228H225.326L225.431 108.333H225.537V108.439H225.642V108.544H225.747L225.853 108.649V108.754H225.958V109.176H226.063V109.281L226.169 109.386V109.492L226.274 109.597C226.274 109.702 226.274 109.807 226.274 109.913H226.379C226.379 110.123 226.379 110.229 226.379 110.439L226.484 110.545C226.484 110.861 226.484 111.282 226.484 111.598L226.379 111.703C226.379 111.808 226.379 112.019 226.379 112.124L226.274 112.229C226.274 112.335 226.274 112.44 226.274 112.545H226.169C226.169 112.651 226.169 112.756 226.169 112.861H226.063V112.967C225.958 113.072 225.853 113.177 225.747 113.282V113.388H225.642V113.493H225.537L225.431 113.598H225.326V113.704H225.221L225.116 113.809L225.01 113.914H224.905L224.8 114.02C224.694 114.02 224.484 114.02 224.378 114.02L224.273 114.125C223.536 114.125 218.271 114.125 217.323 114.125V107.807H217.218ZM227.222 127.919H227.116V128.025L227.011 128.13V128.235L226.906 128.341V128.446H226.8V128.551H226.695V128.656H226.59V128.762H226.484V128.867H226.169C226.063 128.972 225.958 129.078 225.853 129.183H225.747L225.642 129.288H225.537L225.431 129.394C225.326 129.394 225.221 129.394 225.116 129.394V129.499C225.01 129.499 224.8 129.499 224.694 129.499L224.589 129.604C224.378 129.604 224.063 129.604 223.747 129.604L223.641 129.709C223.536 129.709 223.325 129.709 223.22 129.709H217.218C217.218 128.235 217.218 124.023 217.218 122.549C218.166 122.549 223.641 122.549 224.378 122.549L224.484 122.654C224.589 122.654 224.8 122.654 224.905 122.654L225.01 122.76C225.116 122.76 225.221 122.76 225.326 122.76V122.865C225.431 122.865 225.537 122.865 225.642 122.865V122.97C225.747 122.97 225.853 122.97 225.958 122.97V123.075H226.063C226.169 123.181 226.274 123.286 226.379 123.391H226.484V123.497H226.59V123.602C226.695 123.707 226.8 123.813 226.906 123.918V124.023H227.011C227.011 124.128 227.011 124.234 227.011 124.339H227.116V124.444L227.222 124.55C227.222 124.655 227.222 124.866 227.222 124.971H227.327C227.327 125.603 227.327 126.34 227.327 126.972L227.222 127.077C227.222 127.709 227.222 127.814 227.222 127.919Z" fill="#231F20"/>
<path fill-rule="evenodd" clip-rule="evenodd" d="M267.341 60C268.394 60 269.342 60.3159 270.395 60.8424C271.343 61.3689 272.185 62.106 272.712 63.159C273.238 64.1067 273.554 65.1598 273.554 66.2128C273.554 67.2658 273.238 68.3188 272.712 69.2665C272.185 70.2142 271.448 70.9513 270.395 71.5831C269.447 72.1096 268.394 72.4255 267.341 72.4255C266.288 72.4255 265.235 72.1096 264.287 71.5831C263.34 71.0566 262.603 70.3195 261.971 69.2665C261.444 68.3188 261.128 67.2658 261.128 66.2128C261.128 65.1598 261.444 64.1067 261.971 63.159C262.497 62.2113 263.34 61.3689 264.287 60.8424C265.34 60.2106 266.288 60 267.341 60ZM267.341 60.9477C266.499 60.9477 265.656 61.1583 264.814 61.5795C263.972 62.0007 263.34 62.6325 262.919 63.4749C262.497 64.3173 262.181 65.1598 262.181 66.0022C262.181 66.8446 262.392 67.687 262.813 68.5294C263.234 69.3718 263.866 70.0036 264.709 70.4248C265.551 70.846 266.393 71.0566 267.236 71.0566C268.078 71.0566 268.921 70.846 269.763 70.4248C270.606 70.0036 271.237 69.3718 271.659 68.5294C272.08 67.687 272.29 66.8446 272.29 66.0022C272.29 65.1598 272.08 64.212 271.553 63.4749C271.132 62.6325 270.5 62.0007 269.658 61.5795C269.026 61.2636 268.184 60.9477 267.341 60.9477ZM264.603 69.4771V62.8431H266.92C267.657 62.8431 268.289 62.9484 268.605 63.0537C268.921 63.159 269.237 63.3696 269.447 63.6855C269.658 64.0014 269.763 64.3174 269.763 64.6333C269.763 65.1598 269.553 65.581 269.237 65.8969C268.921 66.2128 268.394 66.4234 267.868 66.5287C268.078 66.634 268.289 66.7393 268.394 66.8446C268.71 67.0552 269.026 67.5817 269.342 68.1082L270.184 69.3718H268.921L268.289 68.3188C267.868 67.4764 267.446 66.9499 267.131 66.7393C266.92 66.634 266.604 66.5287 266.288 66.5287H265.656V69.3718H264.603V69.4771ZM265.656 65.7916H266.92C267.552 65.7916 267.973 65.6863 268.184 65.4757C268.394 65.2651 268.5 65.0545 268.5 64.7386C268.5 64.528 268.394 64.3174 268.289 64.212C268.184 64.1067 268.078 63.8961 267.868 63.8961C267.657 63.7908 267.341 63.7908 266.815 63.7908H265.551V65.7916H265.656Z" fill="#231F20"/>
</svg>
