<svg width="75" height="75" viewBox="0 0 75 75" fill="none" xmlns="http://www.w3.org/2000/svg">
<path d="M73.2331 9.86668C73.2331 11.2167 73.2331 12.5667 73.2331 13.9167C72.7165 15.3333 71.4498 15.15 70.3165 15.1833C70.3165 27.3667 70.3165 39.4667 70.3165 51.65C71.4831 51.5333 72.6165 51.5167 73.2331 52.7333C73.2331 54.1333 73.2331 55.5333 73.2331 56.9167C72.6165 58.15 71.4831 58.0833 70.2998 58.0167C70.2998 58.85 70.2998 59.6167 70.2998 60.3833C70.2998 61.7167 69.6665 62.35 68.3331 62.35C67.4665 62.35 66.6165 62.35 65.7831 62.35C64.4998 65 62.9165 66.2333 60.7165 66.2667C57.9331 66.3167 56.1498 64.8833 55.1498 62.3833C54.4498 62.3833 53.7831 62.3833 53.1331 62.3833C52.1998 64.7167 50.5831 66.1667 48.0498 66.25C45.2998 66.35 43.5165 64.8833 42.5165 62.3667C39.1831 62.3667 35.8665 62.3667 32.5331 62.3667C31.6165 64.7167 29.9831 66.1667 27.4165 66.25C24.6665 66.3333 22.8998 64.85 21.9165 62.3833C21.2165 62.3833 20.5498 62.3833 19.8831 62.3833C18.9665 64.7167 17.3331 66.1667 14.8165 66.25C12.0665 66.35 10.2831 64.8833 9.26647 62.35C8.3998 62.35 7.51647 62.3667 6.63314 62.35C5.38314 62.3333 4.7498 61.7 4.73314 60.45C4.73314 59.6667 4.73314 58.8833 4.73314 58.0167C3.5498 58.0833 2.3998 58.15 1.7998 56.9167C1.7998 55.5167 1.7998 54.1167 1.7998 52.7333C2.41647 51.4667 3.61647 51.6 4.71647 51.6C4.71647 39.4167 4.71647 27.3167 4.71647 15.15C3.51647 15.2 2.33314 15.3 1.7998 13.9167C1.7998 12.5667 1.7998 11.2167 1.7998 9.86668C2.1998 9.20001 2.68314 8.73334 3.5498 8.73334C8.36647 8.75001 13.1831 8.73334 17.9998 8.75001C18.7831 8.75001 19.2331 9.11667 19.2498 9.75001C19.2665 10.4167 18.7998 10.8167 17.9998 10.8333C17.8331 10.8333 17.6665 10.8333 17.5165 10.8333C13.2331 10.8333 8.9498 10.8333 4.68314 10.8333C4.43314 10.8333 4.18314 10.8333 3.8998 10.8333C3.8998 11.5 3.8998 12.0833 3.8998 12.65C3.8998 12.7667 3.91647 12.8667 3.93314 13C26.3498 13 48.7498 13 71.1331 13C71.1331 12.2667 71.1331 11.5833 71.1331 10.8333C70.7998 10.8333 70.4998 10.8333 70.1998 10.8333C54.7331 10.8333 39.2665 10.8333 23.7831 10.8333C23.5331 10.8333 23.2665 10.85 23.0165 10.8167C22.4665 10.75 22.0665 10.3 22.0498 9.78334C22.0498 9.23334 22.4665 8.78334 23.0498 8.73334C23.2498 8.71668 23.4665 8.73334 23.6831 8.73334C39.4831 8.73334 55.2665 8.73334 71.0665 8.71667C72.0498 8.73334 72.7665 8.98334 73.2331 9.86668ZM3.8998 55.9333C6.5498 55.9333 9.11647 55.9333 11.6998 55.9167C11.9165 55.9167 12.1498 55.8167 12.3498 55.7167C13.8165 55.0833 15.2831 55.1 16.7498 55.7C17.0665 55.8333 17.4165 55.9 17.7498 55.9167C19.8498 55.9333 21.9331 55.9333 24.0331 55.9167C24.3498 55.9167 24.6831 55.85 24.9665 55.7167C26.4665 55.0667 27.9331 55.1 29.4331 55.7167C29.7165 55.8333 30.0498 55.9 30.3665 55.9C35.1165 55.9167 39.8665 55.9167 44.5998 55.9C44.9331 55.9 45.2831 55.8167 45.5998 55.6833C47.0831 55.0667 48.5331 55.0833 49.9998 55.7C50.2831 55.8167 50.6165 55.9 50.9331 55.9C53.0498 55.9167 55.1665 55.9167 57.2831 55.9C57.5998 55.9 57.9331 55.8167 58.2165 55.7C59.6831 55.0833 61.1498 55.1 62.6165 55.7C62.9331 55.8333 63.2831 55.9 63.6165 55.9167C65.8665 55.9333 68.1331 55.9333 70.3831 55.9167C70.5998 55.9167 70.8331 55.9 71.0498 55.8833C71.0498 55.1167 71.0498 54.4167 71.0498 53.7C70.7165 53.7 70.4331 53.7 70.1498 53.7C63.5165 53.7 56.8831 53.7 50.2665 53.7C50.0331 53.7 49.7998 53.7167 49.5665 53.6833C48.9998 53.6167 48.6331 53.2 48.6165 52.6667C48.6165 52.1333 48.9831 51.7 49.5331 51.6167C49.7665 51.5833 49.9998 51.6 50.2331 51.6C55.9165 51.6 61.5831 51.6 67.2665 51.6C67.5331 51.6 67.7998 51.6 68.0831 51.6C68.0831 39.4 68.0831 27.3 68.0831 15.1833C47.6331 15.1833 27.2498 15.1833 6.83314 15.1833C6.83314 27.3333 6.83314 39.45 6.83314 51.6C7.16647 51.6 7.43314 51.6 7.71647 51.6C19.8831 51.6 32.0498 51.6 44.2165 51.6C44.4665 51.6 44.7331 51.5833 44.9831 51.6167C45.5331 51.7167 45.8831 52.1833 45.8331 52.7167C45.7998 53.2167 45.4331 53.6167 44.8998 53.6667C44.6665 53.6833 44.4331 53.6833 44.1998 53.6833C31.0331 53.6833 17.8665 53.6833 4.69981 53.6833C4.43314 53.6833 4.1498 53.6833 3.8498 53.6833C3.8998 54.4667 3.8998 55.15 3.8998 55.9333ZM57.0331 60.7667C57.0331 62.65 58.5498 64.1667 60.4331 64.1667C62.2998 64.1667 63.8498 62.6333 63.8498 60.7667C63.8498 58.9 62.2998 57.35 60.4331 57.35C58.5665 57.35 57.0331 58.9 57.0331 60.7667ZM23.7998 60.75C23.7831 62.65 25.2831 64.1667 27.1665 64.1833C29.0498 64.2 30.5831 62.6833 30.6165 60.8C30.6331 58.95 29.0998 57.3667 27.2331 57.35C25.3498 57.3333 23.8165 58.8667 23.7998 60.75ZM17.9665 60.8333C17.9831 58.95 16.4998 57.4 14.6165 57.3667C12.7665 57.3333 11.1831 58.85 11.1498 60.7333C11.1165 62.6 12.6498 64.1667 14.5165 64.2C16.3998 64.2 17.9331 62.7 17.9665 60.8333ZM51.1998 60.7667C51.1998 58.8833 49.6665 57.35 47.7998 57.35C45.9331 57.35 44.3831 58.9167 44.3831 60.7667C44.3831 62.6333 45.9331 64.1667 47.7998 64.1667C49.6998 64.1667 51.1998 62.65 51.1998 60.7667ZM42.9165 58.0833C39.2998 58.0833 35.6998 58.0833 32.0831 58.0833C32.3165 58.8333 32.5498 59.5333 32.7498 60.2C35.9498 60.2 39.1331 60.2 42.2498 60.2C42.4831 59.45 42.6998 58.7667 42.9165 58.0833ZM6.83314 60.2167C7.58314 60.2167 8.28314 60.2167 8.9998 60.2167C9.23314 59.5 9.44981 58.7833 9.66647 58.0833C8.71647 58.0833 7.76647 58.0833 6.83314 58.0833C6.83314 58.8167 6.83314 59.5 6.83314 60.2167ZM65.3165 58.05C65.5498 58.8 65.7665 59.4833 65.9998 60.1833C66.7165 60.1833 67.4498 60.1833 68.1665 60.1833C68.1665 59.45 68.1665 58.7667 68.1665 58.05C67.1998 58.05 66.2831 58.05 65.3165 58.05ZM22.2998 58.0833C21.3331 58.0833 20.3831 58.0833 19.4331 58.0833C19.6665 58.8167 19.8831 59.5167 20.1165 60.2333C20.6331 60.2333 21.1331 60.2333 21.6331 60.2333C21.8665 59.4833 22.0831 58.7833 22.2998 58.0833ZM54.8831 60.2167C55.1165 59.4667 55.3331 58.7667 55.5665 58.05C54.5998 58.05 53.6498 58.05 52.6998 58.05C52.9331 58.7833 53.1498 59.4833 53.3831 60.2167C53.8331 60.2167 54.3498 60.2167 54.8831 60.2167Z" fill="#008CFF"/>
<path d="M10.533 33.4167C10.533 28.5833 10.533 23.75 10.533 18.9C10.533 18.65 10.5163 18.3833 10.5496 18.1333C10.6163 17.6667 10.9663 17.3333 11.4163 17.2667C11.9163 17.2 12.3663 17.4333 12.5163 17.9167C12.5996 18.15 12.6163 18.4167 12.6163 18.6667C12.6163 28.4833 12.6163 38.3 12.6163 48.1167C12.6163 48.35 12.5996 48.5833 12.533 48.8C12.383 49.2833 11.9496 49.55 11.4663 49.5167C10.983 49.4667 10.5996 49.1167 10.5496 48.6167C10.5163 48.3833 10.533 48.15 10.533 47.9167C10.533 43.0833 10.533 38.25 10.533 33.4167Z" fill="#008CFF"/>
<path d="M24.1331 33.3667C24.1331 38.2 24.1331 43.0333 24.1331 47.8833C24.1331 48.1167 24.1498 48.35 24.1165 48.5833C24.0498 49.1167 23.6665 49.4833 23.1665 49.5167C22.6831 49.55 22.2498 49.2667 22.1165 48.7667C22.0498 48.55 22.0498 48.3167 22.0498 48.0833C22.0498 38.3 22.0498 28.5 22.0498 18.7167C22.0498 18.55 22.0498 18.3833 22.0665 18.2333C22.1498 17.6167 22.5831 17.25 23.1498 17.2667C23.7165 17.2833 24.0998 17.6833 24.1498 18.3C24.1665 18.5167 24.1498 18.7167 24.1498 18.9333C24.1331 23.75 24.1331 28.5667 24.1331 33.3667Z" fill="#008CFF"/>
<path d="M50.8665 33.3333C50.8665 28.5167 50.8665 23.7 50.8665 18.8833C50.8665 18.6333 50.8498 18.3667 50.8831 18.1167C50.9498 17.65 51.2998 17.3167 51.7498 17.25C52.2498 17.1833 52.6831 17.4333 52.8498 17.9C52.9331 18.1333 52.9498 18.4 52.9498 18.65C52.9498 28.4667 52.9498 38.2833 52.9498 48.1C52.9498 48.3333 52.9331 48.5667 52.8665 48.7833C52.7165 49.2667 52.2831 49.5333 51.7998 49.5C51.3165 49.45 50.9498 49.1 50.8831 48.6C50.8498 48.3667 50.8665 48.1333 50.8665 47.9C50.8665 43.0667 50.8665 38.2 50.8665 33.3333Z" fill="#008CFF"/>
<path d="M64.4666 33.4C64.4666 38.2333 64.4666 43.0667 64.4666 47.9167C64.4666 48.15 64.4833 48.3833 64.45 48.6167C64.3833 49.1167 64.0166 49.4833 63.55 49.5333C63.0333 49.5833 62.5833 49.2833 62.45 48.7667C62.3833 48.55 62.3833 48.3 62.3833 48.0833C62.3833 38.3 62.3833 28.5 62.3833 18.7167C62.3833 18.4833 62.4 18.25 62.45 18.0333C62.6 17.5167 63.0333 17.2333 63.5666 17.3C64.05 17.35 64.4 17.7167 64.4666 18.2167C64.5 18.45 64.4833 18.6833 64.4833 18.9167C64.4666 23.7167 64.4666 28.55 64.4666 33.4Z" fill="#008CFF"/>
<path d="M27.8166 33.3167C27.8166 28.5 27.8166 23.6833 27.8166 18.8833C27.8166 18.6333 27.8166 18.3667 27.85 18.1167C27.9333 17.6167 28.3166 17.2833 28.8 17.2667C29.3 17.25 29.7166 17.5167 29.8333 18.0167C29.9 18.2667 29.9 18.5167 29.9 18.7833C29.9 28.5333 29.9 38.2667 29.9 48.0167C29.9 48.2667 29.8833 48.5333 29.8333 48.7833C29.7166 49.2667 29.2833 49.5667 28.8 49.55C28.3166 49.5333 27.9166 49.2 27.85 48.7C27.8 48.4333 27.8166 48.15 27.8166 47.8667C27.8166 43 27.8166 38.15 27.8166 33.3167Z" fill="#008CFF"/>
<path d="M33.583 33.3167C33.583 28.5 33.583 23.6833 33.583 18.8667C33.583 18.65 33.5663 18.45 33.583 18.2333C33.633 17.6667 34.0163 17.2667 34.5496 17.25C35.0996 17.2167 35.533 17.5667 35.633 18.1167C35.6663 18.3167 35.6496 18.5333 35.6496 18.75C35.6496 28.5 35.6496 38.2333 35.6496 47.9833C35.6496 48.2333 35.6496 48.5 35.583 48.75C35.4496 49.2667 34.983 49.5667 34.4663 49.5C33.9996 49.45 33.6163 49.0833 33.5496 48.5833C33.5163 48.35 33.533 48.1167 33.533 47.8833C33.583 43.05 33.583 38.1833 33.583 33.3167Z" fill="#008CFF"/>
<path d="M41.4164 33.4167C41.4164 38.3 41.4164 43.1833 41.4164 48.0667C41.4164 49.0333 41.0831 49.5 40.3997 49.5167C39.6997 49.5333 39.3164 49.0333 39.3164 48.05C39.3164 38.2833 39.3164 28.5167 39.3164 18.75C39.3164 18.5167 39.3164 18.2833 39.3664 18.05C39.4831 17.5333 39.9331 17.2333 40.4497 17.2667C40.9664 17.3 41.3497 17.6667 41.3997 18.2C41.4164 18.4333 41.4164 18.6667 41.4164 18.9C41.4164 23.7333 41.4164 28.5667 41.4164 33.4167Z" fill="#008CFF"/>
<path d="M47.183 33.45C47.183 38.2333 47.183 43.0333 47.183 47.8167C47.183 48.0667 47.183 48.3333 47.1663 48.5833C47.0997 49.1333 46.7163 49.4833 46.1997 49.5167C45.6663 49.55 45.233 49.2 45.1163 48.6333C45.083 48.4333 45.083 48.2167 45.083 48.0167C45.083 38.2667 45.083 28.5333 45.083 18.7833C45.083 18.5333 45.083 18.2667 45.1497 18.0167C45.2663 17.5167 45.683 17.2333 46.183 17.2667C46.683 17.2833 47.0663 17.6 47.1497 18.1C47.1997 18.3667 47.183 18.65 47.183 18.9333C47.183 23.7667 47.183 28.6167 47.183 33.45Z" fill="#008CFF"/>
<path d="M18.3832 33.3833C18.3832 38.2167 18.3832 43.0667 18.3832 47.9C18.3832 48.0833 18.3999 48.2667 18.3832 48.45C18.3332 49.1 17.8999 49.5167 17.3166 49.5C16.7666 49.4833 16.3499 49.0667 16.2999 48.4667C16.2832 48.3 16.2999 48.1333 16.2999 47.9833C16.2999 38.2333 16.2999 28.5 16.2999 18.75C16.2999 18.5667 16.2832 18.3833 16.3166 18.2C16.3832 17.6333 16.7999 17.2667 17.3332 17.25C17.8666 17.25 18.2999 17.6167 18.3832 18.1667C18.4166 18.3667 18.3999 18.5833 18.3999 18.8C18.3832 23.6667 18.3832 28.5333 18.3832 33.3833Z" fill="#008CFF"/>
<path d="M58.7164 33.4C58.7164 38.2833 58.7164 43.1667 58.7164 48.05C58.7164 49.0333 58.3497 49.5333 57.6497 49.5167C56.9664 49.5 56.6331 49.0167 56.6331 48.0667C56.6331 38.2667 56.6331 28.4833 56.6331 18.6833C56.6331 18.5 56.6164 18.3 56.6497 18.1333C56.7331 17.6167 57.1664 17.2667 57.6664 17.2667C58.1831 17.2667 58.6164 17.6 58.6997 18.1167C58.7331 18.35 58.7164 18.5833 58.7164 18.8167C58.7164 23.6667 58.7164 28.5333 58.7164 33.4Z" fill="#008CFF"/>
<path d="M61.4831 60.75C61.4831 61.3 61.0164 61.7833 60.4664 61.8C59.8831 61.8167 59.3998 61.35 59.4164 60.75C59.4331 60.2 59.8498 59.75 60.3664 59.7333C60.9331 59.7167 61.4831 60.2 61.4831 60.75Z" fill="#008CFF"/>
<path d="M27.1497 59.7333C27.7331 59.7333 28.2331 60.2333 28.2331 60.7833C28.2164 61.35 27.7664 61.8 27.1997 61.8C26.6331 61.8 26.1997 61.3667 26.1831 60.7833C26.1664 60.2167 26.5997 59.7333 27.1497 59.7333Z" fill="#008CFF"/>
<path d="M14.5499 61.8C13.9833 61.8 13.5333 61.35 13.5166 60.7833C13.5166 60.2333 13.9833 59.7333 14.5166 59.7333C15.0999 59.7333 15.5999 60.2167 15.5833 60.8C15.5666 61.35 15.0999 61.8 14.5499 61.8Z" fill="#008CFF"/>
<path d="M48.8165 60.75C48.8332 61.3167 48.3999 61.7833 47.8332 61.8C47.2332 61.8333 46.7499 61.35 46.7665 60.7667C46.7665 60.2 47.2332 59.7333 47.7832 59.7333C48.3499 59.75 48.8165 60.2 48.8165 60.75Z" fill="#008CFF"/>
</svg>
