<svg width="75" height="75" viewBox="0 0 75 75" fill="none" xmlns="http://www.w3.org/2000/svg">
<path d="M18.5002 69.6334C17.3668 69.3334 16.2835 68.95 15.4002 68.15C14.1168 66.9834 13.4335 65.5334 13.3835 63.8C13.3502 62.65 13.3668 61.5167 13.3835 60.3667C13.3835 59.6334 13.7335 59.2001 14.3002 59.2001C14.8835 59.2001 15.2502 59.6167 15.2502 60.35C15.2502 61.4334 15.2502 62.5167 15.2502 63.6C15.2668 66 17.0002 67.7667 19.3835 67.7667C31.5002 67.7834 43.6335 67.7834 55.7502 67.7667C58.1668 67.7667 59.8835 65.9667 59.8835 63.4667C59.8835 49.7167 59.8835 35.9834 59.8835 22.2334C59.8835 22.0334 59.8668 21.8167 59.8835 21.6167C59.9335 21.0834 60.3002 20.7001 60.8002 20.6834C61.2835 20.6667 61.7002 21.0501 61.7502 21.5834C61.7668 21.7834 61.7502 22.0001 61.7502 22.2001C61.7502 35.8667 61.7502 49.5167 61.7502 63.1834C61.7502 66.65 60.1168 68.7334 56.7168 69.5667C56.6835 69.5834 56.6502 69.6167 56.6168 69.6334C43.9168 69.6334 31.2002 69.6334 18.5002 69.6334Z" fill="#008CFF"/>
<path d="M56.6334 5.63336C57.0334 5.75003 57.4334 5.85003 57.8167 6.00003C60.1501 6.83336 61.7167 8.98336 61.7501 11.4667C61.7834 13.45 61.7667 15.4167 61.7501 17.4C61.7501 18.0834 61.3834 18.5 60.8334 18.5C60.2501 18.5 59.8834 18.0834 59.8834 17.3667C59.8834 15.5167 59.8834 13.6667 59.8834 11.8C59.8834 9.2167 58.1667 7.50003 55.5667 7.50003C43.5667 7.50003 31.5667 7.50003 19.5834 7.50003C16.9667 7.50003 15.2667 9.21669 15.2667 11.8667C15.2667 24.2667 15.2667 36.65 15.2667 49.05C15.2667 49.25 15.2834 49.4667 15.2501 49.6667C15.1834 50.1834 14.8834 50.5 14.3334 50.5167C13.8167 50.5334 13.4334 50.1834 13.3834 49.6334C13.3667 49.4667 13.3834 49.3 13.3834 49.1334C13.3834 36.7167 13.3834 24.3 13.3834 11.9C13.3834 8.65003 15.15 6.45003 18.35 5.7167C18.4001 5.70003 18.4501 5.65003 18.5167 5.63336C31.2001 5.63336 43.9167 5.63336 56.6334 5.63336Z" fill="#008CFF"/>
<path d="M17.1334 37.5667C17.1334 29.05 17.1334 20.5334 17.1334 12C17.1334 10.1834 17.9334 9.3667 19.7667 9.3667C31.6334 9.3667 43.5167 9.3667 55.3834 9.3667C57.2001 9.3667 58.0167 10.1667 58.0167 12C58.0167 29.0834 58.0167 46.1667 58.0167 63.25C58.0167 65.0667 57.2167 65.8834 55.3834 65.8834C43.5167 65.8834 31.6334 65.8834 19.7667 65.8834C17.95 65.8834 17.1334 65.0834 17.1334 63.25C17.1167 54.6834 17.1334 46.1167 17.1334 37.5667ZM39.5501 15.6667C39.5501 14.1667 39.5501 12.7334 39.5501 11.3C38.2167 11.3 36.9167 11.3 35.6001 11.3C35.6001 12.7834 35.6001 14.2167 35.6001 15.6667C36.9334 15.6667 38.2167 15.6667 39.5501 15.6667ZM35.5834 63.95C36.9334 63.95 38.2334 63.95 39.5501 63.95C39.5501 62.4834 39.5501 61.05 39.5501 59.6167C38.2167 59.6167 36.9167 59.6167 35.5834 59.6167C35.5834 61.0834 35.5834 62.5167 35.5834 63.95ZM23.7667 15.6167C25.1334 15.6167 26.4334 15.6167 27.7167 15.6167C27.7167 14.1167 27.7167 12.7 27.7167 11.3C26.3667 11.3 25.0667 11.3 23.7667 11.3C23.7667 12.7667 23.7667 14.1834 23.7667 15.6167ZM47.3834 15.65C48.7334 15.65 50.0334 15.65 51.3167 15.65C51.3167 14.15 51.3167 12.7167 51.3167 11.2834C49.9834 11.2834 48.7001 11.2834 47.3834 11.2834C47.3834 12.7334 47.3834 14.1667 47.3834 15.65ZM33.6334 11.2834C32.3001 11.2834 31.0001 11.2834 29.6834 11.2834C29.6834 12.75 29.6834 14.2 29.6834 15.65C31.0167 15.65 32.3167 15.65 33.6334 15.65C33.6334 14.1667 33.6334 12.7334 33.6334 11.2834ZM41.5167 11.2834C41.5167 12.7834 41.5167 14.2167 41.5167 15.65C42.8667 15.65 44.1667 15.65 45.4501 15.65C45.4501 14.1667 45.4501 12.7334 45.4501 11.2834C44.1167 11.2834 42.8334 11.2834 41.5167 11.2834ZM47.3834 63.95C48.7334 63.95 50.0334 63.95 51.3334 63.95C51.3334 62.4834 51.3334 61.05 51.3334 59.6C50.0001 59.6 48.7167 59.6 47.3834 59.6C47.3834 61.0667 47.3834 62.5 47.3834 63.95ZM41.5001 63.95C42.8667 63.95 44.1667 63.95 45.4334 63.95C45.4334 62.4667 45.4334 61.05 45.4334 59.6167C44.1001 59.6167 42.8167 59.6167 41.5001 59.6167C41.5001 61.0667 41.5001 62.5 41.5001 63.95ZM29.6667 63.95C31.0334 63.95 32.3334 63.95 33.6167 63.95C33.6167 62.4834 33.6167 61.05 33.6167 59.6167C32.2667 59.6167 30.9834 59.6167 29.6667 59.6167C29.6667 61.1 29.6667 62.5 29.6667 63.95ZM23.7834 63.9667C25.1334 63.9667 26.4167 63.9667 27.7167 63.9667C27.7167 62.4834 27.7167 61.05 27.7167 59.6167C26.3834 59.6167 25.1 59.6167 23.7834 59.6167C23.7834 61.0667 23.7834 62.4834 23.7834 63.9667ZM35.6001 17.6167C35.6001 18.9834 35.6001 20.3167 35.6001 21.6334C36.9501 21.6334 38.2501 21.6334 39.5501 21.6334C39.5501 20.2667 39.5501 18.9667 39.5501 17.6167C38.2167 17.6167 36.9167 17.6167 35.6001 17.6167ZM39.5334 57.6667C39.5334 56.2667 39.5334 54.95 39.5334 53.6167C38.2001 53.6167 36.9167 53.6167 35.6001 53.6167C35.6001 54.9834 35.6001 56.3167 35.6001 57.6667C36.9334 57.6667 38.2167 57.6667 39.5334 57.6667ZM35.6001 47.6167C35.6001 48.9834 35.6001 50.3167 35.6001 51.6334C36.9501 51.6334 38.2501 51.6334 39.5501 51.6334C39.5501 50.2667 39.5501 48.9667 39.5501 47.6167C38.2167 47.6167 36.9167 47.6167 35.6001 47.6167ZM39.5501 41.6167C38.2167 41.6167 36.9167 41.6167 35.5834 41.6167C35.5834 42.9834 35.5834 44.3 35.5834 45.65C36.9167 45.65 38.2167 45.65 39.5501 45.65C39.5501 44.2834 39.5501 42.9667 39.5501 41.6167ZM35.6001 35.6C35.6001 36.9834 35.6001 38.3167 35.6001 39.6334C36.9501 39.6334 38.2501 39.6334 39.5334 39.6334C39.5334 38.25 39.5334 36.9334 39.5334 35.6C38.2167 35.6 36.9501 35.6 35.6001 35.6ZM35.5834 33.7C36.85 33.7 38.0334 33.7167 39.2167 33.6834C39.3334 33.6834 39.5667 33.5 39.5667 33.3834C39.5834 32.1334 39.5834 30.9 39.5834 29.6167C38.2167 29.6167 36.9167 29.6167 35.5834 29.6167C35.5834 30.9667 35.5834 32.2834 35.5834 33.7ZM39.5501 23.6167C38.2167 23.6167 36.9167 23.6167 35.5834 23.6167C35.5834 24.9667 35.5834 26.3 35.5834 27.65C36.9167 27.65 38.2167 27.65 39.5501 27.65C39.5501 26.3 39.5501 24.9834 39.5501 23.6167ZM23.7834 39.65C25.1334 39.65 26.4334 39.65 27.7334 39.65C27.7334 38.2834 27.7334 36.9667 27.7334 35.6C26.4 35.6 25.1167 35.6 23.7834 35.6C23.7834 36.9667 23.7834 38.2834 23.7834 39.65ZM47.4001 27.65C48.7501 27.65 50.0501 27.65 51.3501 27.65C51.3501 26.2834 51.3501 24.9667 51.3501 23.6167C50.0167 23.6167 48.7334 23.6167 47.4001 23.6167C47.4001 24.9667 47.4001 26.2834 47.4001 27.65ZM27.7334 29.6167C26.3834 29.6167 25.0834 29.6167 23.7834 29.6167C23.7834 30.9834 23.7834 32.3 23.7834 33.65C25.1167 33.65 26.4167 33.65 27.7334 33.65C27.7334 32.3 27.7334 30.9834 27.7334 29.6167ZM23.7834 27.65C25.1334 27.65 26.4167 27.65 27.7167 27.65C27.7167 26.2667 27.7167 24.9334 27.7167 23.6C26.3834 23.6 25.1 23.6 23.7834 23.6C23.7834 24.95 23.7834 26.2834 23.7834 27.65ZM51.3501 29.6167C50.0001 29.6167 48.7167 29.6167 47.4001 29.6167C47.4001 30.9834 47.4001 32.3 47.4001 33.6667C48.7334 33.6667 50.0167 33.6667 51.3501 33.6667C51.3501 32.3167 51.3501 30.9834 51.3501 29.6167ZM23.8001 17.6C23.8001 18.95 23.8001 20.2834 23.8001 21.6667C25.1001 21.6667 26.4 21.6667 27.7334 21.6667C27.7334 20.3 27.7334 18.9667 27.7334 17.6C26.4 17.6 25.1167 17.6 23.8001 17.6ZM47.4001 57.65C48.7501 57.65 50.0501 57.65 51.3501 57.65C51.3501 56.2834 51.3501 54.9667 51.3501 53.6167C50.0167 53.6167 48.7334 53.6167 47.4001 53.6167C47.4001 54.9667 47.4001 56.2834 47.4001 57.65ZM47.4167 35.6C47.4167 36.9834 47.4167 38.3167 47.4167 39.65C48.7667 39.65 50.0501 39.65 51.3501 39.65C51.3501 38.2834 51.3501 36.95 51.3501 35.6C50.0334 35.6 48.7501 35.6 47.4167 35.6ZM23.8001 41.6C23.8001 42.9834 23.8001 44.3167 23.8001 45.65C25.1334 45.65 26.4334 45.65 27.7334 45.65C27.7334 44.2834 27.7334 42.9667 27.7334 41.6C26.4167 41.6 25.1334 41.6 23.8001 41.6ZM51.3167 45.6667C51.3167 44.2834 51.3167 42.9334 51.3167 41.6C49.9834 41.6 48.7001 41.6 47.4001 41.6C47.4001 42.9667 47.4001 44.3 47.4001 45.6667C48.7167 45.6667 50 45.6667 51.3167 45.6667ZM23.7834 57.65C25.1334 57.65 26.4167 57.65 27.7167 57.65C27.7167 56.2667 27.7167 54.9334 27.7167 53.6C26.3834 53.6 25.1 53.6 23.7834 53.6C23.7834 54.95 23.7834 56.2834 23.7834 57.65ZM47.4001 47.6C47.4001 48.9667 47.4001 50.3 47.4001 51.65C48.7501 51.65 50.0334 51.65 51.3334 51.65C51.3334 50.2834 51.3334 48.9667 51.3334 47.6C50.0167 47.6 48.7167 47.6 47.4001 47.6ZM23.7834 47.6C23.7834 48.9834 23.7834 50.3 23.7834 51.6334C25.1167 51.6334 26.4167 51.6334 27.7334 51.6334C27.7334 50.2667 27.7334 48.9334 27.7334 47.6C26.4 47.6 25.1167 47.6 23.7834 47.6ZM51.3167 21.6667C51.3167 20.2834 51.3167 18.9334 51.3167 17.6C49.9834 17.6 48.7001 17.6 47.4001 17.6C47.4001 18.9667 47.4001 20.3 47.4001 21.6667C48.7167 21.6667 50 21.6667 51.3167 21.6667ZM45.4501 27.65C45.4501 26.2834 45.4501 24.9667 45.4501 23.6167C44.1167 23.6167 42.8167 23.6167 41.5001 23.6167C41.5001 24.9834 41.5001 26.3 41.5001 27.65C42.8334 27.65 44.1334 27.65 45.4501 27.65ZM29.6834 29.6C29.6834 30.95 29.6834 32.2834 29.6834 33.65C31.0001 33.65 32.3 33.65 33.6167 33.65C33.6167 32.2834 33.6167 30.95 33.6167 29.6C32.2834 29.6 31.0001 29.6 29.6834 29.6ZM45.4501 33.65C45.4501 32.2834 45.4501 30.9667 45.4501 29.6167C44.1167 29.6167 42.8167 29.6167 41.5001 29.6167C41.5001 30.9834 41.5001 32.3 41.5001 33.65C42.8334 33.65 44.1334 33.65 45.4501 33.65ZM29.6834 17.6167C29.6834 18.9834 29.6834 20.3 29.6834 21.6667C31.0001 21.6667 32.3 21.6667 33.6167 21.6667C33.6167 20.3 33.6167 18.9667 33.6167 17.6167C32.2834 17.6167 31.0001 17.6167 29.6834 17.6167ZM33.6334 23.6167C32.2667 23.6167 30.9834 23.6167 29.6834 23.6167C29.6834 24.9834 29.6834 26.3 29.6834 27.6667C31.0167 27.6667 32.3167 27.6667 33.6334 27.6667C33.6334 26.3 33.6334 24.9667 33.6334 23.6167ZM29.6834 35.6C29.6834 36.9667 29.6834 38.3 29.6834 39.65C31.0167 39.65 32.3167 39.65 33.6167 39.65C33.6167 38.2834 33.6167 36.95 33.6167 35.6C32.3167 35.6 31.0501 35.6 29.6834 35.6ZM45.4501 35.6167C44.1167 35.6167 42.8167 35.6167 41.5001 35.6167C41.5001 36.9834 41.5001 38.3 41.5001 39.6667C42.8334 39.6667 44.1334 39.6667 45.4501 39.6667C45.4501 38.3 45.4501 36.9667 45.4501 35.6167ZM41.5001 53.6167C41.5001 54.9667 41.5001 56.3 41.5001 57.6334C42.8334 57.6334 44.1501 57.6334 45.4501 57.6334C45.4501 56.2667 45.4501 54.9667 45.4501 53.6167C44.1167 53.6167 42.8334 53.6167 41.5001 53.6167ZM45.4501 17.6167C44.1167 17.6167 42.8167 17.6167 41.5001 17.6167C41.5001 18.9834 41.5001 20.3 41.5001 21.6667C42.8334 21.6667 44.1334 21.6667 45.4501 21.6667C45.4501 20.3 45.4501 18.9667 45.4501 17.6167ZM33.6167 45.65C33.6167 44.2667 33.6167 42.9334 33.6167 41.6C32.2834 41.6 31.0001 41.6 29.6834 41.6C29.6834 42.9667 29.6834 44.2834 29.6834 45.65C30.9834 45.65 32.2667 45.65 33.6167 45.65ZM29.6667 57.6334C31.0167 57.6334 32.3167 57.6334 33.6167 57.6334C33.6167 56.2667 33.6167 54.95 33.6167 53.6167C32.2834 53.6167 30.9834 53.6167 29.6667 53.6167C29.6667 54.9667 29.6667 56.2667 29.6667 57.6334ZM45.4501 45.65C45.4501 44.2834 45.4501 42.9667 45.4501 41.6167C44.1167 41.6167 42.8167 41.6167 41.5001 41.6167C41.5001 42.9834 41.5001 44.3 41.5001 45.65C42.8334 45.65 44.1334 45.65 45.4501 45.65ZM29.6667 51.65C31 51.65 32.3 51.65 33.6167 51.65C33.6167 50.2834 33.6167 48.9667 33.6167 47.6167C32.2834 47.6167 30.9834 47.6167 29.6667 47.6167C29.6667 48.9834 29.6667 50.3 29.6667 51.65ZM41.5001 47.6167C41.5001 48.9834 41.5001 50.3 41.5001 51.6667C42.8334 51.6667 44.1334 51.6667 45.4501 51.6667C45.4501 50.3 45.4501 48.9834 45.4501 47.6167C44.1334 47.6167 42.8501 47.6167 41.5001 47.6167ZM21.8334 15.65C21.8334 14.1667 21.8334 12.7334 21.8334 11.25C21.0167 11.25 20.2167 11.2334 19.4334 11.2667C19.2834 11.2667 19.0167 11.5167 19.0167 11.65C18.9834 12.9667 19.0001 14.3 19.0001 15.65C19.9834 15.65 20.9001 15.65 21.8334 15.65ZM53.2834 15.6167C54.2501 15.6167 55.1834 15.6167 56.1334 15.6167C56.1334 14.3 56.1501 13.05 56.1167 11.8C56.1167 11.6167 55.8667 11.2834 55.7167 11.2667C54.9167 11.2167 54.1167 11.2334 53.2834 11.2334C53.2834 12.7334 53.2834 14.1667 53.2834 15.6167ZM53.2501 59.5834C53.2501 60.3667 53.2501 61.0834 53.2501 61.8C53.2501 62.5167 53.2501 63.2334 53.2501 63.9834C53.8001 63.9834 54.2501 63.9834 54.7001 63.9834C56.3334 63.9667 56.1001 64.2 56.1167 62.55C56.1167 61.5667 56.1167 60.5667 56.1167 59.5667C55.1334 59.5834 54.2501 59.5834 53.2501 59.5834ZM21.8501 64C21.8501 62.5 21.8501 61.0667 21.8501 59.6167C20.9001 59.6167 19.9834 59.6167 19.0167 59.6167C19.0167 60.9667 19 62.2667 19.0334 63.5834C19.0334 63.7334 19.3334 63.9834 19.5001 63.9834C20.2501 64.0167 21.0167 64 21.8501 64ZM53.3 47.6C53.3 48.9667 53.3 50.3 53.3 51.6334C54.2667 51.6334 55.1834 51.6334 56.1001 51.6334C56.1001 50.25 56.1001 48.9334 56.1001 47.6C55.1334 47.6 54.2334 47.6 53.3 47.6ZM19.0334 53.6C19.0334 54.9834 19.0334 56.3 19.0334 57.65C19.9834 57.65 20.9167 57.65 21.8501 57.65C21.8501 56.2834 21.8501 54.9667 21.8501 53.6C20.9001 53.6 20 53.6 19.0334 53.6ZM19.0334 47.6C19.0334 48.9834 19.0334 50.3 19.0334 51.65C19.9834 51.65 20.9167 51.65 21.8501 51.65C21.8501 50.2834 21.8501 48.9667 21.8501 47.6C20.9001 47.6 20 47.6 19.0334 47.6ZM56.1001 21.65C56.1001 20.2834 56.1001 18.9667 56.1001 17.6167C55.1501 17.6167 54.2334 17.6167 53.2834 17.6167C53.2834 18.9834 53.2834 20.3 53.2834 21.65C54.2334 21.65 55.1501 21.65 56.1001 21.65ZM19.0501 41.6C19.0501 42.9667 19.0501 44.3 19.0501 45.65C20.0001 45.65 20.9167 45.65 21.8334 45.65C21.8334 44.2834 21.8334 42.9334 21.8334 41.6C20.8834 41.6 19.9667 41.6 19.0501 41.6ZM53.2834 39.6334C54.2501 39.6334 55.1667 39.6334 56.0834 39.6334C56.0834 38.25 56.0834 36.9334 56.0834 35.6C55.1334 35.6 54.2334 35.6 53.2834 35.6C53.2834 36.95 53.2834 38.2834 53.2834 39.6334ZM21.8334 27.65C21.8334 26.2834 21.8334 24.95 21.8334 23.6C20.8834 23.6 19.9667 23.6 19.0334 23.6C19.0334 24.9667 19.0334 26.2834 19.0334 27.65C19.9667 27.65 20.9001 27.65 21.8334 27.65ZM56.0834 57.6667C56.0834 56.2834 56.0834 54.95 56.0834 53.6167C55.1334 53.6167 54.2001 53.6167 53.2834 53.6167C53.2834 54.9834 53.2834 56.3167 53.2834 57.6667C54.2334 57.6667 55.1334 57.6667 56.0834 57.6667ZM21.8501 35.6167C20.8667 35.6167 19.95 35.6167 19.0334 35.6167C19.0334 36.9834 19.0334 38.3167 19.0334 39.65C20 39.65 20.9167 39.65 21.8501 39.65C21.8501 38.3 21.8501 36.9834 21.8501 35.6167ZM53.3 29.6C53.3 30.9667 53.3 32.3 53.3 33.6334C54.2667 33.6334 55.1834 33.6334 56.0834 33.6334C56.0834 32.25 56.0834 30.9334 56.0834 29.6C55.1334 29.6 54.2334 29.6 53.3 29.6ZM19.0167 21.65C20 21.65 20.9167 21.65 21.8334 21.65C21.8334 20.2834 21.8334 18.95 21.8334 17.6334C20.8667 17.6334 19.95 17.6334 19.0167 17.6334C19.0167 18.9834 19.0167 20.2834 19.0167 21.65ZM19.0334 29.6C19.0334 30.9834 19.0334 32.3 19.0334 33.65C19.9834 33.65 20.9167 33.65 21.8501 33.65C21.8501 32.2834 21.8501 30.9667 21.8501 29.6C20.9001 29.6 20 29.6 19.0334 29.6ZM53.2834 23.6C53.2834 24.9834 53.2834 26.3167 53.2834 27.65C54.2334 27.65 55.1667 27.65 56.0834 27.65C56.0834 26.2834 56.0834 24.95 56.0834 23.6C55.1501 23.6 54.2334 23.6 53.2834 23.6ZM56.0834 41.6167C55.1334 41.6167 54.2001 41.6167 53.2834 41.6167C53.2834 42.9834 53.2834 44.3167 53.2834 45.65C54.2501 45.65 55.1667 45.65 56.0834 45.65C56.0834 44.2834 56.0834 42.95 56.0834 41.6167Z" fill="#008CFF"/>
<path d="M15.2503 54.9C15.2503 55.3 15.2669 55.7 15.2503 56.0834C15.2169 56.6667 14.8503 57.05 14.3336 57.0667C13.8169 57.0834 13.4003 56.6834 13.3836 56.1167C13.3669 55.3 13.3669 54.5 13.3836 53.6834C13.4003 53.1 13.7669 52.7167 14.3003 52.7C14.8503 52.6834 15.2336 53.0834 15.2503 53.7167C15.2669 54.1 15.2503 54.5 15.2503 54.9Z" fill="#008CFF"/>
</svg>
