<svg width="350" height="200" viewBox="0 0 350 200" fill="none" xmlns="http://www.w3.org/2000/svg">
<path d="M56.4086 117.948L45.3335 131.567V117.948H38V150.575H45.3335V135.907L58.6535 150.575H67.9327L52.5173 133.663L65.3884 117.948H56.4086Z" fill="#0075C5"/>
<path d="M65.9878 139.05C65.9878 132.315 71.5253 127.077 78.1105 127.077C84.6957 127.077 90.2333 132.315 90.2333 139.05C90.2333 145.785 84.6957 151.023 78.1105 151.023C71.5253 151.173 65.9878 145.935 65.9878 139.05ZM68.9811 120.641C68.9811 118.546 70.6274 116.9 72.7226 116.9C74.6683 116.9 76.3146 118.546 76.3146 120.641C76.3146 122.587 74.6683 124.233 72.7226 124.233C70.6274 124.233 68.9811 122.587 68.9811 120.641ZM83.1991 139.05C83.1991 135.757 80.9541 133.513 78.1105 133.513C75.2669 133.513 73.022 135.757 73.022 139.05C73.022 142.343 75.2669 144.588 78.1105 144.588C81.1038 144.588 83.1991 142.343 83.1991 139.05ZM79.9065 120.641C79.9065 118.546 81.5528 116.9 83.6481 116.9C85.7434 116.9 87.3897 118.546 87.3897 120.641C87.3897 122.587 85.7434 124.233 83.6481 124.233C81.5528 124.233 79.9065 122.587 79.9065 120.641Z" fill="#0075C5"/>
<path d="M94.573 127.526H101.458V129.921C102.655 128.274 104.6 127.077 107.294 127.077C110.587 127.077 112.982 128.574 114.478 131.118C115.975 128.274 119.118 127.077 121.512 127.077C127.2 127.077 130.343 131.118 130.343 137.554V150.724H123.308V138.751C123.308 135.458 122.41 133.513 120.016 133.513C117.621 133.513 115.825 135.309 115.825 139.499V150.724H108.791V138.751C108.791 135.458 107.893 133.513 105.498 133.513C103.104 133.513 101.308 135.309 101.308 139.499V150.724H94.4233V127.526H94.573Z" fill="#0075C5"/>
<path d="M135.73 127.526H142.764V129.921C143.961 128.274 145.907 127.077 148.601 127.077C151.894 127.077 154.288 128.574 155.785 131.118C157.282 128.274 160.424 127.077 162.819 127.077C168.506 127.077 171.649 131.118 171.649 137.554V150.724H164.765V138.751C164.765 135.458 163.867 133.513 161.472 133.513C159.077 133.513 157.282 135.309 157.282 139.499V150.724H150.247V138.751C150.247 135.458 149.349 133.513 146.955 133.513C144.56 133.513 142.764 135.309 142.764 139.499V150.724H135.88V127.526H135.73Z" fill="#0075C5"/>
<path d="M175.69 139.05C175.69 132.166 180.929 127.077 187.963 127.077C194.548 127.077 200.535 131.567 200.235 140.697H182.425C182.725 143.091 184.521 145.186 188.262 145.186C190.357 145.186 192.153 144.288 192.752 143.091H200.086C198.589 147.88 193.8 151.323 187.963 151.323C180.779 151.173 175.69 146.084 175.69 139.05ZM182.575 136.356H192.453C191.704 133.662 189.459 132.615 187.664 132.615C184.97 132.615 183.174 134.111 182.575 136.356Z" fill="#0075C5"/>
<path d="M204.575 127.526H211.609V130.969C212.358 128.873 214.603 127.227 217.147 127.227C217.895 127.227 218.644 127.227 219.392 127.526V134.56C218.344 134.261 217.446 133.962 216.249 133.962C213.256 133.962 211.609 136.207 211.609 139.649V150.574H204.575V127.526Z" fill="#0075C5"/>
<path d="M230.168 116.002H223.134V150.574H230.168V116.002Z" fill="#0075C5"/>
<path d="M234.808 120.193C234.808 117.798 236.753 115.852 239.148 115.852C241.542 115.852 243.488 117.798 243.488 120.193C243.488 122.587 241.542 124.533 239.148 124.533C236.903 124.383 234.808 122.587 234.808 120.193ZM235.706 127.526H242.74V150.574H235.706V127.526Z" fill="#0075C5"/>
<path d="M248.428 127.526H255.462V129.921C256.51 128.424 258.904 127.077 261.897 127.077C267.585 127.077 270.877 131.268 270.877 137.254V150.574H263.993V138.452C263.993 135.309 262.795 133.363 260.251 133.363C257.557 133.363 255.612 135.309 255.612 139.35V150.574H248.577V127.526H248.428Z" fill="#0075C5"/>
<path d="M275.816 151.921H282.551C283.299 154.017 284.796 155.064 287.19 155.064C289.585 155.064 291.83 153.568 291.83 150.275V147.581C290.782 149.078 288.387 150.425 285.544 150.425C279.707 150.425 274.768 145.336 274.768 138.751C274.768 132.166 279.707 127.077 285.544 127.077C288.387 127.077 290.782 128.274 291.83 129.921V127.526H298.714V149.078C298.714 157.608 292.877 160.602 286.891 160.602C280.455 160.751 276.115 156.86 275.816 151.921ZM292.428 138.751C292.428 135.458 289.884 133.513 287.19 133.513C284.496 133.513 281.952 135.608 281.952 138.751C281.952 142.043 284.496 143.989 287.19 143.989C289.884 143.989 292.428 141.894 292.428 138.751Z" fill="#0075C5"/>
<path d="M303.353 125.131C303.353 122.288 305.748 119.893 308.591 119.893C311.435 119.893 313.829 122.288 313.829 125.131C313.829 127.975 311.435 130.37 308.591 130.37C305.748 130.37 303.353 127.975 303.353 125.131ZM312.482 125.131C312.482 122.886 310.687 121.24 308.591 121.24C306.346 121.24 304.7 123.036 304.7 125.131C304.7 127.376 306.496 129.023 308.591 129.023C310.687 129.172 312.482 127.376 312.482 125.131ZM306.795 122.587H308.891C309.938 122.587 310.537 123.335 310.537 124.233C310.537 124.832 310.238 125.281 309.489 125.58L311.285 127.825H309.789L308.142 125.73H307.993V127.825H306.795V122.587ZM308.741 124.682C309.04 124.682 309.34 124.533 309.34 124.233C309.34 123.934 309.04 123.784 308.741 123.784H307.993V124.682H308.741Z" fill="#0075C5"/>
<path d="M72.4225 164.194H69.4292V162.547H77.062V164.194H74.0688V172.724H72.4225V164.194Z" fill="#FFA000"/>
<path d="M84.0961 172.874C81.2525 172.874 78.8579 170.629 78.8579 167.636C78.8579 164.643 81.2525 162.398 84.0961 162.398C86.9397 162.398 89.3343 164.643 89.3343 167.636C89.3343 170.629 87.0894 172.874 84.0961 172.874ZM84.0961 171.228C86.0418 171.228 87.6881 169.582 87.6881 167.636C87.6881 165.69 86.1914 164.044 84.0961 164.044C82.1505 164.044 80.5042 165.69 80.5042 167.636C80.6539 169.582 82.1505 171.228 84.0961 171.228Z" fill="#FFA000"/>
<path d="M92.7778 162.547H95.9208C98.914 162.547 101.159 164.792 101.159 167.636C101.159 170.479 98.914 172.724 95.9208 172.724H92.7778V162.547ZM95.7711 171.078C97.8664 171.078 99.363 169.581 99.363 167.636C99.363 165.69 97.8664 164.194 95.7711 164.194H94.2745V171.228H95.7711V171.078Z" fill="#FFA000"/>
<path d="M107.444 162.547H108.941L113.431 172.724H111.635L110.438 170.03H105.948L104.751 172.724H102.955L107.444 162.547ZM109.689 168.534L108.043 164.792L106.397 168.534H109.689Z" fill="#FFA000"/>
<path d="M117.621 168.384L113.88 162.547H115.826L118.519 166.738L121.213 162.547H123.159L119.268 168.384V172.724H117.621V168.384Z" fill="#FFA000"/>
<path d="M130.642 162.547H136.629V164.194H132.288V166.738H135.581V168.384H132.288V172.724H130.642V162.547Z" fill="#FFA000"/>
<path d="M144.112 172.874C141.268 172.874 138.874 170.629 138.874 167.636C138.874 164.643 141.268 162.398 144.112 162.398C146.955 162.398 149.35 164.643 149.35 167.636C149.35 170.629 147.105 172.874 144.112 172.874ZM144.112 171.228C146.057 171.228 147.704 169.582 147.704 167.636C147.704 165.69 146.207 164.044 144.112 164.044C142.166 164.044 140.52 165.69 140.52 167.636C140.669 169.582 142.166 171.228 144.112 171.228Z" fill="#FFA000"/>
<path d="M152.793 162.547H156.385C158.33 162.547 159.378 163.745 159.378 165.391C159.378 166.887 158.48 167.785 157.133 168.085L160.875 172.575H158.779L155.038 168.085H154.289V172.575H152.643V162.547H152.793ZM156.235 166.738C157.283 166.738 157.881 166.289 157.881 165.391C157.881 164.493 157.283 164.044 156.235 164.044H154.439V166.738H156.235Z" fill="#FFA000"/>
<path d="M169.554 164.194H166.71V162.547H174.194V164.194H171.2V172.724H169.554V164.194Z" fill="#FFA000"/>
<path d="M181.377 172.874C178.533 172.874 176.139 170.629 176.139 167.636C176.139 164.643 178.533 162.398 181.377 162.398C184.22 162.398 186.615 164.643 186.615 167.636C186.615 170.629 184.22 172.874 181.377 172.874ZM181.377 171.228C183.323 171.228 184.969 169.582 184.969 167.636C184.969 165.69 183.472 164.044 181.377 164.044C179.431 164.044 177.785 165.69 177.785 167.636C177.785 169.582 179.282 171.228 181.377 171.228Z" fill="#FFA000"/>
<path d="M191.554 165.391V172.724H189.908V162.547H191.405L194.997 167.336L198.589 162.547H200.085V172.724H198.439V165.391L194.997 170.03L191.554 165.391Z" fill="#FFA000"/>
<path d="M208.616 172.874C205.773 172.874 203.378 170.629 203.378 167.636C203.378 164.643 205.773 162.398 208.616 162.398C211.46 162.398 213.854 164.643 213.854 167.636C213.854 170.629 211.609 172.874 208.616 172.874ZM208.616 171.228C210.562 171.228 212.208 169.582 212.208 167.636C212.208 165.69 210.711 164.044 208.616 164.044C206.671 164.044 205.024 165.69 205.024 167.636C205.174 169.582 206.671 171.228 208.616 171.228Z" fill="#FFA000"/>
<path d="M217.297 162.547H220.889C222.835 162.547 223.882 163.745 223.882 165.391C223.882 166.887 222.984 167.785 221.637 168.085L225.379 172.575H223.284L219.542 168.085H218.794V172.575H217.147V162.547H217.297ZM220.739 166.738C221.787 166.738 222.386 166.289 222.386 165.391C222.386 164.493 221.787 164.044 220.739 164.044H218.943V166.738H220.739Z" fill="#FFA000"/>
<path d="M227.923 162.547H231.515C233.461 162.547 234.509 163.745 234.509 165.391C234.509 166.887 233.611 167.785 232.264 168.085L236.005 172.575H234.06L230.318 168.085H229.57V172.575H227.923V162.547ZM231.366 166.738C232.413 166.738 233.012 166.289 233.012 165.391C233.012 164.493 232.413 164.044 231.366 164.044H229.57V166.738H231.366Z" fill="#FFA000"/>
<path d="M243.039 172.874C240.195 172.874 237.801 170.629 237.801 167.636C237.801 164.643 240.195 162.398 243.039 162.398C245.883 162.398 248.277 164.643 248.277 167.636C248.277 170.629 245.883 172.874 243.039 172.874ZM243.039 171.228C244.985 171.228 246.631 169.582 246.631 167.636C246.631 165.69 245.134 164.044 243.039 164.044C241.093 164.044 239.447 165.69 239.447 167.636C239.447 169.582 240.944 171.228 243.039 171.228Z" fill="#FFA000"/>
<path d="M257.107 166.439L254.713 172.724H253.216L250.522 162.547H252.318L254.264 169.881L257.107 162.398L259.951 169.881L261.896 162.547H263.543L260.998 172.724H259.502L257.107 166.439Z" fill="#FFA000"/>
<mask id="mask0_524_121" style="mask-type:alpha" maskUnits="userSpaceOnUse" x="133" y="36" width="20" height="72">
<path d="M138.724 36.6806C134.983 37.8779 132.738 41.9188 133.935 45.8101C139.323 62.8717 139.323 80.981 133.935 98.0426C132.738 101.784 134.833 105.975 138.724 107.172C139.473 107.471 140.221 107.471 140.969 107.471C144.112 107.471 146.956 105.526 147.854 102.383C154.14 82.4776 154.14 61.3751 147.854 41.4698C146.956 38.3269 143.963 36.3813 140.969 36.3813C140.221 36.3813 139.473 36.531 138.724 36.6806Z" fill="white"/>
</mask>
<g mask="url(#mask0_524_121)">
<path d="M154.14 36.3813H132.888V107.322H154.14V36.3813Z" fill="url(#paint0_linear_524_121)"/>
</g>
<mask id="mask1_524_121" style="mask-type:alpha" maskUnits="userSpaceOnUse" x="183" y="32" width="15" height="14">
<path d="M183.773 39.2248C183.773 42.9664 186.766 45.9596 190.508 45.9596C194.249 45.9596 197.243 42.9664 197.243 39.2248C197.243 35.4832 194.249 32.4899 190.508 32.4899C186.766 32.4899 183.773 35.4832 183.773 39.2248Z" fill="white"/>
</mask>
<g mask="url(#mask1_524_121)">
<path d="M197.243 32.4899H183.773V45.9596H197.243V32.4899Z" fill="url(#paint1_linear_524_121)"/>
</g>
<mask id="mask2_524_121" style="mask-type:alpha" maskUnits="userSpaceOnUse" x="200" y="28" width="18" height="17">
<path d="M200.684 36.3812C200.684 41.0207 204.426 44.7623 209.065 44.7623C213.705 44.7623 217.446 41.0207 217.446 36.3812C217.446 31.7416 213.705 28 209.065 28C204.426 28 200.684 31.7416 200.684 36.3812Z" fill="white"/>
</mask>
<g mask="url(#mask2_524_121)">
<path d="M217.446 28H200.684V44.7623H217.446V28Z" fill="url(#paint2_linear_524_121)"/>
</g>
<mask id="mask3_524_121" style="mask-type:alpha" maskUnits="userSpaceOnUse" x="149" y="40" width="59" height="67">
<path d="M170.303 41.0206C157.283 47.4561 149.351 60.4768 149.351 74.9942C149.351 92.5048 163.569 106.723 181.079 106.723C195.746 106.723 207.719 94.7498 207.719 80.0827C207.719 67.511 197.542 57.3339 184.97 57.3339C174.195 57.3339 165.514 66.0144 165.514 76.7901C165.514 80.3821 168.507 83.3753 172.099 83.3753C175.691 83.3753 177.338 79.6338 178.236 76.4908C179.134 73.0486 181.528 70.5043 184.97 70.5043C190.209 70.5043 194.399 74.6949 194.399 79.9331C194.399 87.4162 188.413 93.4028 180.93 93.4028C170.752 93.4028 162.371 85.1713 162.371 74.8445C162.371 65.4157 167.61 56.8849 176.14 52.6943C179.433 51.048 180.78 47.1568 179.134 43.8642C177.936 41.6192 175.691 40.2723 173.147 40.2723C172.399 40.2723 171.351 40.5716 170.303 41.0206Z" fill="white"/>
</mask>
<g mask="url(#mask3_524_121)">
<path d="M207.719 40.2723H149.351V106.723H207.719V40.2723Z" fill="url(#paint3_linear_524_121)"/>
</g>
<mask id="mask4_524_121" style="mask-type:alpha" maskUnits="userSpaceOnUse" x="149" y="59" width="59" height="48">
<path d="M149.351 74.9943C149.351 92.5049 163.569 106.723 181.079 106.723C195.746 106.723 207.57 94.8995 207.719 80.3822C203.229 88.7633 194.399 94.4506 184.222 94.4506C166.712 94.4506 152.494 80.2325 152.494 62.7219C152.494 61.6743 152.494 60.477 152.643 59.4293C150.548 64.2186 149.351 69.4568 149.351 74.9943Z" fill="white"/>
</mask>
<g mask="url(#mask4_524_121)">
<path d="M207.719 59.4293H149.351V106.723H207.719V59.4293Z" fill="url(#paint4_linear_524_121)"/>
</g>
<defs>
<linearGradient id="paint0_linear_524_121" x1="133.658" y1="71.9233" x2="152.491" y2="71.9233" gradientUnits="userSpaceOnUse">
<stop stop-color="#0075C5"/>
<stop offset="0.2663" stop-color="#0075C5"/>
<stop offset="0.5329" stop-color="#0062A8"/>
<stop offset="1" stop-color="#003C6C"/>
</linearGradient>
<linearGradient id="paint1_linear_524_121" x1="183.76" y1="39.2147" x2="197.204" y2="39.2147" gradientUnits="userSpaceOnUse">
<stop stop-color="#FFA000"/>
<stop offset="0.00124008" stop-color="#FFA000"/>
<stop offset="0.0301061" stop-color="#FFA203"/>
<stop offset="0.694" stop-color="#FFCF50"/>
<stop offset="1" stop-color="#FFE16E"/>
</linearGradient>
<linearGradient id="paint2_linear_524_121" x1="200.615" y1="36.4103" x2="217.383" y2="36.4103" gradientUnits="userSpaceOnUse">
<stop stop-color="#FFA000"/>
<stop offset="0.00124008" stop-color="#FFA000"/>
<stop offset="0.0301061" stop-color="#FFA203"/>
<stop offset="0.694" stop-color="#FFCF50"/>
<stop offset="1" stop-color="#FFE16E"/>
</linearGradient>
<linearGradient id="paint3_linear_524_121" x1="149.33" y1="73.5769" x2="207.74" y2="73.5769" gradientUnits="userSpaceOnUse">
<stop stop-color="#FFA000"/>
<stop offset="0.00124008" stop-color="#FFA000"/>
<stop offset="0.0301061" stop-color="#FFA203"/>
<stop offset="0.694" stop-color="#FFCF50"/>
<stop offset="1" stop-color="#FFE16E"/>
</linearGradient>
<linearGradient id="paint4_linear_524_121" x1="149.344" y1="83.1163" x2="207.746" y2="83.1163" gradientUnits="userSpaceOnUse">
<stop stop-color="#FF7200"/>
<stop offset="0.00124008" stop-color="#FF7200"/>
<stop offset="0.1615" stop-color="#FF7900"/>
<stop offset="0.4021" stop-color="#FF8E00"/>
<stop offset="0.6932" stop-color="#FFB000"/>
<stop offset="0.9957" stop-color="#FFDA00"/>
<stop offset="1" stop-color="#FFDA00"/>
</linearGradient>
</defs>
</svg>
