<svg width="25" height="25" viewBox="0 0 25 25" fill="none" xmlns="http://www.w3.org/2000/svg">
<path d="M1.90789 25C1.38158 25 0.932017 24.8136 0.55921 24.4408C0.186403 24.068 0 23.6184 0 23.0921V8.48684C0 7.96053 0.186403 7.51096 0.55921 7.13816C0.932017 6.76535 1.38158 6.57895 1.90789 6.57895H9.60526V1.48026C9.60526 1.08553 9.75877 0.740132 10.0658 0.444079C10.3728 0.148026 10.7237 0 11.1184 0H13.9145C14.3092 0 14.6546 0.148026 14.9507 0.444079C15.2467 0.740132 15.3947 1.08553 15.3947 1.48026V6.57895H23.0921C23.6184 6.57895 24.068 6.76535 24.4408 7.13816C24.8136 7.51096 25 7.96053 25 8.48684V23.0921C25 23.6184 24.8136 24.068 24.4408 24.4408C24.068 24.8136 23.6184 25 23.0921 25H1.90789ZM1.90789 23.5197H23.0921C23.2237 23.5197 23.3279 23.4814 23.4046 23.4046C23.4814 23.3279 23.5197 23.2237 23.5197 23.0921V8.48684C23.5197 8.35526 23.4814 8.2511 23.4046 8.17434C23.3279 8.09759 23.2237 8.05921 23.0921 8.05921H15.3947C15.3947 8.58553 15.2357 8.9693 14.9178 9.21053C14.5998 9.45175 14.1886 9.57237 13.6842 9.57237H11.3158C10.8333 9.57237 10.4276 9.45175 10.0987 9.21053C9.76974 8.9693 9.60526 8.58553 9.60526 8.05921H1.90789C1.77632 8.05921 1.67215 8.09759 1.59539 8.17434C1.51864 8.2511 1.48026 8.35526 1.48026 8.48684V23.0921C1.48026 23.2237 1.51864 23.3279 1.59539 23.4046C1.67215 23.4814 1.77632 23.5197 1.90789 23.5197ZM4.60526 19.8355H12.0724V19.5395C12.0724 19.1886 11.9846 18.8761 11.8092 18.602C11.6338 18.3279 11.4035 18.136 11.1184 18.0263C10.5044 17.807 9.99452 17.659 9.58882 17.5822C9.18311 17.5055 8.79386 17.4671 8.42105 17.4671C8.00438 17.4671 7.56579 17.511 7.10526 17.5987C6.64474 17.6864 6.14035 17.8289 5.59211 18.0263C5.30702 18.136 5.07127 18.3279 4.88487 18.602C4.69846 18.8761 4.60526 19.1886 4.60526 19.5395V19.8355ZM15.3289 17.6974H20.8224V16.3487H15.3289V17.6974ZM8.42105 16.3487C8.85965 16.3487 9.23794 16.1897 9.55592 15.8717C9.8739 15.5537 10.0329 15.1754 10.0329 14.7368C10.0329 14.2763 9.8739 13.8871 9.55592 13.5691C9.23794 13.2511 8.85965 13.0921 8.42105 13.0921C7.96053 13.0921 7.57127 13.2511 7.25329 13.5691C6.93531 13.8871 6.77632 14.2763 6.77632 14.7368C6.77632 15.1754 6.93531 15.5537 7.25329 15.8717C7.57127 16.1897 7.96053 16.3487 8.42105 16.3487ZM15.3289 14.3092H20.8224V12.9934H15.3289V14.3092ZM11.1184 8.05921H13.9145V1.48026H11.1184V8.05921Z" fill="#003866"/>
</svg>
