<svg width="25" height="25" viewBox="0 0 25 25" fill="none" xmlns="http://www.w3.org/2000/svg">
<path d="M17.4342 18.5855L18.5526 17.4671L13.3224 12.2039V5.59211H11.8421V12.7961L17.4342 18.5855ZM12.5 25C10.7895 25 9.17215 24.6711 7.64803 24.0132C6.1239 23.3553 4.79715 22.4616 3.66776 21.3322C2.53838 20.2029 1.64474 18.8761 0.986842 17.352C0.328947 15.8279 0 14.2105 0 12.5C0 10.7895 0.328947 9.17215 0.986842 7.64803C1.64474 6.1239 2.53838 4.79715 3.66776 3.66776C4.79715 2.53838 6.1239 1.64474 7.64803 0.986842C9.17215 0.328947 10.7895 0 12.5 0C14.2105 0 15.8279 0.328947 17.352 0.986842C18.8761 1.64474 20.2029 2.53838 21.3322 3.66776C22.4616 4.79715 23.3553 6.1239 24.0132 7.64803C24.6711 9.17215 25 10.7895 25 12.5C25 14.2105 24.6711 15.8279 24.0132 17.352C23.3553 18.8761 22.4616 20.2029 21.3322 21.3322C20.2029 22.4616 18.8761 23.3553 17.352 24.0132C15.8279 24.6711 14.2105 25 12.5 25ZM12.5 23.5197C15.5263 23.5197 18.1195 22.4397 20.2796 20.2796C22.4397 18.1195 23.5197 15.5263 23.5197 12.5C23.5197 9.47368 22.4397 6.88048 20.2796 4.72039C18.1195 2.56031 15.5263 1.48026 12.5 1.48026C9.47368 1.48026 6.88048 2.56031 4.72039 4.72039C2.56031 6.88048 1.48026 9.47368 1.48026 12.5C1.48026 15.5263 2.56031 18.1195 4.72039 20.2796C6.88048 22.4397 9.47368 23.5197 12.5 23.5197Z" fill="#003866"/>
</svg>
