<svg width="25" height="17" viewBox="0 0 25 17" fill="none" xmlns="http://www.w3.org/2000/svg">
<path d="M1.90789 17C1.38158 17 0.932017 16.8394 0.55921 16.5183C0.186403 16.1972 0 15.81 0 15.3567V1.64333C0 1.19 0.186403 0.802778 0.55921 0.481667C0.932017 0.160556 1.38158 0 1.90789 0H23.0921C23.6184 0 24.068 0.160556 24.4408 0.481667C24.8136 0.802778 25 1.19 25 1.64333V15.3567C25 15.81 24.8136 16.1972 24.4408 16.5183C24.068 16.8394 23.6184 17 23.0921 17H1.90789ZM12.5 8.67L1.48026 2.40833V15.3567C1.48026 15.47 1.51864 15.5597 1.59539 15.6258C1.67215 15.6919 1.77632 15.725 1.90789 15.725H23.0921C23.2237 15.725 23.3279 15.6919 23.4046 15.6258C23.4814 15.5597 23.5197 15.47 23.5197 15.3567V2.40833L12.5 8.67ZM12.5 7.31L23.2237 1.275H1.80921L12.5 7.31ZM1.48026 2.40833V1.275V15.3567C1.48026 15.47 1.51864 15.5597 1.59539 15.6258C1.67215 15.6919 1.77632 15.725 1.90789 15.725H1.48026V15.3567V2.40833Z" fill="#003866"/>
</svg>
