<svg width="17" height="25" viewBox="0 0 17 25" fill="none" xmlns="http://www.w3.org/2000/svg">
<path d="M8.5 18.7179C10.8054 16.8803 12.5507 15.1175 13.7357 13.4295C14.9208 11.7415 15.5133 10.1389 15.5133 8.6218C15.5133 7.31838 15.2763 6.21261 14.8023 5.30449C14.3283 4.39637 13.7357 3.65385 13.0247 3.07692C12.3137 2.5 11.5488 2.08333 10.73 1.82692C9.91128 1.57051 9.16793 1.44231 8.5 1.44231C7.83207 1.44231 7.08872 1.57051 6.26996 1.82692C5.4512 2.08333 4.68631 2.5 3.97528 3.07692C3.26426 3.65385 2.67174 4.39637 2.19772 5.30449C1.7237 6.21261 1.48669 7.31838 1.48669 8.6218C1.48669 10.1389 2.07921 11.7415 3.26426 13.4295C4.4493 15.1175 6.19455 16.8803 8.5 18.7179ZM8.5 20.5449C5.63435 18.4081 3.50127 16.3568 2.10076 14.391C0.700253 12.4252 0 10.5021 0 8.6218C0 7.19017 0.258555 5.94017 0.775665 4.8718C1.29278 3.80342 1.95532 2.90598 2.76331 2.17949C3.57129 1.45299 4.48162 0.90812 5.4943 0.544872C6.50697 0.181624 7.50887 0 8.5 0C9.49113 0 10.493 0.181624 11.5057 0.544872C12.5184 0.90812 13.4287 1.45299 14.2367 2.17949C15.0447 2.90598 15.7072 3.80342 16.2243 4.8718C16.7414 5.94017 17 7.19017 17 8.6218C17 10.5021 16.2997 12.4252 14.8992 14.391C13.4987 16.3568 11.3657 18.4081 8.5 20.5449ZM8.5 10.4167C9.0602 10.4167 9.53961 10.219 9.93821 9.82372C10.3368 9.42842 10.5361 8.95299 10.5361 8.39744C10.5361 7.84188 10.3368 7.37179 9.93821 6.98718C9.53961 6.60256 9.0602 6.41026 8.5 6.41026C7.9398 6.41026 7.46039 6.60791 7.06179 7.00321C6.66318 7.3985 6.46388 7.87393 6.46388 8.42949C6.46388 8.98504 6.66318 9.45513 7.06179 9.83974C7.46039 10.2244 7.9398 10.4167 8.5 10.4167ZM0 25V23.5577H17V25H0Z" fill="#003866"/>
</svg>
