<svg width="25" height="25" viewBox="0 0 25 25" fill="none" xmlns="http://www.w3.org/2000/svg">
<path d="M23.3776 25C20.6244 25 17.8589 24.2933 15.0811 22.8798C12.3033 21.4663 9.79597 19.6411 7.559 17.4041C5.32202 15.1672 3.50295 12.6659 2.10177 9.90044C0.70059 7.13495 0 4.37561 0 1.62242C0 1.15536 0.153638 0.768191 0.460914 0.460914C0.768191 0.153638 1.15536 0 1.62242 0H5.82596C6.21927 0 6.55113 0.122911 6.82153 0.368732C7.09194 0.614553 7.2763 0.946411 7.37463 1.36431L8.25959 5.30973C8.30875 5.67847 8.29646 6.01032 8.22271 6.30531C8.14897 6.6003 8.00148 6.84612 7.78024 7.04277L4.31416 10.4351C5.71534 12.795 7.28245 14.8292 9.01549 16.5376C10.7485 18.2461 12.7335 19.7148 14.9705 20.944L18.2891 17.4779C18.5349 17.2075 18.8115 17.017 19.1187 16.9063C19.426 16.7957 19.7517 16.7773 20.0959 16.851L23.6726 17.6622C24.0659 17.736 24.3854 17.9204 24.6313 18.2153C24.8771 18.5103 25 18.8668 25 19.2847V23.3407C25 23.8078 24.8464 24.2011 24.5391 24.5206C24.2318 24.8402 23.8446 25 23.3776 25ZM3.46608 8.9233L6.48968 5.97345C6.53884 5.92429 6.56957 5.86898 6.58186 5.80752C6.59415 5.74607 6.60029 5.69076 6.60029 5.64159L5.78908 1.9174C5.7645 1.81908 5.72763 1.75147 5.67847 1.7146C5.6293 1.67773 5.56785 1.65929 5.4941 1.65929H1.88053C1.80678 1.65929 1.75147 1.67773 1.7146 1.7146C1.67773 1.75147 1.65929 1.80678 1.65929 1.88053C1.63471 2.83923 1.7822 3.90241 2.10177 5.07006C2.42134 6.23771 2.87611 7.52212 3.46608 8.9233ZM23.1195 23.3407C23.1932 23.3407 23.2485 23.3223 23.2854 23.2854C23.3223 23.2485 23.3407 23.1932 23.3407 23.1195V19.5059C23.3407 19.4322 23.3223 19.3707 23.2854 19.3215C23.2485 19.2724 23.1932 19.2355 23.1195 19.2109L19.764 18.5472C19.7148 18.5226 19.6657 18.5226 19.6165 18.5472L19.469 18.6209L16.556 21.7183C17.5639 22.2099 18.664 22.591 19.8562 22.8614C21.0484 23.1318 22.1362 23.2915 23.1195 23.3407Z" fill="#003866"/>
</svg>
