<svg width="293" height="56" viewBox="0 0 293 56" fill="none" xmlns="http://www.w3.org/2000/svg">
<g clip-path="url(#clip0_43_1278)">
<path d="M66 34.6278V21.8377C66 20.735 66.6946 20.0735 67.8108 20.0735C68.7783 20.0735 69.324 20.49 69.7457 21.5191L74.0619 31.9571H74.1364L78.4278 21.5191C78.8495 20.49 79.42 20.0735 80.3875 20.0735C81.5037 20.0735 82.1735 20.735 82.1735 21.8377V34.6278C82.1735 35.4364 81.7022 35.9265 80.9084 35.9265C80.1146 35.9265 79.6433 35.4364 79.6433 34.6278V24.7534H79.5689L75.4263 34.7014C75.1534 35.3384 74.7565 35.6324 74.1115 35.6324C73.4666 35.6324 73.0449 35.3384 72.7968 34.7014L68.6046 24.7534H68.5302V34.6278C68.5302 35.4364 68.0589 35.9265 67.2651 35.9265C66.4713 35.9265 66 35.4364 66 34.6278Z" fill="white"/>
<path d="M89.3921 34.4808V21.5191C89.3921 20.6125 89.913 20.0735 90.7812 20.0735C91.6494 20.0735 92.1704 20.588 92.1704 21.5191V34.4808C92.1704 35.3874 91.6494 35.9265 90.7812 35.9265C89.913 35.9265 89.3921 35.3874 89.3921 34.4808Z" fill="white"/>
<path d="M99.3887 34.6278V21.8377C99.3887 20.735 100.083 20.0735 101.2 20.0735C102.167 20.0735 102.713 20.49 103.134 21.5191L107.451 31.9571H107.525L111.816 21.5191C112.238 20.49 112.784 20.0735 113.776 20.0735C114.892 20.0735 115.562 20.735 115.562 21.8377V34.6278C115.562 35.4364 115.091 35.9265 114.297 35.9265C113.503 35.9265 113.032 35.4364 113.032 34.6278V24.7534H112.958L108.815 34.7014C108.542 35.3384 108.145 35.6324 107.5 35.6324C106.855 35.6324 106.434 35.3384 106.186 34.7014L102.018 24.7289H101.944V34.6033C101.944 35.4119 101.472 35.902 100.679 35.902C99.86 35.9265 99.3887 35.4364 99.3887 34.6278Z" fill="white"/>
<path d="M122.062 34.6524C122.062 34.4318 122.111 34.1378 122.235 33.7948L126.775 21.5681C127.147 20.539 127.792 20.0735 128.809 20.0735C129.851 20.0735 130.471 20.5145 130.868 21.5681L135.432 33.7948C135.556 34.1378 135.606 34.4073 135.606 34.6524C135.606 35.4119 135.01 35.9265 134.216 35.9265C133.447 35.9265 133.026 35.5834 132.778 34.7504L131.736 31.7856H125.882L124.84 34.7259C124.567 35.5589 124.17 35.9265 123.451 35.9265C122.607 35.9265 122.062 35.4364 122.062 34.6524ZM131.066 29.6049L128.834 22.9893H128.759L126.551 29.6049H131.066Z" fill="white"/>
<path d="M142.104 34.3093V21.6906C142.104 20.784 142.625 20.245 143.494 20.245H147.81C152.498 20.245 155.252 23.0383 155.252 27.9387C155.252 32.8392 152.498 35.7059 147.81 35.7059H143.494C142.625 35.7304 142.104 35.1914 142.104 34.3093ZM147.537 33.4027C150.687 33.4027 152.424 31.516 152.424 27.9632C152.424 24.5084 150.663 22.5972 147.537 22.5972H144.908V33.4027H147.537Z" fill="white"/>
<path d="M160.635 34.6524C160.635 34.4318 160.684 34.1378 160.808 33.7948L165.348 21.5681C165.72 20.539 166.365 20.0735 167.382 20.0735C168.424 20.0735 169.044 20.5145 169.441 21.5681L174.005 33.7948C174.129 34.1378 174.179 34.4073 174.179 34.6524C174.179 35.4119 173.583 35.9265 172.79 35.9265C172.021 35.9265 171.599 35.5834 171.351 34.7504L170.309 31.7856H164.48L163.438 34.7259C163.165 35.5589 162.768 35.9265 162.049 35.9265C161.18 35.9265 160.635 35.4364 160.635 34.6524ZM169.639 29.6049L167.407 22.9893H167.332L165.125 29.6049H169.639Z" fill="white"/>
<path d="M189.583 34.4808V21.6906C189.583 20.784 190.104 20.245 190.972 20.245H195.66C198.786 20.245 200.944 22.3277 200.944 25.415C200.944 28.5023 198.712 30.585 195.536 30.585H192.361V34.4563C192.361 35.3629 191.84 35.902 190.972 35.902C190.104 35.9265 189.583 35.3874 189.583 34.4808ZM194.916 28.3798C196.926 28.3798 198.091 27.3017 198.091 25.4395C198.091 23.5773 196.926 22.5237 194.916 22.5237H192.361V28.3798H194.916Z" fill="white"/>
<path d="M207.443 34.3093V21.5191C207.443 20.6125 207.964 20.0735 208.832 20.0735C209.701 20.0735 210.222 20.588 210.222 21.5191V33.4027H216.225C216.994 33.4027 217.515 33.8438 217.515 34.5788C217.515 35.2894 216.994 35.755 216.225 35.755H208.808C207.964 35.7305 207.443 35.1914 207.443 34.3093Z" fill="white"/>
<path d="M223.096 34.6524C223.096 34.4318 223.146 34.1378 223.27 33.7948L227.809 21.5681C228.181 20.539 228.826 20.0735 229.843 20.0735C230.885 20.0735 231.505 20.5145 231.902 21.5681L236.467 33.7948C236.591 34.1378 236.64 34.4073 236.64 34.6524C236.64 35.4119 236.045 35.9265 235.251 35.9265C234.482 35.9265 234.06 35.5834 233.812 34.7504L232.771 31.7856H226.916L225.874 34.7259C225.602 35.5589 225.205 35.9265 224.485 35.9265C223.642 35.9265 223.096 35.4364 223.096 34.6524ZM232.101 29.6049L229.868 22.9893H229.794L227.586 29.6049H232.101Z" fill="white"/>
<path d="M242.618 32.9372C242.519 32.6677 242.469 32.3981 242.469 32.1531C242.469 31.369 242.965 30.879 243.71 30.879C244.33 30.879 244.727 31.124 245.024 31.7366C245.52 33.0842 246.86 33.6722 248.522 33.6722C250.407 33.6722 251.747 32.7412 251.747 31.467C251.747 30.3399 250.953 29.6539 248.919 29.2373L247.232 28.8943C244.082 28.2572 242.618 26.8116 242.618 24.5329C242.618 21.8131 245.049 19.9755 248.447 19.9755C251.226 19.9755 253.359 21.2006 254.004 23.2588C254.078 23.4303 254.103 23.6263 254.103 23.8958C254.103 24.5819 253.607 25.0229 252.888 25.0229C252.243 25.0229 251.846 24.7534 251.548 24.1409C251.027 22.8422 249.886 22.2787 248.423 22.2787C246.686 22.2787 245.446 23.0873 245.446 24.3859C245.446 25.4395 246.24 26.101 248.175 26.5176L249.861 26.8606C253.161 27.5467 254.55 28.8453 254.55 31.1485C254.55 34.1133 252.193 35.9755 248.423 35.9755C245.322 36 243.238 34.7013 242.618 32.9372Z" fill="white"/>
<path d="M264.944 34.4808V22.5972H261.371C260.602 22.5972 260.082 22.1562 260.082 21.4211C260.082 20.7105 260.602 20.245 261.371 20.245H271.319C272.088 20.245 272.609 20.686 272.609 21.4211C272.609 22.1317 272.088 22.5972 271.319 22.5972H267.747V34.4808C267.747 35.3874 267.226 35.9265 266.357 35.9265C265.464 35.9265 264.944 35.3874 264.944 34.4808Z" fill="white"/>
</g>
<g clip-path="url(#clip1_43_1278)">
<path d="M20.1232 8.63696H3.38674C3.06659 8.63696 2.7998 8.8991 2.7998 9.21366V46.769C2.7998 47.0836 3.06659 47.3457 3.38674 47.3457H20.1232C20.4434 47.3457 20.7101 47.0836 20.7101 46.769C20.7101 46.4544 20.4434 46.1923 20.1232 46.1923H3.97367V9.79036H20.1232C20.4434 9.79036 20.7101 9.52822 20.7101 9.21366C20.7101 8.8991 20.4434 8.63696 20.1232 8.63696Z" fill="white"/>
<path d="M20.1231 10.9612H5.73439C5.41425 10.9612 5.14746 11.2233 5.14746 11.5379V44.4622C5.14746 44.7767 5.41425 45.0389 5.73439 45.0389H20.1231C20.4433 45.0389 20.7101 44.7767 20.7101 44.4622V11.5379C20.7101 11.2233 20.4433 10.9612 20.1231 10.9612ZM19.5362 43.8855H6.33911V12.1146H19.554V43.8855H19.5362Z" fill="white"/>
<path d="M51.2128 8.63696H48.8828C48.5627 8.63696 48.2959 8.8991 48.2959 9.21366C48.2959 9.52822 48.5627 9.79036 48.8828 9.79036H50.6258V46.1923H48.8828C48.5627 46.1923 48.2959 46.4544 48.2959 46.769C48.2959 47.0836 48.5627 47.3457 48.8828 47.3457H51.2128C51.5329 47.3457 51.7997 47.0836 51.7997 46.769V9.21366C51.7997 8.8991 51.5329 8.63696 51.2128 8.63696Z" fill="white"/>
<path d="M24.3562 49.4777C24.4629 49.5476 24.5874 49.6 24.7119 49.6C24.7653 49.6 24.8186 49.6 24.872 49.5826L46.802 43.7457C47.051 43.6758 47.2288 43.4486 47.2288 43.1864V12.8136C47.2288 12.5515 47.051 12.3243 46.802 12.2544L24.872 6.41751C24.6941 6.36509 24.4985 6.40004 24.3562 6.52237C24.2139 6.62722 24.125 6.80198 24.125 6.97674V49.0233C24.125 49.1981 24.2139 49.3729 24.3562 49.4777ZM46.0549 13.2505V42.7496L25.2989 48.2719V28.5767H29.5319C29.852 28.5767 30.1188 28.3146 30.1188 28C30.1188 27.6855 29.852 27.4233 29.5319 27.4233H25.2989V7.72819L46.0549 13.2505Z" fill="white"/>
<path d="M49.3632 44.6719V11.3107C49.3632 11.0661 49.2031 10.8389 48.9541 10.7515L22.7734 2.81754C22.5955 2.76512 22.3999 2.80007 22.2576 2.90492C22.1153 3.00978 22.0264 3.18453 22.0264 3.37677V52.6234C22.0264 52.7981 22.1153 52.9729 22.2576 53.0952C22.3643 53.1651 22.4888 53.2001 22.6133 53.2001C22.6667 53.2001 22.7378 53.2001 22.7912 53.1826L48.9719 45.2486C49.1854 45.1612 49.3632 44.9341 49.3632 44.6719ZM48.1893 44.2525L23.1824 51.837V4.16317L48.1893 11.7476V44.2525Z" fill="white"/>
<path d="M13.5067 42.4176C14.9829 42.4875 16.4591 42.5574 17.9176 42.6448C18.131 42.6622 18.3267 42.47 18.3267 42.2428C18.4334 37.804 18.5401 33.3651 18.6468 28.9263C18.6646 28.437 17.9532 28.3671 17.7753 28.8214C16.0501 33.3127 14.4849 37.6642 13.1154 41.8583C13.0265 42.1205 13.2221 42.4176 13.5067 42.4176Z" fill="#008CFF"/>
<path d="M44.1161 31.5476C44.3295 31.8272 45.2188 31.5127 45.2188 31.1631C45.2188 25.5534 45.2188 19.9437 45.2188 14.334C45.2188 14.1593 44.9698 13.967 44.6497 13.8796C41.0747 12.9884 37.4998 12.0272 33.9248 10.9961C33.5335 10.8913 33.2667 11.101 33.3912 11.4156C36.9662 20.136 40.5411 26.7068 44.1161 31.5476Z" fill="#008CFF"/>
</g>
<defs>
<clipPath id="clip0_43_1278">
<rect width="206.609" height="16" fill="white" transform="translate(66 20)"/>
</clipPath>
<clipPath id="clip1_43_1278">
<rect width="49" height="50.4" fill="white" transform="translate(2.7998 2.80005)"/>
</clipPath>
</defs>
</svg>
