<svg width="211" height="40" viewBox="0 0 211 40" fill="none" xmlns="http://www.w3.org/2000/svg">
<path d="M49.375 24.8661V14.8737C49.375 14.0123 49.9176 13.4955 50.7897 13.4955C51.5455 13.4955 51.9719 13.8209 52.3013 14.6249L55.6734 22.7796H55.7315L59.0842 14.6249C59.4137 13.8209 59.8594 13.4955 60.6152 13.4955C61.4873 13.4955 62.0105 14.0123 62.0105 14.8737V24.8661C62.0105 25.4978 61.6423 25.8806 61.0222 25.8806C60.402 25.8806 60.0338 25.4978 60.0338 24.8661V17.1517H59.9757L56.7393 24.9235C56.5261 25.4212 56.216 25.6509 55.7121 25.6509C55.2083 25.6509 54.8788 25.4212 54.685 24.9235L51.4099 17.1517H51.3517V24.8661C51.3517 25.4978 50.9835 25.8806 50.3634 25.8806C49.7432 25.8806 49.375 25.4978 49.375 24.8661Z" fill="#000E19"/>
<path d="M67.6504 24.7512V14.6249C67.6504 13.9166 68.0574 13.4955 68.7357 13.4955C69.4139 13.4955 69.8209 13.8975 69.8209 14.6249V24.7512C69.8209 25.4595 69.4139 25.8806 68.7357 25.8806C68.0574 25.8806 67.6504 25.4595 67.6504 24.7512Z" fill="#000E19"/>
<path d="M75.46 24.8661V14.8737C75.46 14.0123 76.0026 13.4955 76.8747 13.4955C77.6305 13.4955 78.0568 13.8209 78.3863 14.6249L81.7583 22.7796H81.8165L85.1692 14.6249C85.4986 13.8209 85.925 13.4955 86.7002 13.4955C87.5722 13.4955 88.0955 14.0123 88.0955 14.8737V24.8661C88.0955 25.4978 87.7273 25.8806 87.1071 25.8806C86.487 25.8806 86.1188 25.4978 86.1188 24.8661V17.1517H86.0606L82.8242 24.9235C82.6111 25.4212 82.301 25.6509 81.7971 25.6509C81.2932 25.6509 80.9638 25.4212 80.77 24.9235L77.5142 17.1325H77.4561V24.8469C77.4561 25.4786 77.0879 25.8615 76.4677 25.8615C75.8282 25.8806 75.46 25.4978 75.46 24.8661Z" fill="#000E19"/>
<path d="M93.1729 24.8852C93.1729 24.7129 93.2116 24.4832 93.3085 24.2152L96.855 14.6632C97.1457 13.8592 97.6495 13.4955 98.4441 13.4955C99.2581 13.4955 99.7426 13.84 100.053 14.6632L103.618 24.2152C103.715 24.4832 103.754 24.6938 103.754 24.8852C103.754 25.4786 103.289 25.8806 102.669 25.8806C102.068 25.8806 101.739 25.6126 101.545 24.9618L100.731 22.6456H96.1573L95.3434 24.9426C95.1302 25.5935 94.8201 25.8806 94.2581 25.8806C93.5992 25.8806 93.1729 25.4978 93.1729 24.8852ZM100.208 20.9419L98.4635 15.7734H98.4054L96.6806 20.9419H100.208Z" fill="#000E19"/>
<path d="M108.832 24.6171V14.7588C108.832 14.0505 109.239 13.6294 109.917 13.6294H113.289C116.952 13.6294 119.103 15.8116 119.103 19.6401C119.103 23.4686 116.952 25.7083 113.289 25.7083H109.917C109.239 25.7274 108.832 25.3063 108.832 24.6171ZM113.076 23.9089C115.537 23.9089 116.894 22.4349 116.894 19.6593C116.894 16.9602 115.518 15.4671 113.076 15.4671H111.022V23.9089H113.076Z" fill="#000E19"/>
<path d="M123.309 24.8852C123.309 24.7129 123.347 24.4832 123.444 24.2152L126.991 14.6632C127.281 13.8592 127.785 13.4955 128.58 13.4955C129.394 13.4955 129.878 13.84 130.188 14.6632L133.754 24.2152C133.851 24.4832 133.89 24.6938 133.89 24.8852C133.89 25.4786 133.425 25.8806 132.805 25.8806C132.204 25.8806 131.874 25.6126 131.681 24.9618L130.867 22.6456H126.312L125.498 24.9426C125.285 25.5935 124.975 25.8806 124.413 25.8806C123.735 25.8806 123.309 25.4978 123.309 24.8852ZM130.343 20.9419L128.599 15.7734H128.541L126.816 20.9419H130.343Z" fill="#000E19"/>
<path d="M145.925 24.7511V14.7588C145.925 14.0505 146.332 13.6294 147.01 13.6294H150.673C153.115 13.6294 154.801 15.2565 154.801 17.6684C154.801 20.0804 153.057 21.7075 150.576 21.7075H148.095V24.732C148.095 25.4403 147.688 25.8614 147.01 25.8614C146.332 25.8805 145.925 25.4594 145.925 24.7511ZM150.091 19.9847C151.661 19.9847 152.572 19.1424 152.572 17.6876C152.572 16.2328 151.661 15.4096 150.091 15.4096H148.095V19.9847H150.091Z" fill="#000E19"/>
<path d="M159.878 24.6172V14.6249C159.878 13.9166 160.285 13.4955 160.963 13.4955C161.641 13.4955 162.048 13.8975 162.048 14.6249V23.909H166.738C167.339 23.909 167.746 24.2535 167.746 24.8278C167.746 25.3829 167.339 25.7466 166.738 25.7466H160.944C160.285 25.7275 159.878 25.3064 159.878 24.6172Z" fill="#000E19"/>
<path d="M172.106 24.8852C172.106 24.7129 172.145 24.4832 172.242 24.2152L175.789 14.6632C176.079 13.8592 176.583 13.4955 177.378 13.4955C178.192 13.4955 178.676 13.84 178.986 14.6632L182.552 24.2152C182.649 24.4832 182.688 24.6938 182.688 24.8852C182.688 25.4786 182.223 25.8806 181.602 25.8806C181.002 25.8806 180.672 25.6126 180.478 24.9618L179.665 22.6456H175.091L174.277 24.9426C174.064 25.5935 173.754 25.8806 173.192 25.8806C172.533 25.8806 172.106 25.4978 172.106 24.8852ZM179.141 20.9419L177.397 15.7734H177.339L175.614 20.9419H179.141Z" fill="#000E19"/>
<path d="M187.358 23.5452C187.281 23.3346 187.242 23.124 187.242 22.9326C187.242 22.32 187.63 21.9372 188.211 21.9372C188.696 21.9372 189.006 22.1286 189.238 22.6072C189.626 23.66 190.672 24.1194 191.971 24.1194C193.444 24.1194 194.49 23.392 194.49 22.3966C194.49 21.5161 193.87 20.9801 192.281 20.6547L190.963 20.3867C188.502 19.889 187.358 18.7596 187.358 16.9793C187.358 14.8545 189.258 13.4188 191.913 13.4188C194.083 13.4188 195.75 14.3759 196.254 15.9839C196.312 16.1179 196.331 16.271 196.331 16.4816C196.331 17.0176 195.944 17.3622 195.382 17.3622C194.878 17.3622 194.568 17.1516 194.335 16.673C193.928 15.6585 193.037 15.2182 191.893 15.2182C190.537 15.2182 189.568 15.8499 189.568 16.8645C189.568 17.6876 190.188 18.2044 191.7 18.5298L193.017 18.7978C195.595 19.3338 196.68 20.3484 196.68 22.1478C196.68 24.464 194.839 25.9188 191.893 25.9188C189.471 25.938 187.843 24.9234 187.358 23.5452Z" fill="#000E19"/>
<path d="M204.799 24.7511V15.4671H202.009C201.408 15.4671 201.001 15.1225 201.001 14.5482C201.001 13.9931 201.408 13.6294 202.009 13.6294H209.78C210.381 13.6294 210.788 13.974 210.788 14.5482C210.788 15.1034 210.381 15.4671 209.78 15.4671H206.989V24.7511C206.989 25.4594 206.582 25.8805 205.904 25.8805C205.206 25.8805 204.799 25.4594 204.799 24.7511Z" fill="#000E19"/>
<g clip-path="url(#clip0_261_569)">
<path d="M13.5339 4.55969H0.458541C0.208428 4.55969 0 4.76449 0 5.01024V34.3503C0 34.5961 0.208428 34.8009 0.458541 34.8009H13.5339C13.784 34.8009 13.9925 34.5961 13.9925 34.3503C13.9925 34.1046 13.784 33.8998 13.5339 33.8998H0.917083V5.46078H13.5339C13.784 5.46078 13.9925 5.25599 13.9925 5.01024C13.9925 4.76449 13.784 4.55969 13.5339 4.55969Z" fill="#000E19"/>
<path d="M13.5337 6.37549H2.29253C2.04241 6.37549 1.83398 6.58028 1.83398 6.82603V32.5481C1.83398 32.7939 2.04241 32.9987 2.29253 32.9987H13.5337C13.7838 32.9987 13.9923 32.7939 13.9923 32.5481V6.82603C13.9923 6.58028 13.7838 6.37549 13.5337 6.37549ZM13.0752 32.0976H2.76496V7.27658H13.0891V32.0976H13.0752Z" fill="#000E19"/>
<path d="M37.8228 4.55969H36.0025C35.7524 4.55969 35.5439 4.76449 35.5439 5.01024C35.5439 5.25599 35.7524 5.46078 36.0025 5.46078H37.3642V33.8998H36.0025C35.7524 33.8998 35.5439 34.1046 35.5439 34.3503C35.5439 34.5961 35.7524 34.8009 36.0025 34.8009H37.8228C38.0729 34.8009 38.2813 34.5961 38.2813 34.3503V5.01024C38.2813 4.76449 38.0729 4.55969 37.8228 4.55969Z" fill="#000E19"/>
<path d="M16.8408 36.4665C16.9242 36.5211 17.0214 36.562 17.1187 36.562C17.1604 36.562 17.2021 36.562 17.2438 36.5484L34.3765 31.9883C34.5711 31.9337 34.71 31.7562 34.71 31.5514V7.82265C34.71 7.61785 34.5711 7.44037 34.3765 7.38575L17.2438 2.82568C17.1048 2.78472 16.952 2.81203 16.8408 2.9076C16.7296 2.98952 16.6602 3.12605 16.6602 3.26258V36.1115C16.6602 36.248 16.7296 36.3845 16.8408 36.4665ZM33.7929 8.16397V31.2101L17.5772 35.5244V20.1376H20.8843C21.1344 20.1376 21.3428 19.9328 21.3428 19.687C21.3428 19.4413 21.1344 19.2365 20.8843 19.2365H17.5772V3.84965L33.7929 8.16397Z" fill="#000E19"/>
<path d="M36.3774 32.7122V6.64876C36.3774 6.45762 36.2524 6.28013 36.0578 6.21187L15.6041 0.0134466C15.4652 -0.0275121 15.3123 -0.000206287 15.2011 0.0817112C15.09 0.163629 15.0205 0.300158 15.0205 0.45034V38.9242C15.0205 39.0608 15.09 39.1973 15.2011 39.2929C15.2845 39.3475 15.3818 39.3748 15.479 39.3748C15.5207 39.3748 15.5763 39.3748 15.618 39.3611L36.0717 33.1627C36.2385 33.0945 36.3774 32.917 36.3774 32.7122ZM35.4603 32.3845L15.9237 38.3099V1.06472L35.4603 6.99008V32.3845Z" fill="#000E19"/>
<path d="M8.36461 30.9507C9.51791 31.0053 10.6712 31.0599 11.8106 31.1282C11.9774 31.1418 12.1302 30.9916 12.1302 30.8141C12.2136 27.3463 12.2969 23.8785 12.3803 20.4106C12.3942 20.0283 11.8384 19.9737 11.6995 20.3287C10.3516 23.8375 9.12884 27.2371 8.05891 30.5138C7.98944 30.7186 8.14228 30.9507 8.36461 30.9507Z" fill="#008CFF"/>
<path d="M32.2789 22.4587C32.4456 22.6772 33.1404 22.4314 33.1404 22.1584C33.1404 17.7758 33.1404 13.3932 33.1404 9.01061C33.1404 8.87408 32.9459 8.7239 32.6958 8.65563C29.9028 7.95933 27.1099 7.20842 24.317 6.4029C24.0113 6.32098 23.8028 6.48482 23.9001 6.73057C26.693 13.5434 29.486 18.6769 32.2789 22.4587Z" fill="#008CFF"/>
</g>
<defs>
<clipPath id="clip0_261_569">
<rect width="38.2812" height="39.375" fill="white"/>
</clipPath>
</defs>
</svg>
