<svg width="400" height="250" viewBox="0 0 400 250" fill="none" xmlns="http://www.w3.org/2000/svg">
<path d="M188.311 61.7261H155.312C154.681 61.7261 154.155 62.2521 154.155 62.8833V138.245C154.155 138.876 154.681 139.402 155.312 139.402H188.311C188.942 139.402 189.468 138.876 189.468 138.245C189.468 137.614 188.942 137.088 188.311 137.088H156.469V64.0406H188.311C188.942 64.0406 189.468 63.5146 189.468 62.8833C189.468 62.2521 188.942 61.7261 188.311 61.7261Z" fill="white"/>
<path d="M188.312 66.3901H159.941C159.31 66.3901 158.784 66.9162 158.784 67.5474V133.616C158.784 134.247 159.31 134.773 159.941 134.773H188.312C188.943 134.773 189.469 134.247 189.469 133.616V67.5474C189.469 66.9162 188.943 66.3901 188.312 66.3901ZM187.154 132.459H161.099V68.7046H187.154V132.459Z" fill="white"/>
<path d="M249.611 61.7261H245.017C244.385 61.7261 243.859 62.2521 243.859 62.8833C243.859 63.5146 244.385 64.0406 245.017 64.0406H248.453V137.088H245.017C244.385 137.088 243.859 137.614 243.859 138.245C243.859 138.876 244.385 139.402 245.017 139.402H249.611C250.242 139.402 250.768 138.876 250.768 138.245V62.8833C250.768 62.2521 250.242 61.7261 249.611 61.7261Z" fill="white"/>
<path d="M196.658 143.68C196.868 143.821 197.113 143.926 197.359 143.926C197.464 143.926 197.569 143.926 197.675 143.891L240.914 132.178C241.405 132.038 241.755 131.582 241.755 131.056V70.1073C241.755 69.5813 241.405 69.1254 240.914 68.9851L197.675 57.2723C197.324 57.1671 196.938 57.2372 196.658 57.4827C196.377 57.6931 196.202 58.0438 196.202 58.3945V142.769C196.202 143.119 196.377 143.47 196.658 143.68ZM239.441 70.984V130.179L198.516 141.261V101.739H206.862C207.494 101.739 208.02 101.213 208.02 100.582C208.02 99.9503 207.494 99.4243 206.862 99.4243H198.516V59.9024L239.441 70.984Z" fill="white"/>
<path d="M245.929 134.037V67.0915C245.929 66.6005 245.613 66.1446 245.122 65.9693L193.502 50.0483C193.151 49.9431 192.765 50.0133 192.485 50.2237C192.204 50.4341 192.029 50.7848 192.029 51.1705V149.993C192.029 150.343 192.204 150.694 192.485 150.94C192.695 151.08 192.941 151.15 193.186 151.15C193.291 151.15 193.432 151.15 193.537 151.115L245.122 135.159C245.613 135.019 245.929 134.563 245.929 134.037ZM243.614 133.195L194.308 148.415V52.7486L243.614 67.9682V133.195Z" fill="white"/>
<path d="M175.266 129.513C178.177 129.653 181.087 129.793 183.963 129.969C184.384 130.004 184.769 129.618 184.769 129.162C184.98 120.255 185.19 111.348 185.401 102.44C185.436 101.458 184.033 101.318 183.682 102.23C180.281 111.242 177.195 119.974 174.494 128.391C174.319 128.917 174.705 129.513 175.266 129.513Z" fill="#008CFF"/>
<path d="M235.618 107.7C236.039 108.262 237.792 107.63 237.792 106.929C237.792 95.6721 237.792 84.4152 237.792 73.1583C237.792 72.8076 237.301 72.4218 236.67 72.2465C229.621 70.458 222.573 68.5293 215.524 66.4603C214.753 66.2498 214.227 66.6707 214.472 67.3019C221.521 84.8009 228.569 97.9866 235.618 107.7Z" fill="#008CFF"/>
<path d="M54 198.001V179.695C54 178.117 54.9819 177.171 56.56 177.171C57.9276 177.171 58.6991 177.767 59.2953 179.24L65.3621 194.144H65.4673L71.5341 179.205C72.1303 177.732 72.9018 177.135 74.3045 177.135C75.8826 177.135 76.8294 178.082 76.8294 179.66V198.001C76.8294 199.158 76.1631 199.86 75.0409 199.86C73.9187 199.86 73.2524 199.158 73.2524 198.001V183.869H73.1472L67.3259 198.106C66.9402 199.018 66.3791 199.439 65.4673 199.439C64.5555 199.439 63.9594 199.018 63.6087 198.106L57.7172 183.834H57.612V198.001C57.612 199.158 56.9457 199.86 55.8235 199.86C54.6663 199.86 54 199.158 54 198.001Z" fill="white"/>
<path d="M87.0688 197.791V179.24C87.0688 177.942 87.8053 177.171 89.0327 177.171C90.2601 177.171 90.9965 177.907 90.9965 179.24V197.791C90.9965 199.088 90.2601 199.86 89.0327 199.86C87.8053 199.86 87.0688 199.088 87.0688 197.791Z" fill="white"/>
<path d="M101.202 198.001V179.696C101.202 178.117 102.184 177.171 103.762 177.171C105.129 177.171 105.901 177.767 106.497 179.24L112.599 194.179H112.704L118.771 179.24C119.367 177.767 120.138 177.171 121.541 177.171C123.119 177.171 124.066 178.117 124.066 179.696V198.001C124.066 199.158 123.4 199.86 122.278 199.86C121.155 199.86 120.489 199.158 120.489 198.001V183.869H120.384L114.493 198.106C114.107 199.018 113.546 199.439 112.634 199.439C111.722 199.439 111.126 199.018 110.775 198.106L104.884 183.834H104.779V198.001C104.779 199.158 104.112 199.86 102.99 199.86C101.868 199.86 101.202 199.158 101.202 198.001Z" fill="white"/>
<path d="M133.254 198.036C133.254 197.721 133.324 197.3 133.499 196.809L139.917 179.31C140.443 177.837 141.355 177.171 142.792 177.171C144.265 177.171 145.142 177.802 145.703 179.31L152.156 196.809C152.331 197.3 152.401 197.686 152.401 198.036C152.401 199.123 151.56 199.86 150.437 199.86C149.35 199.86 148.754 199.369 148.403 198.177L146.931 193.933H138.654L137.182 198.141C136.796 199.334 136.235 199.86 135.218 199.86C134.025 199.86 133.254 199.158 133.254 198.036ZM145.984 190.812L142.828 181.344H142.722L139.601 190.812H145.984Z" fill="white"/>
<path d="M161.589 197.545V179.52C161.589 178.223 162.325 177.451 163.553 177.451H169.655C176.282 177.451 180.175 181.449 180.175 188.463C180.175 195.476 176.282 199.579 169.655 199.579H163.553C162.325 199.579 161.589 198.808 161.589 197.545ZM169.269 196.248C173.722 196.248 176.177 193.547 176.177 188.463C176.177 183.518 173.687 180.783 169.269 180.783H165.552V196.248H169.269Z" fill="white"/>
<path d="M187.785 198.036C187.785 197.721 187.855 197.3 188.031 196.809L194.448 179.31C194.974 177.837 195.886 177.171 197.324 177.171C198.797 177.171 199.673 177.802 200.234 179.31L206.687 196.809C206.862 197.3 206.932 197.686 206.932 198.036C206.932 199.123 206.091 199.86 204.969 199.86C203.881 199.86 203.285 199.369 202.935 198.177L201.462 193.933H193.221L191.748 198.141C191.362 199.334 190.801 199.86 189.784 199.86C188.557 199.86 187.785 199.158 187.785 198.036ZM200.515 190.812L197.359 181.344H197.254L194.133 190.812H200.515Z" fill="white"/>
<path d="M228.71 197.791V179.485C228.71 178.188 229.446 177.416 230.674 177.416H237.302C241.72 177.416 244.771 180.397 244.771 184.816C244.771 189.234 241.615 192.215 237.126 192.215H232.638V197.756C232.638 199.053 231.901 199.825 230.674 199.825C229.446 199.86 228.71 199.088 228.71 197.791ZM236.25 189.059C239.09 189.059 240.738 187.516 240.738 184.851C240.738 182.185 239.09 180.677 236.25 180.677H232.638V189.059H236.25Z" fill="white"/>
<path d="M253.959 197.545V179.24C253.959 177.942 254.695 177.171 255.923 177.171C257.15 177.171 257.887 177.907 257.887 179.24V196.248H266.373C267.46 196.248 268.197 196.879 268.197 197.931C268.197 198.948 267.46 199.614 266.373 199.614H255.888C254.695 199.579 253.959 198.808 253.959 197.545Z" fill="white"/>
<path d="M276.087 198.036C276.087 197.721 276.157 197.3 276.332 196.809L282.75 179.31C283.276 177.837 284.188 177.171 285.625 177.171C287.098 177.171 287.975 177.802 288.536 179.31L294.989 196.809C295.164 197.3 295.234 197.686 295.234 198.036C295.234 199.123 294.393 199.86 293.27 199.86C292.183 199.86 291.587 199.369 291.236 198.177L289.764 193.933H281.487L280.015 198.141C279.629 199.334 279.068 199.86 278.051 199.86C276.858 199.86 276.087 199.158 276.087 198.036ZM288.817 190.812L285.661 181.344H285.555L282.434 190.812H288.817Z" fill="white"/>
<path d="M303.685 195.616C303.545 195.231 303.475 194.845 303.475 194.494C303.475 193.372 304.176 192.671 305.229 192.671C306.105 192.671 306.666 193.021 307.087 193.898C307.788 195.827 309.682 196.669 312.032 196.669C314.697 196.669 316.591 195.336 316.591 193.512C316.591 191.899 315.468 190.917 312.593 190.321L310.208 189.83C305.79 188.954 303.685 186.849 303.685 183.623C303.685 179.731 307.122 177.1 311.927 177.1C315.854 177.1 318.87 178.854 319.782 181.8C319.887 182.045 319.922 182.326 319.922 182.711C319.922 183.693 319.221 184.325 318.204 184.325C317.292 184.325 316.731 183.939 316.31 183.062C315.574 181.203 313.96 180.397 311.891 180.397C309.437 180.397 307.683 181.554 307.683 183.413C307.683 184.921 308.805 185.868 311.541 186.464L313.925 186.955C318.589 187.937 320.553 189.795 320.553 193.092C320.553 197.335 317.222 200 311.891 200C307.508 199.965 304.562 198.106 303.685 195.616Z" fill="white"/>
<path d="M335.247 197.791V180.783H330.197C329.11 180.783 328.374 180.151 328.374 179.099C328.374 178.082 329.11 177.416 330.197 177.416H344.259C345.347 177.416 346.083 178.047 346.083 179.099C346.083 180.116 345.347 180.783 344.259 180.783H339.21V197.791C339.21 199.088 338.473 199.86 337.246 199.86C335.983 199.86 335.247 199.088 335.247 197.791Z" fill="white"/>
</svg>
