<svg width="29" height="29" viewBox="0 0 29 29" fill="none" xmlns="http://www.w3.org/2000/svg">
<path d="M18.5869 24.1995C18.5869 24.763 18.5944 25.2894 18.5869 25.8158C18.5795 26.535 18.1347 26.8834 17.4378 26.7352C17.3043 26.7055 17.1634 26.6758 17.03 26.6462C13.1228 25.8158 9.20816 24.978 5.30095 24.1476C4.71524 24.0216 4.44092 23.688 4.44092 23.0949C4.44092 16.3406 4.44092 9.57901 4.44092 2.8248C4.44092 2.12047 4.77455 1.77942 5.47147 1.77942C11.3138 1.77942 17.1486 1.77942 22.9909 1.77942C23.7175 1.77942 24.0215 2.0834 24.0215 2.80997C24.0215 9.59384 24.0215 16.3777 24.0215 23.169C24.0215 23.9178 23.7249 24.207 22.9761 24.207C21.6341 24.207 20.2848 24.207 18.9428 24.207C18.839 24.1995 18.7426 24.1995 18.5869 24.1995ZM6.23512 22.5091C9.76421 23.2505 13.2711 23.9845 16.8002 24.7259C16.8076 24.6147 16.815 24.5554 16.815 24.4887C16.815 18.3647 16.815 12.2332 16.8224 6.10923C16.8224 5.90905 16.7631 5.84233 16.5703 5.80526C13.5231 5.21954 10.4834 4.63383 7.4362 4.04071C7.04325 3.96657 6.65031 3.89243 6.24253 3.81087C6.23512 10.0683 6.23512 16.2739 6.23512 22.5091ZM14.9318 3.55879C14.9318 3.56621 14.9244 3.58104 14.9244 3.58845C15.0356 3.61069 15.1542 3.64035 15.2654 3.66259C16.1181 3.8257 16.9707 3.98881 17.8233 4.16675C18.3126 4.26313 18.5573 4.55969 18.5795 5.05643C18.5869 5.16765 18.5795 5.27886 18.5795 5.39007C18.5795 10.9358 18.5795 16.4741 18.5721 22.0198C18.5721 22.2719 18.6314 22.3534 18.8909 22.346C19.8992 22.3312 20.9076 22.3386 21.9233 22.3386C22.0197 22.3386 22.116 22.3386 22.2124 22.3386C22.2124 16.0515 22.2124 9.80885 22.2124 3.56621C19.7806 3.55879 17.3562 3.55879 14.9318 3.55879Z" fill="#008CFF"/>
<path d="M15.1246 14.2203C15.1246 14.7838 15.1246 15.3473 15.1246 15.9182C15.1246 16.4965 14.7613 16.8968 14.2571 16.9042C13.7678 16.9116 13.3526 16.4594 13.3452 15.9107C13.3452 14.7838 13.3452 13.6495 13.3452 12.5225C13.3452 11.9813 13.7011 11.5958 14.1904 11.5735C14.7316 11.5513 15.1098 11.8997 15.1172 12.4484C15.1246 13.0341 15.1246 13.6272 15.1246 14.2203Z" fill="#008CFF"/>
</svg>
