<svg width="30" height="30" viewBox="0 0 30 30" fill="none" xmlns="http://www.w3.org/2000/svg">
<g clip-path="url(#clip0_43_1333)">
<path d="M22.4561 15.1534C22.4561 15.7169 22.4561 16.2804 22.4561 16.8513C22.4561 17.4296 22.0928 17.8299 21.5887 17.8373C21.0994 17.8447 20.6842 17.3925 20.6768 16.8438C20.6768 15.7169 20.6768 14.5826 20.6768 13.4556C20.6768 12.9144 21.0326 12.5289 21.522 12.5066C22.0632 12.4844 22.4413 12.8328 22.4487 13.3815C22.4635 13.9672 22.4561 14.5603 22.4561 15.1534Z" fill="#008CFF"/>
<path d="M6.27867 18.1117C6.69385 18.1117 7.10904 18.1117 7.52423 18.1117C8.08028 18.1191 8.41392 18.4305 8.42874 18.9421C8.44357 19.4536 8.10252 19.8392 7.57613 19.8762C7.36853 19.8911 7.15352 19.8837 6.93852 19.8837C6.28608 19.8837 5.62623 19.8911 4.97379 19.8837C4.41774 19.8762 4.07669 19.5055 4.0841 18.9643C4.09893 18.4379 4.43998 18.1191 5.00345 18.1117C5.19621 18.1117 5.38898 18.1117 5.58174 18.1117C5.81899 18.1117 6.04883 18.1117 6.27867 18.1117Z" fill="#008CFF"/>
<path d="M6.24151 27.0752C5.82632 27.0752 5.41113 27.0826 4.99595 27.0752C4.43248 27.0604 4.09884 26.7416 4.09143 26.2152C4.08402 25.674 4.41765 25.3181 4.98853 25.3107C5.84115 25.2959 6.68635 25.2959 7.53897 25.3107C8.10244 25.3181 8.43607 25.6517 8.43607 26.1855C8.43607 26.7045 8.07278 27.0604 7.51673 27.0826C7.5019 27.0826 7.47966 27.0826 7.46483 27.0826C7.05705 27.0752 6.64928 27.0752 6.24151 27.0752Z" fill="#008CFF"/>
<path d="M6.27871 7.27966C6.70131 7.27966 7.13132 7.27225 7.55392 7.27966C8.08032 7.29449 8.40654 7.59105 8.42878 8.08038C8.45844 8.59195 8.14705 9.00714 7.63548 9.02938C6.70131 9.05904 5.77455 9.05904 4.84038 9.02938C4.35105 9.01455 4.06932 8.61419 4.09156 8.11004C4.1138 7.62812 4.42519 7.3019 4.92193 7.28708C5.37419 7.27225 5.82645 7.28708 6.27871 7.27966Z" fill="#008CFF"/>
<path d="M6.24892 12.6919C5.82632 12.6919 5.3963 12.6993 4.9737 12.6919C4.43989 12.6845 4.09884 12.3509 4.09143 11.8319C4.08402 11.2981 4.41765 10.9348 4.95888 10.9274C5.82632 10.9126 6.69377 10.9126 7.56862 10.9274C8.10985 10.9348 8.44348 11.2907 8.43607 11.8022C8.43607 12.2767 8.02088 12.6919 7.52414 12.6993C7.09412 12.6919 6.67152 12.6919 6.24892 12.6919Z" fill="#008CFF"/>
<path d="M6.27858 14.5603C6.69377 14.5603 7.10896 14.5603 7.52415 14.5603C8.0802 14.5677 8.41383 14.8791 8.42866 15.3907C8.44349 15.8652 8.04313 16.3174 7.56122 16.3323C6.68636 16.3471 5.80408 16.3471 4.92922 16.3323C4.40283 16.3174 4.08402 15.9467 4.09144 15.4277C4.09885 14.9088 4.4399 14.5825 4.97371 14.5677C4.98854 14.5677 5.01078 14.5677 5.02561 14.5677C5.44821 14.5603 5.8634 14.5603 6.27858 14.5603Z" fill="#008CFF"/>
<path d="M6.25621 23.5239C5.83361 23.5239 5.40359 23.5314 4.98099 23.5239C4.43235 23.5091 4.10613 23.1829 4.09131 22.6713C4.07648 22.1375 4.4027 21.7742 4.95134 21.7594C5.81878 21.7372 6.68623 21.7446 7.55367 21.7594C8.10231 21.7668 8.42853 22.1153 8.42853 22.6268C8.42853 23.1013 8.02076 23.5165 7.52402 23.5314C7.10141 23.5314 6.67881 23.5239 6.25621 23.5239Z" fill="#008CFF"/>
<path d="M6.25634 3.72839C6.67895 3.72839 7.10896 3.72098 7.53156 3.72839C8.08762 3.73581 8.42125 4.05461 8.43608 4.55877C8.45091 5.03327 8.05796 5.47811 7.56122 5.49294C6.68636 5.51518 5.80409 5.51518 4.92923 5.49294C4.39541 5.47811 4.08402 5.10741 4.09144 4.58842C4.10627 4.06944 4.43248 3.74322 4.98113 3.73581C5.40373 3.72098 5.82633 3.72839 6.25634 3.72839Z" fill="#008CFF"/>
<path d="M26.3782 3.78032C26.3782 3.12789 26.0594 2.80908 25.4069 2.80908C25.1326 2.80908 24.8583 2.80908 24.584 2.80908H12.1951C11.9504 2.80908 11.7132 2.80908 11.4685 2.80908C10.6826 2.80908 10.4009 3.09082 10.4009 3.87671C10.4009 7.66529 10.4009 11.4613 10.4009 15.2499C10.4009 19.031 10.4009 22.8122 10.4009 26.5934C10.4009 27.3941 10.6826 27.6684 11.4907 27.6684C11.728 27.6684 11.9652 27.6684 12.1951 27.6684H24.584C24.8286 27.6684 25.0807 27.6684 25.3254 27.6684C26.0816 27.6684 26.3782 27.3719 26.3782 26.6082C26.3782 22.8196 26.3782 19.0236 26.3782 15.2351C26.3782 11.4168 26.3782 7.59857 26.3782 3.78032ZM24.584 25.8816C20.4321 25.8816 16.3618 25.8816 12.1951 25.8816C12.1951 18.7938 12.1951 11.706 12.1951 4.59587C16.3544 4.59587 20.4321 4.59587 24.584 4.59587C24.584 11.6911 24.584 18.779 24.584 25.8816Z" fill="#008CFF"/>
</g>
<defs>
<clipPath id="clip0_43_1333">
<rect width="28.4667" height="28.4667" fill="white" transform="translate(0.553223 0.794312)"/>
</clipPath>
</defs>
</svg>
