<svg width="30" height="30" viewBox="0 0 30 30" fill="none" xmlns="http://www.w3.org/2000/svg">
<g clip-path="url(#clip0_43_1323)">
<path d="M25.0215 3.80253C25.0215 3.07595 24.7175 2.77197 23.9909 2.77197C18.1486 2.77197 12.3138 2.77197 6.47147 2.77197C5.77455 2.77197 5.44092 3.11302 5.44092 3.81736C5.44092 10.5716 5.44092 17.3332 5.44092 24.0874C5.44092 24.6731 5.71524 25.0142 6.30095 25.1402C10.2082 25.978 14.1228 26.8084 18.03 27.6387C18.1634 27.6684 18.3043 27.6981 18.4378 27.7277C19.1347 27.8834 19.5795 27.5275 19.5869 26.8084C19.5944 26.282 19.5869 25.7556 19.5869 25.1921C19.7352 25.1921 19.839 25.1921 19.9428 25.1921C21.2848 25.1921 22.6341 25.1921 23.9761 25.1921C24.7323 25.1921 25.0215 24.9029 25.0215 24.1541C25.0215 17.3703 25.0215 10.5864 25.0215 3.80253ZM16.1246 16.918C16.1246 17.4963 15.7613 17.8967 15.2571 17.9041C14.7678 17.9115 14.3526 17.4592 14.3452 16.9106C14.3452 15.7837 14.3452 14.6493 14.3452 13.5224C14.3452 12.9811 14.7011 12.5956 15.1904 12.5734C15.7316 12.5511 16.1098 12.8996 16.1172 13.4482C16.1246 14.0413 16.1172 14.6345 16.1172 15.2276C16.1246 15.7837 16.1246 16.3471 16.1246 16.918ZM23.2198 23.3312C23.1309 23.3312 23.0271 23.3312 22.9307 23.3312C21.9224 23.3312 20.9141 23.3238 19.8983 23.3386C19.6388 23.346 19.5795 23.2644 19.5795 23.0124C19.5869 17.4666 19.5869 11.9283 19.5869 6.38262C19.5869 6.27141 19.5869 6.1602 19.5869 6.04899C19.5647 5.55225 19.32 5.2631 18.8307 5.1593C17.9781 4.98878 17.1255 4.82567 16.2729 4.65514C16.1542 4.6329 16.043 4.61066 15.9318 4.581C15.9318 4.57359 15.9392 4.55876 15.9392 4.55135C18.3636 4.55135 20.788 4.55135 23.2273 4.55135C23.2198 10.8088 23.2198 17.0515 23.2198 23.3312Z" fill="#008CFF"/>
</g>
<defs>
<clipPath id="clip0_43_1323">
<rect width="28.4667" height="28.4667" fill="white" transform="translate(0.953125 0.888794)"/>
</clipPath>
</defs>
</svg>
