<svg width="30" height="30" viewBox="0 0 30 30" fill="none" xmlns="http://www.w3.org/2000/svg">
<g clip-path="url(#clip0_43_1351)">
<path d="M2.77917 8.11753C2.77917 6.69403 2.77917 5.27053 2.77917 3.84703C2.77917 3.17976 3.12022 2.8313 3.78007 2.8313C6.66414 2.8313 9.54821 2.8313 12.4397 2.8313C13.0773 2.8313 13.4332 3.18717 13.4332 3.82478C13.4332 6.70885 13.4332 9.59292 13.4332 12.4844C13.4332 13.1443 13.0847 13.4853 12.4175 13.4853C9.5408 13.4853 6.66414 13.4853 3.78749 13.4853C3.12763 13.4853 2.77917 13.1368 2.77917 12.477C2.77176 11.0238 2.77917 9.57068 2.77917 8.11753ZM4.57338 4.61809C4.57338 6.99059 4.57338 9.34085 4.57338 11.6837C6.94588 11.6837 9.29613 11.6837 11.6464 11.6837C11.6464 9.3186 11.6464 6.96835 11.6464 4.61809C9.28131 4.61809 6.93846 4.61809 4.57338 4.61809Z" fill="#008CFF"/>
<path d="M16.9849 8.13235C16.9849 6.70144 16.9849 5.26311 16.9849 3.8322C16.9849 3.18717 17.3333 2.8313 17.9783 2.8313C20.8698 2.8313 23.7687 2.8313 26.6602 2.8313C27.283 2.8313 27.6389 3.19459 27.6389 3.81737C27.6389 6.70885 27.6389 9.60775 27.6389 12.4992C27.6389 13.1294 27.283 13.4853 26.6602 13.4853C23.7539 13.4853 20.855 13.4853 17.9487 13.4853C17.3482 13.4853 16.9849 13.1146 16.9849 12.5141C16.9849 11.0535 16.9849 9.59292 16.9849 8.13235ZM25.8447 11.6985C25.8447 9.32602 25.8447 6.97576 25.8447 4.63292C23.4722 4.63292 21.1219 4.63292 18.7717 4.63292C18.7717 6.998 18.7717 9.34085 18.7717 11.6985C21.1293 11.6985 23.4796 11.6985 25.8447 11.6985Z" fill="#008CFF"/>
<path d="M8.10268 27.6906C6.67177 27.6906 5.23344 27.6906 3.80253 27.6906C3.12043 27.6906 2.77197 27.3496 2.77197 26.6675C2.77197 23.7908 2.77197 20.9141 2.77197 18.0375C2.77197 17.3776 3.12043 17.0292 3.78029 17.0292C6.65694 17.0292 9.5336 17.0292 12.4103 17.0292C13.0701 17.0292 13.426 17.3776 13.426 18.0375C13.426 20.9216 13.426 23.8056 13.426 26.6971C13.426 27.3421 13.0701 27.6906 12.4251 27.6906C10.9868 27.698 9.54843 27.6906 8.10268 27.6906Z" fill="#008CFF"/>
<path d="M23.1978 23.257C23.1978 24.4581 23.1978 25.6221 23.1978 26.7861C23.1978 27.2161 22.9458 27.5349 22.5528 27.6535C22.1895 27.7647 21.7818 27.6313 21.589 27.2977C21.4926 27.1345 21.4333 26.9195 21.4333 26.7268C21.4185 25.6814 21.4259 24.636 21.4259 23.5906C21.4259 23.4868 21.4259 23.3904 21.4259 23.2496C21.3147 23.2496 21.2183 23.2496 21.1145 23.2496C20.0691 23.2496 19.0237 23.2496 17.9783 23.2496C17.3852 23.2496 16.9849 22.8863 16.9849 22.3673C16.9849 21.8409 17.3852 21.4776 17.9709 21.4776C19.1053 21.4776 20.2471 21.4776 21.4259 21.4776C21.4259 21.3738 21.4259 21.2774 21.4259 21.1736C21.4259 20.0912 21.4185 19.0087 21.4259 17.9263C21.4259 17.4518 21.7669 17.0885 22.2118 17.0366C22.6492 16.9921 23.057 17.2738 23.1682 17.7113C23.1978 17.8225 23.1978 17.9485 23.1978 18.0671C23.1978 19.0903 23.1978 20.1208 23.1978 21.144C23.1978 21.2404 23.1978 21.3442 23.1978 21.4702C23.3239 21.4702 23.4203 21.4702 23.5167 21.4702C24.4953 21.4702 25.474 21.4702 26.46 21.4702C27.2237 21.4702 27.6463 21.789 27.6389 22.3673C27.6315 22.9382 27.2237 23.2496 26.4749 23.2496C25.4962 23.2496 24.5175 23.2496 23.5315 23.2496C23.4351 23.257 23.3313 23.257 23.1978 23.257Z" fill="#008CFF"/>
</g>
<defs>
<clipPath id="clip0_43_1351">
<rect width="28.4667" height="28.4667" fill="white" transform="translate(0.553223 0.888794)"/>
</clipPath>
</defs>
</svg>
