<svg width="36" height="37" viewBox="0 0 36 37" fill="none" xmlns="http://www.w3.org/2000/svg">
<path fill-rule="evenodd" clip-rule="evenodd" d="M17.9261 33.5309C26.1081 33.5309 32.741 26.8982 32.741 18.7161C32.741 10.5341 26.1081 3.90131 17.9261 3.90131C9.74415 3.90131 3.11133 10.5341 3.11133 18.7161C3.11133 26.8982 9.74415 33.5309 17.9261 33.5309ZM17.9261 26.6174C22.2899 26.6174 25.8274 23.0799 25.8274 18.7161C25.8274 14.3524 22.2899 10.8149 17.9261 10.8149C13.5624 10.8149 10.0249 14.3524 10.0249 18.7161C10.0249 23.0799 13.5624 26.6174 17.9261 26.6174Z" fill="#008CFF"/>
<path opacity="0.2" fill-rule="evenodd" clip-rule="evenodd" d="M35.7035 18.7162C35.7035 28.5346 27.7441 36.494 17.9257 36.494C8.10733 36.494 0.147949 28.5346 0.147949 18.7162C0.147949 8.89782 8.10733 0.938416 17.9257 0.938416C27.7441 0.938416 35.7035 8.89782 35.7035 18.7162ZM32.7405 18.7162C32.7405 26.8982 26.1077 33.531 17.9257 33.531C9.74373 33.531 3.11091 26.8982 3.11091 18.7162C3.11091 10.5342 9.74373 3.90138 17.9257 3.90138C26.1077 3.90138 32.7405 10.5342 32.7405 18.7162Z" fill="#008CFF"/>
<circle cx="17.9256" cy="18.7162" r="11.8519" fill="white"/>
<path d="M14.4271 26.0001H21.7541C22.6059 26.0001 23.1005 25.4781 23.1005 24.7087C23.1005 23.9211 22.6059 23.4173 21.7541 23.4173H17.1839V23.3532L19.8125 20.9536C21.9098 19.0577 22.7708 18.0869 22.7708 16.3925C22.7708 14.057 20.7925 12.4542 17.7792 12.4542C15.3704 12.4542 13.6119 13.6174 13.0349 15.1378C12.9342 15.3759 12.8976 15.614 12.8976 15.8705C12.8976 16.6948 13.4196 17.1985 14.2897 17.1985C14.9675 17.1985 15.3613 16.9329 15.7826 16.2826C16.268 15.4034 16.8633 14.9821 17.7334 14.9821C18.7867 14.9821 19.5194 15.6598 19.5194 16.6123C19.5194 17.4733 19.0981 18.0778 17.5502 19.4882L13.7768 22.9136C13.1174 23.4815 12.8518 23.9302 12.8518 24.5622C12.8518 25.3956 13.3463 26.0001 14.4271 26.0001Z" fill="#008CFF"/>
</svg>
