<svg width="37" height="37" viewBox="0 0 37 37" fill="none" xmlns="http://www.w3.org/2000/svg">
<path fill-rule="evenodd" clip-rule="evenodd" d="M18.7279 33.3086C26.9099 33.3086 33.5427 26.6758 33.5427 18.4938C33.5427 10.3117 26.9099 3.67896 18.7279 3.67896C10.5459 3.67896 3.91309 10.3117 3.91309 18.4938C3.91309 26.6758 10.5459 33.3086 18.7279 33.3086ZM18.7279 26.395C23.0916 26.395 26.6291 22.8575 26.6291 18.4938C26.6291 14.13 23.0916 10.5925 18.7279 10.5925C14.3642 10.5925 10.8267 14.13 10.8267 18.4938C10.8267 22.8575 14.3642 26.395 18.7279 26.395Z" fill="#008CFF"/>
<path opacity="0.2" fill-rule="evenodd" clip-rule="evenodd" d="M36.5062 18.494C36.5062 28.3123 28.5469 36.2717 18.7285 36.2717C8.91006 36.2717 0.950684 28.3123 0.950684 18.494C0.950684 8.67559 8.91006 0.716187 18.7285 0.716187C28.5469 0.716187 36.5062 8.67559 36.5062 18.494ZM33.5433 18.494C33.5433 26.676 26.9105 33.3088 18.7285 33.3088C10.5465 33.3088 3.91365 26.676 3.91365 18.494C3.91365 10.3119 10.5465 3.67915 18.7285 3.67915C26.9105 3.67915 33.5433 10.3119 33.5433 18.494Z" fill="#008CFF"/>
<circle cx="18.7288" cy="18.4939" r="11.8519" fill="white"/>
<path d="M19.7975 25.2108C20.7958 25.2108 21.4644 24.5605 21.4644 23.553V13.4509C21.4644 12.2969 20.7592 11.5733 19.5502 11.5733C18.8908 11.5733 18.323 11.6466 17.6177 12.1228L15.1174 13.8264C14.6411 14.1561 14.4488 14.5316 14.4488 15.017C14.4488 15.6948 14.9342 16.1802 15.5845 16.1802C15.905 16.1802 16.1065 16.1069 16.4088 15.8963L18.0574 14.7514H18.1215V23.553C18.1215 24.5605 18.7992 25.2108 19.7975 25.2108Z" fill="#008CFF"/>
</svg>
