<svg width="36" height="37" viewBox="0 0 36 37" fill="none" xmlns="http://www.w3.org/2000/svg">
<path fill-rule="evenodd" clip-rule="evenodd" d="M18.0121 33.4446C26.1941 33.4446 32.8269 26.8118 32.8269 18.6298C32.8269 10.4477 26.1941 3.81494 18.0121 3.81494C9.83009 3.81494 3.19727 10.4477 3.19727 18.6298C3.19727 26.8118 9.83009 33.4446 18.0121 33.4446ZM18.0121 26.531C22.3758 26.531 25.9133 22.9935 25.9133 18.6298C25.9133 14.266 22.3758 10.7285 18.0121 10.7285C13.6484 10.7285 10.1108 14.266 10.1108 18.6298C10.1108 22.9935 13.6484 26.531 18.0121 26.531Z" fill="#008CFF"/>
<path opacity="0.2" fill-rule="evenodd" clip-rule="evenodd" d="M35.7904 18.6298C35.7904 28.4481 27.831 36.4076 18.0126 36.4076C8.19424 36.4076 0.234863 28.4481 0.234863 18.6298C0.234863 8.8114 8.19424 0.85199 18.0126 0.85199C27.831 0.85199 35.7904 8.8114 35.7904 18.6298ZM32.8275 18.6298C32.8275 26.8118 26.1946 33.4446 18.0126 33.4446C9.83065 33.4446 3.19783 26.8118 3.19783 18.6298C3.19783 10.4477 9.83065 3.81495 18.0126 3.81495C26.1946 3.81495 32.8275 10.4477 32.8275 18.6298Z" fill="#008CFF"/>
<circle cx="18.013" cy="18.6297" r="11.8519" fill="white"/>
<path d="M18.0082 25.3298C21.3237 25.3298 23.4577 23.7362 23.4577 21.2633C23.4577 19.4774 22.1938 18.3508 20.1971 18.1493V18.0852C21.7083 17.783 22.9356 16.7022 22.9356 15.0079C22.9356 12.764 20.8657 11.4542 17.9899 11.4542C15.3888 11.4542 13.8318 12.6998 13.3097 13.9821C13.1906 14.266 13.1449 14.495 13.1449 14.7789C13.1449 15.5482 13.6119 16.0978 14.5278 16.0978C15.2697 16.0978 15.6727 15.8322 16.0482 15.1269C16.4512 14.3393 17.0648 13.9546 18.0082 13.9546C19.153 13.9546 19.8125 14.5499 19.8125 15.4841C19.8125 16.4458 19.0248 17.0778 17.7334 17.0778H17.4312C16.6344 17.0778 16.2131 17.5449 16.2131 18.2134C16.2131 18.9004 16.6344 19.3583 17.4312 19.3583H17.7517C19.2171 19.3583 20.0414 19.9536 20.0414 21.0618C20.0414 22.0144 19.2355 22.6921 18.0814 22.6921C16.8267 22.6921 16.2314 22.2067 15.746 21.3824C15.4162 20.8512 15.0041 20.6222 14.363 20.6222C13.4471 20.6222 12.8884 21.1534 12.8884 21.996C12.8884 22.2342 12.9434 22.5089 13.0533 22.7654C13.5845 24.0476 15.1964 25.3298 18.0082 25.3298Z" fill="#008CFF"/>
</svg>
