<svg width="15" height="15" viewBox="0 0 15 15" fill="none" xmlns="http://www.w3.org/2000/svg">
<path d="M12.5063 9.6125C11.7375 9.6125 10.9937 9.4875 10.3 9.2625C10.0813 9.1875 9.8375 9.24375 9.66875 9.4125L8.6875 10.6438C6.91875 9.8 5.2625 8.20625 4.38125 6.375L5.6 5.3375C5.76875 5.1625 5.81875 4.91875 5.75 4.7C5.51875 4.00625 5.4 3.2625 5.4 2.49375C5.4 2.15625 5.11875 1.875 4.78125 1.875H2.61875C2.28125 1.875 1.875 2.025 1.875 2.49375C1.875 8.3 6.70625 13.125 12.5063 13.125C12.95 13.125 13.125 12.7312 13.125 12.3875V10.2313C13.125 9.89375 12.8438 9.6125 12.5063 9.6125Z" fill="#CDD5E0"/>
</svg>
