<svg width="205" height="155" viewBox="0 0 205 155" fill="none" xmlns="http://www.w3.org/2000/svg">
<mask id="mask0_403_194" style="mask-type:alpha" maskUnits="userSpaceOnUse" x="0" y="0" width="205" height="155">
<rect width="205" height="155" fill="#D9D9D9"/>
</mask>
<g mask="url(#mask0_403_194)">
<path d="M27.7893 17.8264C20.956 17.8264 15.3982 23.4902 15.3982 30.4538V179.8C15.3982 186.393 20.6371 191.731 27.106 191.731H102.865V17.8264H27.7893ZM88.2871 174.462H31.4793V34.7712H88.2415V174.462H88.2871Z" fill="#E5EDF4"/>
<path d="M176.209 191.732C183.042 191.732 188.6 186.068 188.6 179.105L188.6 29.7579C188.6 23.1657 183.361 17.8269 176.892 17.8269L101.133 17.8269L101.133 191.732L176.209 191.732ZM115.711 35.0967L172.519 35.0967L172.519 174.787L115.757 174.787L115.757 35.0967L115.711 35.0967Z" fill="#E5EDF4"/>
<path d="M15.3982 187.321C15.3982 132.308 15.3982 77.2956 15.3982 22.283C16.6737 18.9868 19.0426 17.7798 22.5049 17.8262C29.976 17.9655 37.4015 17.8727 44.8726 17.8727C45.6015 17.8727 46.5582 17.7334 47.0137 18.1512C47.7426 18.8011 48.4715 19.7761 48.6082 20.7045C48.7904 21.8651 47.9249 22.7472 46.6949 22.9793C46.1026 23.1186 45.4649 23.0722 44.8271 23.0722C37.4471 23.0722 30.0215 23.0722 22.6415 23.0722C21.9582 23.0722 21.3204 23.165 20.5004 23.2114C20.5004 24.0471 20.5004 24.7434 20.5004 25.4398C20.5004 78.3634 20.5004 131.287 20.5004 184.211C20.5004 186.485 20.5004 186.485 22.6871 186.485C47.8337 186.485 73.026 186.485 98.1726 186.485C98.7649 186.485 99.4026 186.485 99.9949 186.485C99.9949 131.89 99.9949 77.5742 99.9949 23.0722C99.2204 23.0722 98.5371 23.0722 97.8538 23.0722C85.0982 23.0722 72.3426 23.0722 59.5871 23.0722C58.9493 23.0722 58.3115 23.0722 57.7193 23.0257C56.4437 22.84 55.6693 22.0508 55.5782 20.7045C55.4871 19.3118 56.1249 18.3369 57.4915 18.0119C58.2204 17.8262 58.9493 17.8727 59.6782 17.8727C100.86 17.8727 141.997 17.8727 183.179 17.8262C186.596 17.8262 189.01 18.9868 190.286 22.283C190.286 77.2956 190.286 132.308 190.286 187.321C189.01 190.617 186.596 191.778 183.179 191.778C129.606 191.731 76.0326 191.731 22.4593 191.778C19.0426 191.778 16.6737 190.617 15.3982 187.321ZM105.598 186.532C106.327 186.532 106.919 186.532 107.466 186.532C132.704 186.532 157.896 186.532 183.134 186.578C184.728 186.578 185.229 186.16 185.229 184.443C185.184 131.333 185.184 78.2705 185.229 25.1613C185.229 23.4436 184.728 23.0722 183.134 23.0722C157.896 23.1186 132.704 23.1186 107.466 23.1186C106.874 23.1186 106.282 23.1186 105.598 23.1186C105.598 77.667 105.598 131.937 105.598 186.532Z" fill="#CEE3F4"/>
<path d="M91.9774 104.779C91.9774 126.924 91.9774 149.114 91.9774 171.259C91.9774 176.04 89.9275 178.13 85.2352 178.13C68.653 178.13 52.1163 178.13 35.5341 178.13C30.8419 178.13 28.7463 175.994 28.7463 171.259C28.7463 126.924 28.7463 82.635 28.7463 38.2999C28.7463 33.5182 30.8419 31.4291 35.5341 31.4291C52.1163 31.4291 68.653 31.4291 85.2352 31.4291C89.973 31.4291 92.023 33.5182 92.023 38.2999C91.9775 60.4442 91.9774 82.635 91.9774 104.779ZM86.8297 135.141C86.3741 135.28 86.1008 135.326 85.8274 135.419C80.0419 136.58 75.5319 132.82 75.4863 126.784C75.4863 120.564 75.4408 114.389 75.4863 108.168C75.5319 103.154 78.903 99.6726 83.8686 99.5334C84.8252 99.5334 85.7819 99.5334 86.7386 99.5334C86.7841 98.8834 86.8297 98.4656 86.8297 98.0942C86.8297 78.1782 86.8297 58.3087 86.8752 38.3927C86.8752 36.9536 86.3741 36.675 85.0986 36.675C68.5619 36.675 52.0708 36.675 35.5341 36.6286C34.213 36.6286 33.803 37 33.803 38.3927C33.8486 82.6814 33.8486 126.924 33.803 171.212C33.803 172.651 34.3041 172.93 35.5797 172.93C52.0708 172.884 68.6075 172.884 85.0986 172.93C86.6019 172.93 86.8752 172.373 86.8752 170.98C86.8297 163.459 86.8297 155.892 86.8297 148.372C86.8297 144.054 86.8297 139.737 86.8297 135.141ZM86.8297 104.733C85.6908 104.733 84.7341 104.686 83.7775 104.733C81.8641 104.826 80.6797 105.986 80.6341 107.936C80.5886 114.389 80.5886 120.796 80.6341 127.249C80.6341 129.152 82.0919 130.452 83.7775 130.405C85.463 130.359 86.7841 129.106 86.7841 127.249C86.8297 119.867 86.8297 112.439 86.8297 104.733Z" fill="#CEE3F4"/>
<path d="M118.855 99.5322C120.131 99.5322 121.133 99.4857 122.181 99.5322C126.691 99.6714 130.153 103.2 130.198 107.796C130.244 114.109 130.244 120.423 130.198 126.783C130.198 132.818 125.643 136.579 119.857 135.418C119.584 135.372 119.311 135.279 118.855 135.186C118.855 135.836 118.855 136.393 118.855 136.996C118.855 148.324 118.901 159.605 118.809 170.933C118.809 172.65 119.356 173.068 120.951 173.022C127.875 172.929 134.845 172.975 141.77 172.975C142.316 172.975 142.908 172.975 143.455 173.068C144.731 173.3 145.459 174.136 145.551 175.436C145.642 176.736 145.004 177.664 143.728 178.035C143.136 178.221 142.498 178.221 141.861 178.221C134.708 178.221 127.511 178.221 120.358 178.221C115.757 178.221 113.707 176.086 113.707 171.397C113.707 127.062 113.707 82.7266 113.707 38.4379C113.707 33.6098 115.712 31.5671 120.449 31.5671C137.032 31.5671 153.568 31.5671 170.151 31.5671C174.843 31.5671 176.938 33.7027 176.938 38.4379C176.938 82.773 176.938 127.108 176.938 171.397C176.938 176.086 174.843 178.221 170.287 178.268C165.686 178.268 161.085 178.268 156.438 178.268C156.028 178.268 155.618 178.268 155.254 178.221C153.751 178.035 152.748 176.968 152.748 175.621C152.748 174.182 153.796 173.068 155.391 173.022C157.395 172.975 159.354 172.975 161.358 172.975C164.365 172.975 167.372 172.929 170.424 172.975C171.426 172.975 171.927 172.697 171.791 171.583C171.745 171.304 171.791 171.025 171.791 170.7C171.791 126.783 171.791 82.8659 171.791 38.9486C171.791 36.7202 171.791 36.7202 169.558 36.7202C153.341 36.7202 137.123 36.7202 120.859 36.6738C119.265 36.6738 118.718 37.0452 118.718 38.7629C118.764 58.3539 118.764 77.9913 118.764 97.5823C118.855 98.1394 118.855 98.6965 118.855 99.5322ZM119.083 104.825C119.037 105.01 118.901 105.196 118.901 105.428C118.901 112.717 118.855 120.052 118.946 127.34C118.946 128.176 119.584 129.383 120.267 129.754C121.133 130.219 122.636 130.404 123.411 129.94C124.231 129.429 125.005 128.037 125.051 127.015C125.187 121.398 125.142 115.781 125.142 110.163C125.142 105.289 124.504 104.639 119.721 104.778C119.493 104.732 119.311 104.778 119.083 104.825Z" fill="#CEE3F4"/>
</g>
</svg>
