<svg width="205" height="155" viewBox="0 0 205 155" fill="none" xmlns="http://www.w3.org/2000/svg">
<mask id="mask0_403_221" style="mask-type:alpha" maskUnits="userSpaceOnUse" x="0" y="0" width="205" height="155">
<rect width="205" height="155" fill="#D9D9D9"/>
</mask>
<g mask="url(#mask0_403_221)">
<path d="M15.3984 183.815C15.3984 129.831 15.3984 75.848 15.3984 21.8647C16.674 18.6303 19.0429 17.4458 22.5051 17.4914C29.9762 17.628 37.4018 17.5369 44.8729 17.5369C45.6018 17.5369 46.5584 17.4003 47.014 17.8103C47.7429 18.448 48.4718 19.4047 48.6084 20.3158C48.7907 21.4547 47.9251 22.3203 46.6951 22.548C46.1029 22.6847 45.4651 22.6391 44.8273 22.6391C37.4473 22.6391 30.0218 22.6391 22.6418 22.6391C21.9584 22.6391 21.3207 22.7303 20.5007 22.7758C20.5007 23.5958 20.5007 24.2791 20.5007 24.9625C20.5007 76.8958 20.5007 128.829 20.5007 180.762C20.5007 182.995 20.5007 182.995 22.6873 182.995C47.834 182.995 73.0262 182.995 98.1729 182.995C98.7651 182.995 99.4029 182.995 99.9951 182.995C99.9951 129.421 99.9951 76.1214 99.9951 22.6391C99.2207 22.6391 98.5373 22.6391 97.854 22.6391C85.0984 22.6391 72.3429 22.6391 59.5873 22.6391C58.9496 22.6391 58.3118 22.6391 57.7195 22.5936C56.444 22.4114 55.6695 21.6369 55.5784 20.3158C55.4873 18.9491 56.1251 17.9925 57.4918 17.6736C58.2207 17.4914 58.9495 17.5369 59.6784 17.5369C100.861 17.5369 141.997 17.5369 183.18 17.4914C186.596 17.4914 189.011 18.6303 190.286 21.8647C190.286 75.848 190.286 129.831 190.286 183.815C189.011 187.049 186.596 188.188 183.18 188.188C129.606 188.142 76.0329 188.142 22.4595 188.188C19.0429 188.188 16.674 187.049 15.3984 183.815ZM105.598 183.04C106.327 183.04 106.92 183.04 107.466 183.04C132.704 183.04 157.896 183.04 183.134 183.086C184.728 183.086 185.23 182.676 185.23 180.99C185.184 128.875 185.184 76.8047 185.23 24.6891C185.23 23.0036 184.728 22.6391 183.134 22.6391C157.896 22.6847 132.704 22.6847 107.466 22.6847C106.874 22.6847 106.282 22.6847 105.598 22.6847C105.598 76.2125 105.598 129.467 105.598 183.04Z" fill="#CEE3F4"/>
<path d="M91.9772 102.816C91.9772 124.546 91.9772 146.321 91.9772 168.051C91.9772 172.743 89.9272 174.793 85.235 174.793C68.6528 174.793 52.1161 174.793 35.5339 174.793C30.8417 174.793 28.7461 172.698 28.7461 168.051C28.7461 124.546 28.7461 81.0856 28.7461 37.58C28.7461 32.8878 30.8417 30.8378 35.5339 30.8378C52.1161 30.8378 68.6528 30.8378 85.235 30.8378C89.9728 30.8378 92.0228 32.8878 92.0228 37.58C91.9772 59.31 91.9772 81.0855 91.9772 102.816ZM86.8294 132.609C86.3739 132.746 86.1005 132.791 85.8272 132.882C80.0417 134.021 75.5317 130.331 75.4861 124.409C75.4861 118.304 75.4405 112.246 75.4861 106.141C75.5317 101.221 78.9028 97.8044 83.8683 97.6678C84.825 97.6678 85.7817 97.6678 86.7383 97.6678C86.7839 97.03 86.8294 96.62 86.8294 96.2556C86.8294 76.7122 86.8294 57.2144 86.875 37.6711C86.875 36.2589 86.3739 35.9855 85.0983 35.9855C68.5617 35.9855 52.0705 35.9855 35.5339 35.94C34.2128 35.94 33.8028 36.3044 33.8028 37.6711C33.8483 81.1311 33.8483 124.546 33.8028 168.006C33.8028 169.418 34.3039 169.691 35.5794 169.691C52.0705 169.646 68.6072 169.646 85.0983 169.691C86.6017 169.691 86.875 169.144 86.875 167.778C86.8294 160.398 86.8294 152.972 86.8294 145.592C86.8294 141.356 86.8294 137.119 86.8294 132.609ZM86.8294 102.77C85.6905 102.77 84.7339 102.724 83.7772 102.77C81.8639 102.861 80.6794 104 80.6339 105.913C80.5883 112.246 80.5883 118.532 80.6339 124.864C80.6339 126.732 82.0917 128.008 83.7772 127.962C85.4628 127.917 86.7839 126.687 86.7839 124.864C86.8294 117.621 86.8294 110.332 86.8294 102.77Z" fill="#CEE3F4"/>
<path d="M118.855 97.6678C120.131 97.6678 121.133 97.6223 122.181 97.6678C126.691 97.8045 130.153 101.267 130.199 105.777C130.244 111.972 130.244 118.168 130.199 124.409C130.199 130.331 125.643 134.021 119.858 132.882C119.584 132.837 119.311 132.746 118.855 132.655C118.855 133.292 118.855 133.839 118.855 134.431C118.855 145.547 118.901 156.617 118.81 167.732C118.81 169.418 119.356 169.828 120.951 169.782C127.875 169.691 134.845 169.737 141.77 169.737C142.316 169.737 142.909 169.737 143.455 169.828C144.731 170.056 145.46 170.876 145.551 172.151C145.642 173.427 145.004 174.338 143.729 174.702C143.136 174.884 142.499 174.884 141.861 174.884C134.709 174.884 127.511 174.884 120.359 174.884C115.758 174.884 113.708 172.789 113.708 168.188C113.708 124.682 113.708 81.1767 113.708 37.7167C113.708 32.9789 115.712 30.9745 120.45 30.9745C137.032 30.9745 153.569 30.9745 170.151 30.9745C174.843 30.9745 176.939 33.07 176.939 37.7167C176.939 81.2223 176.939 124.728 176.939 168.188C176.939 172.789 174.843 174.884 170.288 174.93C165.686 174.93 161.085 174.93 156.439 174.93C156.029 174.93 155.619 174.93 155.254 174.884C153.751 174.702 152.749 173.654 152.749 172.333C152.749 170.921 153.796 169.828 155.391 169.782C157.395 169.737 159.354 169.737 161.359 169.737C164.365 169.737 167.372 169.691 170.424 169.737C171.426 169.737 171.928 169.463 171.791 168.37C171.745 168.097 171.791 167.823 171.791 167.505C171.791 124.409 171.791 81.3134 171.791 38.2178C171.791 36.0312 171.791 36.0312 169.559 36.0312C153.341 36.0312 137.123 36.0312 120.86 35.9856C119.265 35.9856 118.719 36.35 118.719 38.0356C118.764 57.26 118.764 76.53 118.764 95.7545C118.855 96.3012 118.855 96.8478 118.855 97.6678ZM119.083 102.861C119.038 103.043 118.901 103.226 118.901 103.453C118.901 110.606 118.855 117.803 118.946 124.956C118.946 125.776 119.584 126.96 120.268 127.324C121.133 127.78 122.636 127.962 123.411 127.507C124.231 127.006 125.005 125.639 125.051 124.637C125.188 119.124 125.142 113.612 125.142 108.1C125.142 103.317 124.504 102.679 119.721 102.816C119.493 102.77 119.311 102.816 119.083 102.861Z" fill="#CEE3F4"/>
</g>
</svg>
