<svg width="205" height="155" viewBox="0 0 205 155" fill="none" xmlns="http://www.w3.org/2000/svg">
<mask id="mask0_403_244" style="mask-type:alpha" maskUnits="userSpaceOnUse" x="0" y="0" width="205" height="155">
<rect width="205" height="155" fill="#D9D9D9"/>
</mask>
<g mask="url(#mask0_403_244)">
<path d="M15.3979 124.002C15.3979 87.7856 15.3979 51.6145 15.3979 15.3978C73.6635 15.3978 131.929 15.3978 190.331 15.3978C190.331 51.5689 190.331 87.7856 190.331 124.002C188.464 126.918 185.411 125.096 182.86 125.916C182.86 127.92 182.86 129.97 182.86 132.02C182.86 134.024 181.858 135.163 180.309 135.163C178.76 135.118 177.804 133.933 177.758 131.974C177.758 129.924 177.758 127.92 177.758 125.825C174.114 125.825 170.697 125.825 167.098 125.825C167.098 126.599 167.098 127.282 167.098 127.92C167.098 142.088 167.098 156.256 167.098 170.469C167.098 173.795 166.369 174.523 163.135 174.523C146.188 174.523 129.196 174.523 112.249 174.523C109.015 174.523 108.331 173.84 108.331 170.651C108.331 156.438 108.331 142.179 108.331 127.966C108.331 127.282 108.331 126.644 108.331 125.916C104.641 125.916 101.179 125.916 97.5802 125.916C97.5802 126.736 97.5802 127.373 97.5802 128.057C97.5802 142.361 97.5802 156.62 97.5802 170.924C97.5802 173.795 96.8057 174.569 93.9357 174.569C84.0502 174.569 74.1191 174.569 64.2335 174.569C63.5957 174.569 62.9579 174.523 62.3657 174.341C61.1357 173.977 60.498 173.02 60.6346 171.745C60.7713 170.469 61.5002 169.649 62.8213 169.512C63.3679 169.421 63.9602 169.467 64.5068 169.467C73.1168 169.467 81.6813 169.467 90.2913 169.467C90.9746 169.467 91.6124 169.467 92.3413 169.467C92.3413 154.798 92.3413 140.402 92.3413 125.916C76.1691 125.916 60.0879 125.916 44.0068 125.916C44.0068 140.448 44.0068 154.889 44.0068 169.467C46.2846 169.467 48.4257 169.421 50.6124 169.512C51.3413 169.558 52.3891 169.695 52.7991 170.15C53.3457 170.788 53.6646 171.881 53.5279 172.701C53.3457 173.977 52.2068 174.523 50.9768 174.523C48.198 174.569 45.4191 174.569 42.5946 174.569C39.4968 174.569 38.7679 173.794 38.7679 170.742C38.7679 156.438 38.7679 142.179 38.7679 127.874C38.7679 127.237 38.7679 126.553 38.7679 125.916C35.0779 125.916 31.6157 125.916 28.108 125.916C28.108 126.644 28.108 127.282 28.108 127.874C28.108 144.502 28.1991 161.13 28.0624 177.758C28.0168 182.906 31.3424 185.32 35.5791 185.275C80.4968 185.183 125.415 185.183 170.378 185.275C174.751 185.275 178.031 182.769 177.94 177.758C177.758 166.87 177.849 156.028 177.895 145.14C177.895 143.227 178.851 142.133 180.4 142.088C181.995 142.042 182.997 143.09 182.997 144.958C182.997 156.438 183.042 167.963 182.951 179.443C182.906 184.044 179.808 188.099 175.435 189.648C174.842 189.83 174.296 190.103 173.704 190.286C126.554 190.286 79.4035 190.286 32.2535 190.286C24.4635 187.826 22.8235 182.678 22.9146 176.209C23.1424 160.037 23.0057 143.91 23.0057 127.738C23.0057 127.1 23.0057 126.417 23.0057 125.688C21.5479 125.688 20.3179 125.597 19.1335 125.688C17.4479 125.87 16.2179 125.369 15.3979 124.002ZM152.019 55.6234C151.154 55.6234 150.379 55.6234 149.65 55.6234C125.005 55.6234 100.359 55.6234 75.6679 55.6234C72.798 55.6234 71.4768 54.8034 71.4768 53.0267C71.4768 51.2501 72.7068 50.5212 75.7135 50.5212C100.359 50.5212 125.005 50.5212 149.696 50.5212C150.425 50.5212 151.154 50.5212 151.928 50.5212C151.928 46.2845 151.928 42.2301 151.928 38.1756C119.082 38.1756 86.4191 38.1756 53.7557 38.1756C53.7557 42.3212 53.7557 46.3301 53.7557 50.5212C56.6713 50.5212 59.4502 50.4756 62.2291 50.5212C63.5957 50.5667 64.4613 51.3412 64.5979 52.7534C64.7346 54.2112 64.0513 55.1678 62.5935 55.4867C62.0013 55.6234 61.3635 55.6234 60.7257 55.6234C58.4024 55.6234 56.0791 55.6234 53.7102 55.6234C53.7102 59.8145 53.7102 63.8234 53.7102 67.8778C86.5102 67.8778 119.219 67.8778 151.974 67.8778C152.019 63.8234 152.019 59.8145 152.019 55.6234ZM161.859 125.825C145.687 125.825 129.606 125.825 113.479 125.825C113.479 140.357 113.479 154.752 113.479 169.285C129.651 169.285 145.732 169.285 161.859 169.285C161.859 154.752 161.859 140.402 161.859 125.825ZM53.7102 102.956C86.5557 102.956 119.219 102.956 151.974 102.956C151.974 98.8101 151.974 94.8012 151.974 90.7012C119.174 90.7012 86.5102 90.7012 53.7102 90.7012C53.7102 94.8012 53.7102 98.8101 53.7102 102.956ZM53.7102 20.5456C53.7102 24.6912 53.7102 28.7001 53.7102 32.7545C86.5102 32.7545 119.219 32.7545 151.928 32.7545C151.928 28.6089 151.928 24.6456 151.928 20.5456C119.174 20.5456 86.5557 20.5456 53.7102 20.5456ZM152.019 73.2078C119.128 73.2078 86.4191 73.2078 53.7557 73.2078C53.7557 77.3534 53.7557 81.3623 53.7557 85.3256C86.5557 85.3256 119.265 85.3256 152.019 85.3256C152.019 81.2712 152.019 77.3078 152.019 73.2078ZM152.019 108.331C119.174 108.331 86.4646 108.331 53.7557 108.331C53.7557 112.477 53.7557 116.486 53.7557 120.494C86.5557 120.494 119.265 120.494 152.019 120.494C152.019 116.394 152.019 112.431 152.019 108.331ZM20.5913 38.0845C20.5913 42.2756 20.5913 46.2845 20.5913 50.3389C29.9302 50.3389 39.1324 50.3389 48.3802 50.3389C48.3802 46.1934 48.3802 42.1845 48.3802 38.0845C39.0868 38.0845 29.8846 38.0845 20.5913 38.0845ZM185.047 50.3845C185.047 46.1478 185.047 42.1389 185.047 38.13C175.708 38.13 166.506 38.13 157.304 38.13C157.304 42.2756 157.304 46.2845 157.304 50.3845C166.642 50.3845 175.799 50.3845 185.047 50.3845ZM48.3802 103.001C48.3802 98.8101 48.3802 94.8012 48.3802 90.7467C39.0413 90.7467 29.8391 90.7467 20.5913 90.7467C20.5913 94.8923 20.5913 98.9012 20.5913 103.001C29.8846 103.001 39.0413 103.001 48.3802 103.001ZM157.258 102.956C166.642 102.956 175.89 102.956 185.092 102.956C185.092 98.8101 185.092 94.8012 185.092 90.7467C175.754 90.7467 166.551 90.7467 157.258 90.7467C157.258 94.8467 157.258 98.8101 157.258 102.956ZM20.5913 20.5456C20.5913 24.6912 20.5913 28.7001 20.5913 32.7545C29.9302 32.7545 39.1324 32.7545 48.3802 32.7545C48.3802 28.6089 48.3802 24.6 48.3802 20.5456C39.0868 20.5456 29.9302 20.5456 20.5913 20.5456ZM185.047 32.8001C185.047 28.6545 185.047 24.6 185.047 20.5912C175.708 20.5912 166.506 20.5912 157.304 20.5912C157.304 24.6912 157.304 28.7 157.304 32.8001C166.597 32.8001 175.799 32.8001 185.047 32.8001ZM48.3346 67.9234C48.3346 63.8689 48.3346 59.8145 48.3346 55.7145C39.0413 55.7145 29.8391 55.7145 20.5913 55.7145C20.5913 59.8601 20.5913 63.8689 20.5913 67.9234C29.8846 67.9234 39.0413 67.9234 48.3346 67.9234ZM157.349 55.6689C157.349 59.86 157.349 63.8689 157.349 67.8778C166.688 67.8778 175.89 67.8778 185.092 67.8778C185.092 63.7778 185.092 59.7689 185.092 55.6689C175.799 55.6689 166.597 55.6689 157.349 55.6689ZM48.3802 85.4167C48.3802 81.3167 48.3802 77.2623 48.3802 73.2078C39.0413 73.2078 29.8391 73.2078 20.6368 73.2078C20.6368 77.3534 20.6368 81.3623 20.6368 85.4167C29.9302 85.4167 39.0868 85.4167 48.3802 85.4167ZM157.304 73.1623C157.304 77.3534 157.304 81.3623 157.304 85.4167C166.597 85.4167 175.799 85.4167 185.047 85.4167C185.047 81.2712 185.047 77.2167 185.047 73.1623C175.754 73.1623 166.597 73.1623 157.304 73.1623ZM48.3802 120.494C48.3802 116.303 48.3802 112.34 48.3802 108.331C39.0413 108.331 29.8391 108.331 20.5913 108.331C20.5913 112.477 20.5913 116.486 20.5913 120.494C29.9302 120.494 39.1324 120.494 48.3802 120.494ZM157.304 108.24C157.304 112.431 157.304 116.44 157.304 120.449C166.642 120.449 175.89 120.449 185.047 120.449C185.047 116.303 185.047 112.294 185.047 108.24C175.754 108.24 166.597 108.24 157.304 108.24Z" fill="#CEE3F4"/>
</g>
</svg>
