<svg width="205" height="155" viewBox="0 0 205 155" fill="none" xmlns="http://www.w3.org/2000/svg">
<mask id="mask0_403_155" style="mask-type:alpha" maskUnits="userSpaceOnUse" x="0" y="0" width="205" height="155">
<rect width="205" height="155" fill="#D9D9D9"/>
</mask>
<g mask="url(#mask0_403_155)">
<path d="M200.171 26.9698C200.171 30.6598 200.171 34.3498 200.171 38.0398C198.759 41.912 195.296 41.4109 192.199 41.502C192.199 74.8031 192.199 107.876 192.199 141.178C195.387 140.859 198.485 140.813 200.171 144.139C200.171 147.965 200.171 151.792 200.171 155.573C198.485 158.944 195.387 158.762 192.153 158.58C192.153 160.858 192.153 162.953 192.153 165.049C192.153 168.693 190.422 170.424 186.777 170.424C184.409 170.424 182.085 170.424 179.807 170.424C176.3 177.668 171.972 181.039 165.959 181.13C158.351 181.266 153.476 177.349 150.743 170.515C148.83 170.515 147.007 170.515 145.231 170.515C142.68 176.893 138.261 180.856 131.336 181.084C123.82 181.358 118.945 177.349 116.212 170.47C107.101 170.47 98.0352 170.47 88.9241 170.47C86.4186 176.893 81.9541 180.856 74.9386 181.084C67.4219 181.312 62.593 177.258 59.9052 170.515C57.9919 170.515 56.1697 170.515 54.3475 170.515C51.8419 176.893 47.3775 180.856 40.4986 181.084C32.9819 181.358 28.1075 177.349 25.3286 170.424C22.9597 170.424 20.5452 170.47 18.1308 170.424C14.7141 170.379 12.983 168.648 12.9375 165.231C12.9375 163.09 12.9375 160.949 12.9375 158.58C9.70301 158.762 6.55968 158.944 4.91968 155.573C4.91968 151.746 4.91968 147.92 4.91968 144.139C6.60523 140.676 9.88523 141.041 12.8919 141.041C12.8919 107.74 12.8919 74.6665 12.8919 41.4109C9.6119 41.5476 6.37746 41.8209 4.91968 38.0398C4.91968 34.3498 4.91968 30.6598 4.91968 26.9698C6.01301 25.1476 7.33412 23.872 9.70301 23.872C22.8686 23.9176 36.0341 23.872 49.1997 23.9176C51.3408 23.9176 52.5708 24.9198 52.6163 26.6509C52.6619 28.4731 51.3863 29.5665 49.1997 29.612C48.7441 29.612 48.2886 29.612 47.8786 29.612C36.1708 29.612 24.463 29.612 12.8008 29.612C12.1175 29.612 11.4341 29.612 10.6597 29.612C10.6597 31.4343 10.6597 33.0287 10.6597 34.5776C10.6597 34.8965 10.7052 35.1698 10.7508 35.5343C72.023 35.5343 133.25 35.5343 194.431 35.5343C194.431 33.5298 194.431 31.662 194.431 29.612C193.52 29.612 192.7 29.612 191.88 29.612C149.604 29.612 107.329 29.612 65.0075 29.612C64.3241 29.612 63.5952 29.6576 62.9119 29.5665C61.4086 29.3843 60.3152 28.1543 60.2697 26.742C60.2697 25.2387 61.4086 24.0087 63.003 23.872C63.5497 23.8265 64.1419 23.872 64.7341 23.872C107.921 23.872 151.062 23.872 194.249 23.8265C196.936 23.872 198.895 24.5554 200.171 26.9698ZM10.6597 152.885C17.903 152.885 24.9186 152.885 31.9797 152.84C32.5719 152.84 33.2097 152.566 33.7563 152.293C37.7652 150.562 41.7741 150.608 45.783 152.248C46.6486 152.612 47.6052 152.794 48.5163 152.84C54.2563 152.885 59.9508 152.885 65.6908 152.84C66.5563 152.84 67.4675 152.658 68.2419 152.293C72.3419 150.516 76.3508 150.608 80.4508 152.293C81.2252 152.612 82.1363 152.794 83.0019 152.794C95.9852 152.84 108.969 152.84 121.906 152.794C122.817 152.794 123.774 152.566 124.64 152.202C128.694 150.516 132.657 150.562 136.666 152.248C137.441 152.566 138.352 152.794 139.217 152.794C145.003 152.84 150.789 152.84 156.574 152.794C157.44 152.794 158.351 152.566 159.125 152.248C163.134 150.562 167.143 150.608 171.152 152.248C172.017 152.612 172.974 152.794 173.885 152.84C180.035 152.885 186.231 152.885 192.381 152.84C192.973 152.84 193.611 152.794 194.203 152.749C194.203 150.653 194.203 148.74 194.203 146.781C193.292 146.781 192.517 146.781 191.743 146.781C173.612 146.781 155.481 146.781 137.395 146.781C136.757 146.781 136.12 146.826 135.482 146.735C133.933 146.553 132.931 145.414 132.885 143.956C132.885 142.499 133.887 141.314 135.391 141.086C136.029 140.995 136.666 141.041 137.304 141.041C152.839 141.041 168.327 141.041 183.862 141.041C184.591 141.041 185.32 141.041 186.094 141.041C186.094 107.694 186.094 74.6209 186.094 41.502C130.197 41.502 74.483 41.502 18.6775 41.502C18.6775 74.712 18.6775 107.831 18.6775 141.041C19.5886 141.041 20.3175 141.041 21.0919 141.041C54.3475 141.041 87.603 141.041 120.859 141.041C121.542 141.041 122.271 140.995 122.954 141.086C124.457 141.36 125.414 142.635 125.277 144.093C125.186 145.46 124.184 146.553 122.726 146.69C122.089 146.735 121.451 146.735 120.813 146.735C84.8241 146.735 48.8352 146.735 12.8463 146.735C12.1175 146.735 11.343 146.735 10.523 146.735C10.6597 148.876 10.6597 150.744 10.6597 152.885ZM155.891 166.096C155.891 171.244 160.036 175.39 165.184 175.39C170.286 175.39 174.523 171.199 174.523 166.096C174.523 160.994 170.286 156.758 165.184 156.758C160.082 156.758 155.891 160.994 155.891 166.096ZM65.053 166.051C65.0075 171.244 69.1075 175.39 74.2552 175.435C79.403 175.481 83.5941 171.335 83.6852 166.188C83.7308 161.131 79.5397 156.803 74.4375 156.758C69.2897 156.712 65.0986 160.903 65.053 166.051ZM49.1086 166.279C49.1541 161.131 45.0997 156.894 39.9519 156.803C34.8952 156.712 30.5675 160.858 30.4763 166.005C30.3852 171.108 34.5763 175.39 39.6786 175.481C44.8263 175.481 49.0175 171.381 49.1086 166.279ZM139.946 166.096C139.946 160.949 135.755 156.758 130.653 156.758C125.551 156.758 121.314 161.04 121.314 166.096C121.314 171.199 125.551 175.39 130.653 175.39C135.846 175.39 139.946 171.244 139.946 166.096ZM117.305 158.762C107.42 158.762 97.5797 158.762 87.6941 158.762C88.3319 160.812 88.9697 162.725 89.5163 164.548C98.263 164.548 106.964 164.548 115.483 164.548C116.121 162.498 116.713 160.63 117.305 158.762ZM18.6775 164.593C20.7275 164.593 22.6408 164.593 24.5997 164.593C25.2375 162.634 25.8297 160.675 26.4219 158.762C23.8252 158.762 21.2286 158.762 18.6775 158.762C18.6775 160.766 18.6775 162.634 18.6775 164.593ZM178.532 158.671C179.17 160.721 179.762 162.589 180.4 164.502C182.359 164.502 184.363 164.502 186.322 164.502C186.322 162.498 186.322 160.63 186.322 158.671C183.68 158.671 181.174 158.671 178.532 158.671ZM60.953 158.762C58.3108 158.762 55.7141 158.762 53.1175 158.762C53.7552 160.766 54.3475 162.68 54.9852 164.639C56.3975 164.639 57.7641 164.639 59.1308 164.639C59.7686 162.589 60.3608 160.675 60.953 158.762ZM150.014 164.593C150.652 162.543 151.244 160.63 151.882 158.671C149.24 158.671 146.643 158.671 144.046 158.671C144.684 160.675 145.276 162.589 145.914 164.593C147.144 164.593 148.556 164.593 150.014 164.593Z" fill="#CEE3F4"/>
<path d="M28.7904 91.3392C28.7904 78.1281 28.7904 64.917 28.7904 51.6604C28.7904 50.977 28.7449 50.2481 28.836 49.5648C29.0182 48.2892 29.9749 47.3781 31.2049 47.1959C32.5716 47.0137 33.8016 47.6515 34.2116 48.9726C34.4393 49.6103 34.4849 50.3392 34.4849 51.0226C34.4849 77.8548 34.4849 104.687 34.4849 131.519C34.4849 132.157 34.4393 132.795 34.2571 133.387C33.8471 134.708 32.6627 135.437 31.3416 135.346C30.0204 135.209 28.9727 134.253 28.836 132.886C28.7449 132.248 28.7904 131.61 28.7904 130.973C28.7904 117.761 28.7904 104.55 28.7904 91.3392Z" fill="#CEE3F4"/>
<path d="M65.9637 91.2019C65.9637 104.413 65.9637 117.624 65.9637 130.881C65.9637 131.519 66.0093 132.156 65.9182 132.794C65.736 134.252 64.6882 135.254 63.3215 135.345C62.0004 135.436 60.816 134.662 60.4515 133.295C60.2693 132.703 60.2693 132.065 60.2693 131.428C60.2693 104.686 60.2693 77.8997 60.2693 51.1586C60.2693 50.7031 60.2693 50.2475 60.3148 49.8375C60.5426 48.1519 61.7271 47.1497 63.2759 47.1953C64.8248 47.2408 65.8726 48.3342 66.0093 50.0197C66.0548 50.6119 66.0093 51.1586 66.0093 51.7508C65.9637 64.9164 65.9637 78.0819 65.9637 91.2019Z" fill="#CEE3F4"/>
<path d="M139.034 91.1114C139.034 77.9458 139.034 64.7803 139.034 51.6147C139.034 50.9314 138.989 50.2025 139.08 49.5191C139.262 48.2436 140.219 47.3325 141.449 47.1503C142.815 46.968 144 47.6514 144.455 48.9269C144.683 49.5647 144.729 50.2936 144.729 50.9769C144.729 77.8091 144.729 104.641 144.729 131.474C144.729 132.111 144.683 132.749 144.501 133.341C144.091 134.662 142.907 135.391 141.585 135.3C140.264 135.164 139.262 134.207 139.08 132.84C138.989 132.202 139.034 131.565 139.034 130.927C139.034 117.716 139.034 104.414 139.034 91.1114Z" fill="#CEE3F4"/>
<path d="M176.208 91.2938C176.208 104.505 176.208 117.716 176.208 130.973C176.208 131.61 176.254 132.248 176.163 132.886C175.98 134.253 174.978 135.255 173.703 135.392C172.29 135.528 171.06 134.708 170.696 133.296C170.514 132.704 170.514 132.02 170.514 131.428C170.514 104.687 170.514 77.9005 170.514 51.1593C170.514 50.5216 170.559 49.8838 170.696 49.2916C171.106 47.8793 172.29 47.1049 173.748 47.2871C175.069 47.4238 176.026 48.426 176.208 49.7927C176.299 50.4305 176.254 51.0682 176.254 51.706C176.208 64.826 176.208 78.0371 176.208 91.2938Z" fill="#CEE3F4"/>
<path d="M76.0315 91.0658C76.0315 77.9002 76.0315 64.7347 76.0315 51.6147C76.0315 50.9314 76.0315 50.2025 76.1226 49.5191C76.3504 48.1525 77.3981 47.2414 78.7192 47.1958C80.0859 47.1502 81.2248 47.8791 81.5437 49.2458C81.7259 49.9291 81.7259 50.6125 81.7259 51.3414C81.7259 77.9914 81.7259 104.596 81.7259 131.246C81.7259 131.929 81.6803 132.658 81.5437 133.341C81.2248 134.662 80.0403 135.482 78.7192 135.437C77.3981 135.391 76.3048 134.48 76.1226 133.114C75.9859 132.385 76.0315 131.61 76.0315 130.836C76.0315 117.534 76.0315 104.277 76.0315 91.0658Z" fill="#CEE3F4"/>
<path d="M91.7941 91.0659C91.7941 77.9004 91.7941 64.7348 91.7941 51.5693C91.7941 50.9771 91.7485 50.4304 91.7941 49.8382C91.9307 48.2893 92.9785 47.1959 94.4363 47.1504C95.9396 47.0593 97.1241 48.0159 97.3974 49.5193C97.4885 50.0659 97.4429 50.6582 97.4429 51.2504C97.4429 77.9004 97.4429 104.505 97.4429 131.155C97.4429 131.838 97.4429 132.567 97.2607 133.25C96.8963 134.663 95.6207 135.483 94.2085 135.3C92.9329 135.164 91.8852 134.161 91.7029 132.795C91.6118 132.157 91.6574 131.519 91.6574 130.881C91.7941 117.67 91.7941 104.368 91.7941 91.0659Z" fill="#CEE3F4"/>
<path d="M113.205 91.3389C113.205 104.687 113.205 118.034 113.205 131.382C113.205 134.024 112.294 135.3 110.426 135.346C108.513 135.391 107.465 134.024 107.465 131.337C107.465 104.641 107.465 77.9455 107.465 51.25C107.465 50.6122 107.465 49.9744 107.602 49.3366C107.921 47.9244 109.151 47.1044 110.563 47.1955C111.975 47.2866 113.023 48.2889 113.16 49.7466C113.205 50.3844 113.205 51.0222 113.205 51.66C113.205 64.8711 113.205 78.0822 113.205 91.3389Z" fill="#CEE3F4"/>
<path d="M128.967 91.4303C128.967 104.505 128.967 117.625 128.967 130.699C128.967 131.383 128.967 132.111 128.921 132.795C128.739 134.298 127.692 135.255 126.279 135.346C124.822 135.437 123.637 134.48 123.318 132.931C123.227 132.385 123.227 131.793 123.227 131.246C123.227 104.596 123.227 77.9914 123.227 51.3414C123.227 50.6581 123.227 49.9292 123.409 49.2459C123.728 47.8792 124.867 47.1048 126.234 47.1959C127.6 47.2414 128.648 48.107 128.876 49.4737C129.013 50.2026 128.967 50.977 128.967 51.7514C128.967 64.9626 128.967 78.2192 128.967 91.4303Z" fill="#CEE3F4"/>
<path d="M50.2472 91.2473C50.2472 104.458 50.2472 117.715 50.2472 130.926C50.2472 131.427 50.2927 131.928 50.2472 132.43C50.1105 134.206 48.926 135.345 47.3316 135.3C45.8283 135.254 44.6894 134.115 44.5527 132.475C44.5072 132.02 44.5527 131.564 44.5527 131.154C44.5527 104.504 44.5527 77.8995 44.5527 51.2495C44.5527 50.7484 44.5072 50.2473 44.5983 49.7462C44.7805 48.1973 45.9194 47.1951 47.3772 47.1495C48.8349 47.1495 50.0194 48.1518 50.2472 49.6551C50.3383 50.2018 50.2927 50.794 50.2927 51.3862C50.2472 64.6884 50.2472 77.9906 50.2472 91.2473Z" fill="#CEE3F4"/>
<path d="M160.492 91.2934C160.492 104.641 160.492 117.989 160.492 131.337C160.492 134.024 159.49 135.391 157.576 135.346C155.708 135.3 154.797 133.979 154.797 131.382C154.797 104.596 154.797 77.8545 154.797 51.0678C154.797 50.5667 154.752 50.0201 154.843 49.5645C155.071 48.1523 156.255 47.1956 157.622 47.1956C159.034 47.1956 160.218 48.1067 160.446 49.519C160.537 50.1567 160.492 50.7945 160.492 51.4323C160.492 64.689 160.492 77.9912 160.492 91.2934Z" fill="#CEE3F4"/>
</g>
</svg>
