<svg width="23" height="23" viewBox="0 0 23 23" fill="none" xmlns="http://www.w3.org/2000/svg">
<path fill-rule="evenodd" clip-rule="evenodd" d="M11.2859 20.6883C16.4795 20.6883 20.6898 16.478 20.6898 11.2843C20.6898 6.09066 16.4795 1.8804 11.2859 1.8804C6.09224 1.8804 1.88196 6.09066 1.88196 11.2843C1.88196 16.478 6.09224 20.6883 11.2859 20.6883ZM11.2859 16.2998C14.0558 16.2998 16.3013 14.0543 16.3013 11.2843C16.3013 8.51439 14.0558 6.2689 11.2859 6.2689C8.51595 6.2689 6.27046 8.51439 6.27046 11.2843C6.27046 14.0543 8.51595 16.2998 11.2859 16.2998Z" fill="#008CFF"/>
<path opacity="0.2" fill-rule="evenodd" clip-rule="evenodd" d="M22.5694 11.2847C22.5694 17.5171 17.5171 22.5694 11.2847 22.5694C5.05234 22.5694 0 17.5171 0 11.2847C0 5.05236 5.05234 0 11.2847 0C17.5171 0 22.5694 5.05236 22.5694 11.2847ZM20.6887 11.2847C20.6887 16.4784 16.4784 20.6887 11.2847 20.6887C6.09107 20.6887 1.88079 16.4784 1.88079 11.2847C1.88079 6.09105 6.09107 1.88079 11.2847 1.88079C16.4784 1.88079 20.6887 6.09105 20.6887 11.2847Z" fill="#008CFF"/>
<circle cx="11.2839" cy="11.2847" r="7.52315" fill="white"/>
<path d="M12.5579 15.8852C13.1393 15.8852 13.5637 15.548 13.5637 14.8678V14.3213H13.8892C14.4473 14.3213 14.738 13.9783 14.738 13.4958C14.738 13.0132 14.4532 12.6644 13.8892 12.6644H13.5637V8.72852C13.5637 7.81577 12.8718 7.22859 11.8021 7.22859C10.9591 7.22859 10.465 7.56579 9.81964 8.56574C9.04642 9.73429 8.37785 10.7924 7.81973 11.7982C7.52323 12.3214 7.39533 12.7225 7.39533 13.1295C7.39533 13.8388 7.91856 14.3213 8.68597 14.3213H11.5463V14.8678C11.5463 15.548 11.9707 15.8852 12.5579 15.8852ZM11.6044 12.74H9.18013V12.6818C9.86034 11.3738 10.5522 10.2982 11.5637 8.83317H11.6044V12.74Z" fill="#008CFF"/>
</svg>
