<svg width="23" height="23" viewBox="0 0 23 23" fill="none" xmlns="http://www.w3.org/2000/svg">
<path fill-rule="evenodd" clip-rule="evenodd" d="M11.2859 20.6883C16.4795 20.6883 20.6898 16.478 20.6898 11.2843C20.6898 6.09066 16.4795 1.88039 11.2859 1.88039C6.09224 1.88039 1.88196 6.09066 1.88196 11.2843C1.88196 16.478 6.09224 20.6883 11.2859 20.6883ZM11.2859 16.2998C14.0558 16.2998 16.3013 14.0543 16.3013 11.2843C16.3013 8.51438 14.0558 6.2689 11.2859 6.2689C8.51595 6.2689 6.27046 8.51438 6.27046 11.2843C6.27046 14.0543 8.51595 16.2998 11.2859 16.2998Z" fill="#008CFF"/>
<path opacity="0.2" fill-rule="evenodd" clip-rule="evenodd" d="M22.5694 11.2847C22.5694 17.5171 17.5171 22.5694 11.2847 22.5694C5.05234 22.5694 0 17.5171 0 11.2847C0 5.05236 5.05234 0 11.2847 0C17.5171 0 22.5694 5.05236 22.5694 11.2847ZM20.6887 11.2847C20.6887 16.4784 16.4784 20.6887 11.2847 20.6887C6.09107 20.6887 1.88079 16.4784 1.88079 11.2847C1.88079 6.09105 6.09107 1.88079 11.2847 1.88079C16.4784 1.88079 20.6887 6.09105 20.6887 11.2847Z" fill="#008CFF"/>
<circle cx="11.2839" cy="11.2847" r="7.52315" fill="white"/>
<path d="M9.06407 15.7515H13.715C14.2557 15.7515 14.5696 15.4201 14.5696 14.9317C14.5696 14.4318 14.2557 14.112 13.715 14.112H10.814V14.0713L12.4825 12.5481C13.8139 11.3447 14.3603 10.7284 14.3603 9.6529C14.3603 8.17041 13.1046 7.15301 11.1919 7.15301C9.66288 7.15301 8.54665 7.89135 8.18038 8.85643C8.11643 9.00758 8.09318 9.15874 8.09318 9.32152C8.09318 9.84475 8.42456 10.1645 8.97686 10.1645C9.40707 10.1645 9.65706 9.99591 9.92449 9.58314C10.2326 9.02502 10.6105 8.75759 11.1628 8.75759C11.8314 8.75759 12.2965 9.18781 12.2965 9.79243C12.2965 10.3389 12.029 10.7226 11.0465 11.6179L8.65129 13.7923C8.23271 14.1527 8.06411 14.4376 8.06411 14.8387C8.06411 15.3678 8.37805 15.7515 9.06407 15.7515Z" fill="#008CFF"/>
</svg>
