<svg width="23" height="23" viewBox="0 0 23 23" fill="none" xmlns="http://www.w3.org/2000/svg">
<path fill-rule="evenodd" clip-rule="evenodd" d="M11.2859 20.6883C16.4795 20.6883 20.6898 16.478 20.6898 11.2843C20.6898 6.09066 16.4795 1.8804 11.2859 1.8804C6.09224 1.8804 1.88196 6.09066 1.88196 11.2843C1.88196 16.478 6.09224 20.6883 11.2859 20.6883ZM11.2859 16.2998C14.0558 16.2998 16.3013 14.0543 16.3013 11.2843C16.3013 8.51439 14.0558 6.2689 11.2859 6.2689C8.51595 6.2689 6.27046 8.51439 6.27046 11.2843C6.27046 14.0543 8.51595 16.2998 11.2859 16.2998Z" fill="#008CFF"/>
<path opacity="0.2" fill-rule="evenodd" clip-rule="evenodd" d="M22.5694 11.2847C22.5694 17.5171 17.5171 22.5694 11.2847 22.5694C5.05234 22.5694 0 17.5171 0 11.2847C0 5.05236 5.05234 0 11.2847 0C17.5171 0 22.5694 5.05236 22.5694 11.2847ZM20.6887 11.2847C20.6887 16.4784 16.4784 20.6887 11.2847 20.6887C6.09107 20.6887 1.88079 16.4784 1.88079 11.2847C1.88079 6.09105 6.09107 1.88079 11.2847 1.88079C16.4784 1.88079 20.6887 6.09105 20.6887 11.2847Z" fill="#008CFF"/>
<circle cx="11.2839" cy="11.2847" r="7.52315" fill="white"/>
<path d="M11.5165 15.7093C13.4641 15.7093 14.8884 14.4535 14.8884 12.6745C14.8884 11.1048 13.8129 9.96536 12.1792 9.96536C11.0456 9.96536 10.2433 10.5177 9.92353 11.3025H9.88284V11.2095C9.87121 9.63398 10.3828 8.5352 11.4816 8.5352C11.9874 8.5352 12.342 8.70379 12.7141 9.10494C13.0106 9.40144 13.249 9.57585 13.6676 9.57585C14.2257 9.57585 14.5338 9.20958 14.5338 8.75612C14.5338 8.59915 14.4989 8.4538 14.4291 8.29683C14.0745 7.52943 13.0397 6.89573 11.4816 6.89573C9.23752 6.89573 7.84223 8.58171 7.84223 11.3374C7.84223 12.349 8.0399 13.221 8.38872 13.8722C9.05148 15.1221 10.1386 15.7093 11.5165 15.7093ZM11.4874 14.0698C10.7316 14.0698 10.1445 13.4943 10.1445 12.7385C10.1445 11.9885 10.7316 11.4595 11.5049 11.4595C12.2606 11.4595 12.8362 12.0002 12.8304 12.7676C12.8246 13.5001 12.2374 14.0698 11.4874 14.0698Z" fill="#008CFF"/>
</svg>
