<svg width="23" height="23" viewBox="0 0 23 23" fill="none" xmlns="http://www.w3.org/2000/svg">
<path fill-rule="evenodd" clip-rule="evenodd" d="M11.2859 20.6883C16.4795 20.6883 20.6898 16.478 20.6898 11.2843C20.6898 6.09066 16.4795 1.88039 11.2859 1.88039C6.09224 1.88039 1.88196 6.09066 1.88196 11.2843C1.88196 16.478 6.09224 20.6883 11.2859 20.6883ZM11.2859 16.2998C14.0558 16.2998 16.3013 14.0543 16.3013 11.2843C16.3013 8.51438 14.0558 6.2689 11.2859 6.2689C8.51595 6.2689 6.27046 8.51438 6.27046 11.2843C6.27046 14.0543 8.51595 16.2998 11.2859 16.2998Z" fill="#008CFF"/>
<path opacity="0.2" fill-rule="evenodd" clip-rule="evenodd" d="M22.5694 11.2847C22.5694 17.5171 17.5171 22.5694 11.2847 22.5694C5.05234 22.5694 0 17.5171 0 11.2847C0 5.05236 5.05234 0 11.2847 0C17.5171 0 22.5694 5.05236 22.5694 11.2847ZM20.6887 11.2847C20.6887 16.4784 16.4784 20.6887 11.2847 20.6887C6.09107 20.6887 1.88079 16.4784 1.88079 11.2847C1.88079 6.09105 6.09107 1.88079 11.2847 1.88079C16.4784 1.88079 20.6887 6.09105 20.6887 11.2847Z" fill="#008CFF"/>
<circle cx="11.2839" cy="11.2847" r="7.52315" fill="white"/>
<path d="M11.4709 15.9608C13.465 15.9608 14.8487 14.7457 14.8487 12.9028C14.8487 11.3098 13.7092 10.1936 12.1221 10.1936C11.2442 10.1936 10.564 10.5598 10.2384 11.1121H10.1977L10.3605 9.00177H13.5697C14.0813 9.00177 14.4068 8.68201 14.4068 8.18204C14.4068 7.68206 14.0755 7.36231 13.5697 7.36231H9.79659C9.08151 7.36231 8.66292 7.68206 8.60478 8.44947L8.38386 11.397C8.38386 11.4086 8.38386 11.4145 8.38386 11.4261C8.34898 11.99 8.66873 12.4784 9.37219 12.4784C9.83729 12.4784 10.0524 12.3737 10.378 12.0888C10.6454 11.8505 11.0117 11.6412 11.4709 11.6412C12.2732 11.6412 12.8372 12.1819 12.8372 12.9493C12.8372 13.7341 12.25 14.3155 11.4535 14.3155C10.7791 14.3155 10.3721 13.9957 10.0466 13.5074C9.79078 13.1876 9.53498 13.0539 9.13383 13.0539C8.59316 13.0539 8.2734 13.3679 8.2734 13.8911C8.2734 14.0946 8.32573 14.2922 8.41875 14.4783C8.84896 15.3329 10.0815 15.9608 11.4709 15.9608Z" fill="#008CFF"/>
</svg>
