<svg width="23" height="23" viewBox="0 0 23 23" fill="none" xmlns="http://www.w3.org/2000/svg">
<path fill-rule="evenodd" clip-rule="evenodd" d="M11.2859 20.6883C16.4795 20.6883 20.6898 16.478 20.6898 11.2843C20.6898 6.09066 16.4795 1.88039 11.2859 1.88039C6.09224 1.88039 1.88196 6.09066 1.88196 11.2843C1.88196 16.478 6.09224 20.6883 11.2859 20.6883ZM11.2859 16.2998C14.0558 16.2998 16.3013 14.0543 16.3013 11.2843C16.3013 8.51439 14.0558 6.2689 11.2859 6.2689C8.51595 6.2689 6.27046 8.51439 6.27046 11.2843C6.27046 14.0543 8.51595 16.2998 11.2859 16.2998Z" fill="#008CFF"/>
<path opacity="0.2" fill-rule="evenodd" clip-rule="evenodd" d="M22.5694 11.2847C22.5694 17.5171 17.5171 22.5694 11.2847 22.5694C5.05234 22.5694 0 17.5171 0 11.2847C0 5.05236 5.05234 0 11.2847 0C17.5171 0 22.5694 5.05236 22.5694 11.2847ZM20.6887 11.2847C20.6887 16.4784 16.4784 20.6887 11.2847 20.6887C6.09107 20.6887 1.88079 16.4784 1.88079 11.2847C1.88079 6.09105 6.09107 1.88079 11.2847 1.88079C16.4784 1.88079 20.6887 6.09105 20.6887 11.2847Z" fill="#008CFF"/>
<circle cx="11.2839" cy="11.2847" r="7.52315" fill="white"/>
<path d="M10.8138 15.9608C12.9183 15.9608 14.2729 14.9492 14.2729 13.3795C14.2729 12.2458 13.4706 11.5307 12.2033 11.4028V11.3621C13.1625 11.1703 13.9415 10.4843 13.9415 9.40873C13.9415 7.98437 12.6277 7.15301 10.8022 7.15301C9.15107 7.15301 8.16274 7.94368 7.83136 8.75759C7.75578 8.93782 7.72671 9.08316 7.72671 9.26338C7.72671 9.75173 8.02321 10.1006 8.60458 10.1006C9.07549 10.1006 9.33129 9.93196 9.56965 9.4843C9.82545 8.98433 10.215 8.74015 10.8138 8.74015C11.5405 8.74015 11.9591 9.11804 11.9591 9.71104C11.9591 10.3215 11.4591 10.7226 10.6394 10.7226H10.4475C9.94173 10.7226 9.6743 11.0191 9.6743 11.4435C9.6743 11.8795 9.94173 12.1702 10.4475 12.1702H10.651C11.5812 12.1702 12.1044 12.5481 12.1044 13.2516C12.1044 13.8562 11.5928 14.2864 10.8603 14.2864C10.0638 14.2864 9.68593 13.9783 9.3778 13.4551C9.16851 13.1179 8.90689 12.9725 8.49993 12.9725C7.91856 12.9725 7.56393 13.3097 7.56393 13.8446C7.56393 13.9957 7.59881 14.1701 7.66857 14.3329C8.00577 15.1468 9.02898 15.9608 10.8138 15.9608Z" fill="#008CFF"/>
</svg>
