<svg width="23" height="23" viewBox="0 0 23 23" fill="none" xmlns="http://www.w3.org/2000/svg">
<path fill-rule="evenodd" clip-rule="evenodd" d="M11.2859 20.6883C16.4795 20.6883 20.6898 16.478 20.6898 11.2843C20.6898 6.09066 16.4795 1.88039 11.2859 1.88039C6.09224 1.88039 1.88196 6.09066 1.88196 11.2843C1.88196 16.478 6.09224 20.6883 11.2859 20.6883ZM11.2859 16.2998C14.0558 16.2998 16.3013 14.0543 16.3013 11.2843C16.3013 8.51438 14.0558 6.2689 11.2859 6.2689C8.51595 6.2689 6.27046 8.51438 6.27046 11.2843C6.27046 14.0543 8.51595 16.2998 11.2859 16.2998Z" fill="#008CFF"/>
<path opacity="0.2" fill-rule="evenodd" clip-rule="evenodd" d="M22.5694 11.2847C22.5694 17.5171 17.5171 22.5694 11.2847 22.5694C5.05234 22.5694 0 17.5171 0 11.2847C0 5.05236 5.05234 0 11.2847 0C17.5171 0 22.5694 5.05236 22.5694 11.2847ZM20.6887 11.2847C20.6887 16.4784 16.4784 20.6887 11.2847 20.6887C6.09107 20.6887 1.88079 16.4784 1.88079 11.2847C1.88079 6.09105 6.09107 1.88079 11.2847 1.88079C16.4784 1.88079 20.6887 6.09105 20.6887 11.2847Z" fill="#008CFF"/>
<circle cx="11.2839" cy="11.2847" r="7.52315" fill="white"/>
<path d="M11.6801 15.8852C12.3138 15.8852 12.7382 15.4724 12.7382 14.8329V8.4204C12.7382 7.68787 12.2905 7.22859 11.5231 7.22859C11.1045 7.22859 10.7441 7.2751 10.2964 7.57741L8.70927 8.65876C8.40696 8.86805 8.28487 9.10641 8.28487 9.41454C8.28487 9.84475 8.593 10.1529 9.00577 10.1529C9.20925 10.1529 9.33715 10.1064 9.529 9.97265L10.5755 9.24594H10.6162V14.8329C10.6162 15.4724 11.0464 15.8852 11.6801 15.8852Z" fill="#008CFF"/>
</svg>
