<svg width="75" height="75" viewBox="0 0 75 75" fill="none" xmlns="http://www.w3.org/2000/svg">
<path d="M5.6333 45.3667C5.6333 32.1167 5.6333 18.8834 5.6333 5.63336C26.95 5.63336 48.2666 5.63336 69.6333 5.63336C69.6333 18.8667 69.6333 32.1167 69.6333 45.3667C68.95 46.4334 67.8333 45.7667 66.9 46.0667C66.9 46.8 66.9 47.55 66.9 48.3C66.9 49.0334 66.5333 49.45 65.9666 49.45C65.4 49.4334 65.05 49 65.0333 48.2834C65.0333 47.5334 65.0333 46.8 65.0333 46.0334C63.7 46.0334 62.45 46.0334 61.1333 46.0334C61.1333 46.3167 61.1333 46.5667 61.1333 46.8C61.1333 51.9834 61.1333 57.1667 61.1333 62.3667C61.1333 63.5834 60.8666 63.85 59.6833 63.85C53.4833 63.85 47.2666 63.85 41.0666 63.85C39.8833 63.85 39.6333 63.6 39.6333 62.4334C39.6333 57.2334 39.6333 52.0167 39.6333 46.8167C39.6333 46.5667 39.6333 46.3334 39.6333 46.0667C38.2833 46.0667 37.0166 46.0667 35.7 46.0667C35.7 46.3667 35.7 46.6 35.7 46.85C35.7 52.0834 35.7 57.3 35.7 62.5334C35.7 63.5834 35.4166 63.8667 34.3666 63.8667C30.75 63.8667 27.1166 63.8667 23.5 63.8667C23.2666 63.8667 23.0333 63.85 22.8166 63.7834C22.3666 63.65 22.1333 63.3 22.1833 62.8334C22.2333 62.3667 22.5 62.0667 22.9833 62.0167C23.1833 61.9834 23.4 62 23.6 62C26.75 62 29.8833 62 33.0333 62C33.2833 62 33.5166 62 33.7833 62C33.7833 56.6334 33.7833 51.3667 33.7833 46.0667C27.8666 46.0667 21.9833 46.0667 16.1 46.0667C16.1 51.3834 16.1 56.6667 16.1 62C16.9333 62 17.7166 61.9834 18.5166 62.0167C18.7833 62.0334 19.1666 62.0834 19.3166 62.25C19.5166 62.4834 19.6333 62.8834 19.5833 63.1834C19.5166 63.65 19.1 63.85 18.65 63.85C17.6333 63.8667 16.6166 63.8667 15.5833 63.8667C14.45 63.8667 14.1833 63.5834 14.1833 62.4667C14.1833 57.2334 14.1833 52.0167 14.1833 46.7834C14.1833 46.55 14.1833 46.3 14.1833 46.0667C12.8333 46.0667 11.5666 46.0667 10.2833 46.0667C10.2833 46.3334 10.2833 46.5667 10.2833 46.7834C10.2833 52.8667 10.3166 58.95 10.2666 65.0334C10.25 66.9167 11.4666 67.8 13.0166 67.7834C29.45 67.75 45.8833 67.75 62.3333 67.7834C63.9333 67.7834 65.1333 66.8667 65.1 65.0334C65.0333 61.05 65.0666 57.0834 65.0833 53.1C65.0833 52.4 65.4333 52 66 51.9834C66.5833 51.9667 66.95 52.35 66.95 53.0334C66.95 57.2334 66.9666 61.45 66.9333 65.65C66.9166 67.3334 65.7833 68.8167 64.1833 69.3834C63.9666 69.45 63.7666 69.55 63.55 69.6167C46.3 69.6167 29.05 69.6167 11.8 69.6167C8.94997 68.7167 8.34997 66.8334 8.3833 64.4667C8.46663 58.55 8.41663 52.65 8.41663 46.7334C8.41663 46.5 8.41663 46.25 8.41663 45.9834C7.8833 45.9834 7.4333 45.95 6.99997 45.9834C6.3833 46.05 5.9333 45.8667 5.6333 45.3667ZM55.6166 20.35C55.3 20.35 55.0166 20.35 54.75 20.35C45.7333 20.35 36.7166 20.35 27.6833 20.35C26.6333 20.35 26.15 20.05 26.15 19.4C26.15 18.75 26.6 18.4834 27.7 18.4834C36.7166 18.4834 45.7333 18.4834 54.7666 18.4834C55.0333 18.4834 55.3 18.4834 55.5833 18.4834C55.5833 16.9334 55.5833 15.45 55.5833 13.9667C43.5666 13.9667 31.6166 13.9667 19.6666 13.9667C19.6666 15.4834 19.6666 16.95 19.6666 18.4834C20.7333 18.4834 21.75 18.4667 22.7666 18.4834C23.2666 18.5 23.5833 18.7834 23.6333 19.3C23.6833 19.8334 23.4333 20.1834 22.9 20.3C22.6833 20.35 22.45 20.35 22.2166 20.35C21.3666 20.35 20.5166 20.35 19.65 20.35C19.65 21.8834 19.65 23.35 19.65 24.8334C31.65 24.8334 43.6166 24.8334 55.6 24.8334C55.6166 23.35 55.6166 21.8834 55.6166 20.35ZM59.2166 46.0334C53.3 46.0334 47.4166 46.0334 41.5166 46.0334C41.5166 51.35 41.5166 56.6167 41.5166 61.9334C47.4333 61.9334 53.3166 61.9334 59.2166 61.9334C59.2166 56.6167 59.2166 51.3667 59.2166 46.0334ZM19.65 37.6667C31.6666 37.6667 43.6166 37.6667 55.6 37.6667C55.6 36.15 55.6 34.6834 55.6 33.1834C43.6 33.1834 31.65 33.1834 19.65 33.1834C19.65 34.6834 19.65 36.15 19.65 37.6667ZM19.65 7.5167C19.65 9.03336 19.65 10.5 19.65 11.9834C31.65 11.9834 43.6166 11.9834 55.5833 11.9834C55.5833 10.4667 55.5833 9.0167 55.5833 7.5167C43.6 7.5167 31.6666 7.5167 19.65 7.5167ZM55.6166 26.7834C43.5833 26.7834 31.6166 26.7834 19.6666 26.7834C19.6666 28.3 19.6666 29.7667 19.6666 31.2167C31.6666 31.2167 43.6333 31.2167 55.6166 31.2167C55.6166 29.7334 55.6166 28.2834 55.6166 26.7834ZM55.6166 39.6334C43.6 39.6334 31.6333 39.6334 19.6666 39.6334C19.6666 41.15 19.6666 42.6167 19.6666 44.0834C31.6666 44.0834 43.6333 44.0834 55.6166 44.0834C55.6166 42.5834 55.6166 41.1334 55.6166 39.6334ZM7.5333 13.9334C7.5333 15.4667 7.5333 16.9334 7.5333 18.4167C10.95 18.4167 14.3166 18.4167 17.7 18.4167C17.7 16.9 17.7 15.4334 17.7 13.9334C14.3 13.9334 10.9333 13.9334 7.5333 13.9334ZM67.7 18.4334C67.7 16.8834 67.7 15.4167 67.7 13.95C64.2833 13.95 60.9166 13.95 57.55 13.95C57.55 15.4667 57.55 16.9334 57.55 18.4334C60.9666 18.4334 64.3166 18.4334 67.7 18.4334ZM17.7 37.6834C17.7 36.15 17.7 34.6834 17.7 33.2C14.2833 33.2 10.9166 33.2 7.5333 33.2C7.5333 34.7167 7.5333 36.1834 7.5333 37.6834C10.9333 37.6834 14.2833 37.6834 17.7 37.6834ZM57.5333 37.6667C60.9666 37.6667 64.35 37.6667 67.7166 37.6667C67.7166 36.15 67.7166 34.6834 67.7166 33.2C64.3 33.2 60.9333 33.2 57.5333 33.2C57.5333 34.7 57.5333 36.15 57.5333 37.6667ZM7.5333 7.5167C7.5333 9.03336 7.5333 10.5 7.5333 11.9834C10.95 11.9834 14.3166 11.9834 17.7 11.9834C17.7 10.4667 17.7 9.00003 17.7 7.5167C14.3 7.5167 10.95 7.5167 7.5333 7.5167ZM67.7 12C67.7 10.4834 67.7 9.00003 67.7 7.53336C64.2833 7.53336 60.9166 7.53336 57.55 7.53336C57.55 9.03336 57.55 10.5 57.55 12C60.95 12 64.3166 12 67.7 12ZM17.6833 24.85C17.6833 23.3667 17.6833 21.8834 17.6833 20.3834C14.2833 20.3834 10.9166 20.3834 7.5333 20.3834C7.5333 21.9 7.5333 23.3667 7.5333 24.85C10.9333 24.85 14.2833 24.85 17.6833 24.85ZM57.5666 20.3667C57.5666 21.9 57.5666 23.3667 57.5666 24.8334C60.9833 24.8334 64.35 24.8334 67.7166 24.8334C67.7166 23.3334 67.7166 21.8667 67.7166 20.3667C64.3166 20.3667 60.95 20.3667 57.5666 20.3667ZM17.7 31.25C17.7 29.75 17.7 28.2667 17.7 26.7834C14.2833 26.7834 10.9166 26.7834 7.54997 26.7834C7.54997 28.3 7.54997 29.7667 7.54997 31.25C10.95 31.25 14.3 31.25 17.7 31.25ZM57.55 26.7667C57.55 28.3 57.55 29.7667 57.55 31.25C60.95 31.25 64.3166 31.25 67.7 31.25C67.7 29.7334 67.7 28.25 67.7 26.7667C64.3 26.7667 60.95 26.7667 57.55 26.7667ZM17.7 44.0834C17.7 42.55 17.7 41.1 17.7 39.6334C14.2833 39.6334 10.9166 39.6334 7.5333 39.6334C7.5333 41.15 7.5333 42.6167 7.5333 44.0834C10.95 44.0834 14.3166 44.0834 17.7 44.0834ZM57.55 39.6C57.55 41.1334 57.55 42.6 57.55 44.0667C60.9666 44.0667 64.35 44.0667 67.7 44.0667C67.7 42.55 67.7 41.0834 67.7 39.6C64.3 39.6 60.95 39.6 57.55 39.6Z" fill="#008CFF"/>
</svg>
