<svg width="20" height="21" viewBox="0 0 20 21" fill="none" xmlns="http://www.w3.org/2000/svg">
<g clip-path="url(#clip0_261_547)">
<path d="M15.3888 10.351C15.3888 10.7469 15.3888 11.1428 15.3888 11.5439C15.3888 11.9502 15.1336 12.2315 14.7794 12.2367C14.4356 12.2419 14.1439 11.9241 14.1387 11.5387C14.1387 10.7469 14.1387 9.94993 14.1387 9.15817C14.1387 8.77792 14.3887 8.50706 14.7325 8.49143C15.1127 8.4758 15.3784 8.72062 15.3836 9.10608C15.394 9.51759 15.3888 9.93431 15.3888 10.351Z" fill="#001C33"/>
<path d="M4.02338 12.4293C4.31508 12.4293 4.60678 12.4293 4.89848 12.4293C5.28915 12.4345 5.52355 12.6533 5.53397 13.0127C5.54439 13.3721 5.30478 13.643 4.93494 13.6691C4.78909 13.6795 4.63803 13.6743 4.48697 13.6743C4.02859 13.6743 3.56499 13.6795 3.1066 13.6743C2.71593 13.669 2.47632 13.4086 2.48153 13.0283C2.49195 12.6585 2.73156 12.4345 3.12744 12.4293C3.26287 12.4293 3.3983 12.4293 3.53374 12.4293C3.70042 12.4293 3.8619 12.4293 4.02338 12.4293Z" fill="#001C33"/>
<path d="M3.99701 18.7269C3.70531 18.7269 3.41361 18.7321 3.1219 18.7269C2.72602 18.7165 2.49162 18.4925 2.48641 18.1227C2.4812 17.7424 2.71561 17.4924 3.1167 17.4872C3.71572 17.4768 4.30954 17.4768 4.90857 17.4872C5.30445 17.4924 5.53885 17.7268 5.53885 18.1018C5.53885 18.4665 5.28362 18.7165 4.89295 18.7321C4.88253 18.7321 4.8669 18.7321 4.85648 18.7321C4.56999 18.7269 4.2835 18.7269 3.99701 18.7269Z" fill="#001C33"/>
<path d="M4.02285 4.81909C4.31976 4.81909 4.62188 4.81388 4.91879 4.81909C5.28862 4.82951 5.51782 5.03786 5.53344 5.38165C5.55428 5.74107 5.33551 6.03277 4.97609 6.0484C4.31976 6.06923 3.66864 6.06923 3.01232 6.0484C2.66853 6.03798 2.47059 5.7567 2.48621 5.40249C2.50184 5.06391 2.72061 4.83471 3.06961 4.8243C3.38736 4.81388 3.70511 4.8243 4.02285 4.81909Z" fill="#001C33"/>
<path d="M4.00222 8.62157C3.70531 8.62157 3.40319 8.62677 3.10628 8.62157C2.73123 8.61636 2.49162 8.38195 2.48641 8.01733C2.4812 7.64228 2.71561 7.38705 3.09586 7.38184C3.70531 7.37142 4.31475 7.37142 4.92941 7.38184C5.30966 7.38705 5.54406 7.63708 5.53886 7.99649C5.53886 8.32986 5.24715 8.62157 4.89815 8.62678C4.59604 8.62157 4.29913 8.62157 4.00222 8.62157Z" fill="#001C33"/>
<path d="M4.02306 9.9342C4.31476 9.9342 4.60646 9.9342 4.89816 9.9342C5.28883 9.93941 5.52323 10.1582 5.53365 10.5176C5.54407 10.851 5.26278 11.1687 4.9242 11.1791C4.30955 11.1896 3.68968 11.1896 3.07503 11.1791C2.70519 11.1687 2.48121 10.9083 2.48642 10.5437C2.49163 10.179 2.73124 9.94983 3.10628 9.93941C3.1167 9.93941 3.13233 9.93941 3.14274 9.93941C3.43965 9.9342 3.73135 9.9342 4.02306 9.9342Z" fill="#001C33"/>
<path d="M4.00768 16.2319C3.71077 16.2319 3.40865 16.2371 3.11174 16.2319C2.72628 16.2215 2.49709 15.9923 2.48667 15.6329C2.47625 15.2578 2.70544 15.0026 3.09091 14.9922C3.70035 14.9765 4.3098 14.9817 4.91925 14.9922C5.30471 14.9974 5.5339 15.2422 5.5339 15.6016C5.5339 15.935 5.24741 16.2267 4.89841 16.2371C4.6015 16.2371 4.30459 16.2319 4.00768 16.2319Z" fill="#001C33"/>
<path d="M4.00743 2.32397C4.30434 2.32397 4.60646 2.31876 4.90337 2.32397C5.29404 2.32918 5.52844 2.55316 5.53886 2.90737C5.54928 3.24074 5.2732 3.55328 4.92421 3.5637C4.30955 3.57933 3.68969 3.57933 3.07503 3.5637C2.69999 3.55328 2.48121 3.29283 2.48642 2.92821C2.49684 2.56358 2.72603 2.33439 3.11149 2.32918C3.4084 2.31876 3.70531 2.32397 4.00743 2.32397Z" fill="#001C33"/>
<path d="M18.1452 2.36047C18.1452 1.90209 17.9212 1.6781 17.4628 1.6781C17.2701 1.6781 17.0774 1.6781 16.8846 1.6781H8.18049C8.00859 1.6781 7.8419 1.6781 7.67001 1.6781C7.11786 1.6781 6.91992 1.87604 6.91992 2.42819C6.91992 5.08996 6.91992 7.75694 6.91992 10.4187C6.91992 13.0753 6.91992 15.7318 6.91992 18.3884C6.91992 18.951 7.11786 19.1437 7.68564 19.1437C7.85232 19.1437 8.01901 19.1437 8.18049 19.1437H16.8846C17.0565 19.1437 17.2336 19.1437 17.4055 19.1437C17.9368 19.1437 18.1452 18.9353 18.1452 18.3988C18.1452 15.737 18.1452 13.0701 18.1452 10.4083C18.1452 7.72569 18.1452 5.04308 18.1452 2.36047ZM16.8846 17.8883C13.9676 17.8883 11.1079 17.8883 8.18049 17.8883C8.18049 12.9086 8.18049 7.92883 8.18049 2.93346C11.1027 2.93346 13.9676 2.93346 16.8846 2.93346C16.8846 7.91842 16.8846 12.8982 16.8846 17.8883Z" fill="#001C33"/>
</g>
<defs>
<clipPath id="clip0_261_547">
<rect width="20" height="20" fill="white" transform="translate(0 0.262573)"/>
</clipPath>
</defs>
</svg>
