<svg width="20" height="21" viewBox="0 0 20 21" fill="none" xmlns="http://www.w3.org/2000/svg">
<g clip-path="url(#clip0_261_561)">
<path d="M1.56482 5.3413C1.56482 4.34118 1.56482 3.34106 1.56482 2.34094C1.56482 1.87214 1.80443 1.62732 2.26802 1.62732C4.2943 1.62732 6.32058 1.62732 8.35207 1.62732C8.80004 1.62732 9.05007 1.87735 9.05007 2.32532C9.05007 4.3516 9.05007 6.37788 9.05007 8.40936C9.05007 8.87296 8.80525 9.11257 8.33644 9.11257C6.31537 9.11257 4.2943 9.11257 2.27323 9.11257C1.80964 9.11257 1.56482 8.86775 1.56482 8.40416C1.55961 7.3832 1.56482 6.36225 1.56482 5.3413ZM2.82538 2.88267C2.82538 4.54954 2.82538 6.20077 2.82538 7.8468C4.49224 7.8468 6.14348 7.8468 7.79471 7.8468C7.79471 6.18515 7.79471 4.53391 7.79471 2.88267C6.13306 2.88267 4.48703 2.88267 2.82538 2.88267Z" fill="#001C33"/>
<path d="M11.5449 5.35171C11.5449 4.34639 11.5449 3.33585 11.5449 2.33053C11.5449 1.87735 11.7897 1.62732 12.2429 1.62732C14.2744 1.62732 16.3111 1.62732 18.3426 1.62732C18.7801 1.62732 19.0302 1.88256 19.0302 2.32011C19.0302 4.3516 19.0302 6.38829 19.0302 8.41978C19.0302 8.86254 18.7801 9.11257 18.3426 9.11257C16.3007 9.11257 14.264 9.11257 12.2221 9.11257C11.8002 9.11257 11.5449 8.85213 11.5449 8.4302C11.5449 7.40404 11.5449 6.37788 11.5449 5.35171ZM17.7696 7.85722C17.7696 6.19035 17.7696 4.53912 17.7696 2.89309C16.1027 2.89309 14.4515 2.89309 12.8003 2.89309C12.8003 4.55475 12.8003 6.20077 12.8003 7.85722C14.4567 7.85722 16.108 7.85722 17.7696 7.85722Z" fill="#001C33"/>
<path d="M5.3048 19.0929C4.29948 19.0929 3.28894 19.0929 2.28361 19.0929C1.80439 19.0929 1.55957 18.8533 1.55957 18.374C1.55957 16.353 1.55957 14.3319 1.55957 12.3108C1.55957 11.8472 1.80439 11.6024 2.26799 11.6024C4.28906 11.6024 6.31013 11.6024 8.3312 11.6024C8.79479 11.6024 9.04482 11.8472 9.04482 12.3108C9.04482 14.3371 9.04482 16.3634 9.04482 18.3949C9.04482 18.8481 8.7948 19.0929 8.34162 19.0929C7.33108 19.0981 6.32055 19.0929 5.3048 19.0929Z" fill="#001C33"/>
<path d="M15.91 15.9779C15.91 16.8218 15.91 17.6396 15.91 18.4574C15.91 18.7595 15.7329 18.9835 15.4568 19.0668C15.2016 19.1449 14.9151 19.0512 14.7797 18.8168C14.712 18.7022 14.6703 18.5511 14.6703 18.4157C14.6599 17.6812 14.6651 16.9468 14.6651 16.2123C14.6651 16.1394 14.6651 16.0717 14.6651 15.9727C14.5869 15.9727 14.5192 15.9727 14.4463 15.9727C13.7118 15.9727 12.9774 15.9727 12.2429 15.9727C11.8262 15.9727 11.5449 15.7175 11.5449 15.3528C11.5449 14.983 11.8262 14.7278 12.2377 14.7278C13.0347 14.7278 13.8369 14.7278 14.6651 14.7278C14.6651 14.6548 14.6651 14.5871 14.6651 14.5142C14.6651 13.7537 14.6599 12.9932 14.6651 12.2327C14.6651 11.8993 14.9047 11.6441 15.2172 11.6076C15.5246 11.5764 15.811 11.7743 15.8892 12.0816C15.91 12.1598 15.91 12.2483 15.91 12.3316C15.91 13.0505 15.91 13.7745 15.91 14.4934C15.91 14.5611 15.91 14.634 15.91 14.7226C15.9986 14.7226 16.0663 14.7226 16.134 14.7226C16.8216 14.7226 17.5092 14.7226 18.202 14.7226C18.7385 14.7226 19.0354 14.9465 19.0302 15.3528C19.025 15.7539 18.7385 15.9727 18.2124 15.9727C17.5248 15.9727 16.8372 15.9727 16.1444 15.9727C16.0767 15.9779 16.0038 15.9779 15.91 15.9779Z" fill="#001C33"/>
</g>
<defs>
<clipPath id="clip0_261_561">
<rect width="20" height="20" fill="white" transform="translate(0 0.262573)"/>
</clipPath>
</defs>
</svg>
