<svg width="20" height="21" viewBox="0 0 20 21" fill="none" xmlns="http://www.w3.org/2000/svg">
<g clip-path="url(#clip0_261_536)">
<path d="M13.092 17.4091C13.092 17.805 13.0972 18.1748 13.092 18.5446C13.0868 19.0499 12.7742 19.2947 12.2846 19.1905C12.1908 19.1697 12.0919 19.1489 11.9981 19.128C9.25299 18.5446 6.50267 17.956 3.75756 17.3726C3.34605 17.2841 3.15332 17.0497 3.15332 16.6329C3.15332 11.8876 3.15332 7.13704 3.15332 2.39169C3.15332 1.89684 3.38772 1.65723 3.87736 1.65723C7.98201 1.65723 12.0815 1.65723 16.1861 1.65723C16.6966 1.65723 16.9101 1.87079 16.9101 2.38127C16.9101 7.14745 16.9101 11.9136 16.9101 16.685C16.9101 17.2111 16.7018 17.4143 16.1757 17.4143C15.2329 17.4143 14.2848 17.4143 13.342 17.4143C13.2691 17.4091 13.2014 17.4091 13.092 17.4091ZM4.41388 16.2214C6.89334 16.7423 9.35717 17.258 11.8366 17.7789C11.8418 17.7008 11.847 17.6591 11.847 17.6122C11.847 13.3096 11.847 9.00184 11.8523 4.69925C11.8523 4.55861 11.8106 4.51173 11.6752 4.48568C9.53428 4.07418 7.39861 3.66267 5.25773 3.24595C4.98166 3.19387 4.70559 3.14178 4.41909 3.08448C4.41388 7.48083 4.41388 11.8407 4.41388 16.2214ZM10.524 2.90737C10.524 2.91258 10.5188 2.923 10.5188 2.92821C10.5969 2.94384 10.6802 2.96467 10.7584 2.9803C11.3574 3.0949 11.9564 3.20949 12.5555 3.33451C12.8993 3.40222 13.0712 3.61058 13.0868 3.95958C13.092 4.03771 13.0868 4.11585 13.0868 4.19398C13.0868 8.09027 13.0868 11.9814 13.0816 15.8776C13.0816 16.0547 13.1232 16.112 13.3056 16.1068C14.014 16.0964 14.7224 16.1016 15.436 16.1016C15.5037 16.1016 15.5714 16.1016 15.6392 16.1016C15.6392 11.6844 15.6392 7.29851 15.6392 2.91258C13.9306 2.90737 12.2273 2.90737 10.524 2.90737Z" fill="#001C33"/>
<path d="M10.6593 10.3979C10.6593 10.7938 10.6593 11.1897 10.6593 11.5907C10.6593 11.997 10.4041 12.2783 10.0499 12.2835C9.70609 12.2887 9.41439 11.971 9.40918 11.5855C9.40918 10.7938 9.40918 9.99681 9.40918 9.20505C9.40918 8.8248 9.65921 8.55393 10.003 8.5383C10.3833 8.52268 10.6489 8.7675 10.6541 9.15296C10.6593 9.56447 10.6593 9.98118 10.6593 10.3979Z" fill="#001C33"/>
</g>
<defs>
<clipPath id="clip0_261_536">
<rect width="20" height="20" fill="white" transform="translate(0 0.262573)"/>
</clipPath>
</defs>
</svg>
