<svg width="20" height="21" viewBox="0 0 20 21" fill="none" xmlns="http://www.w3.org/2000/svg">
<path d="M14.8535 2.06963C14.8535 1.62137 14.666 1.43384 14.2177 1.43384C10.6134 1.43384 7.0136 1.43384 3.40923 1.43384C2.97927 1.43384 2.77344 1.64424 2.77344 2.07878C2.77344 6.24575 2.77344 10.4173 2.77344 14.5843C2.77344 14.9456 2.94268 15.156 3.30403 15.2338C5.71456 15.7507 8.12967 16.263 10.5402 16.7752C10.6225 16.7935 10.7094 16.8118 10.7918 16.8301C11.2217 16.9262 11.4962 16.7066 11.5008 16.263C11.5053 15.9382 11.5008 15.6134 11.5008 15.2658C11.5922 15.2658 11.6563 15.2658 11.7203 15.2658C12.5482 15.2658 13.3807 15.2658 14.2086 15.2658C14.6752 15.2658 14.8535 15.0874 14.8535 14.6254C14.8535 10.4402 14.8535 6.2549 14.8535 2.06963ZM9.36466 10.1612C9.36466 10.5179 9.14053 10.7649 8.8295 10.7695C8.52761 10.7741 8.27146 10.4951 8.26689 10.1566C8.26689 9.46132 8.26689 8.76149 8.26689 8.06623C8.26689 7.73232 8.48644 7.49447 8.78833 7.48075C9.12224 7.46703 9.35552 7.68201 9.36009 8.02049C9.36466 8.38642 9.36009 8.75234 9.36009 9.11827C9.36466 9.46132 9.36466 9.80895 9.36466 10.1612ZM13.742 14.1177C13.6872 14.1177 13.6231 14.1177 13.5637 14.1177C12.9416 14.1177 12.3195 14.1131 11.6929 14.1223C11.5328 14.1269 11.4962 14.0766 11.4962 13.921C11.5008 10.4996 11.5008 7.08281 11.5008 3.66141C11.5008 3.5928 11.5008 3.52419 11.5008 3.45557C11.487 3.14911 11.3361 2.97072 11.0342 2.90669C10.5082 2.80148 9.98216 2.70085 9.45615 2.59565C9.38296 2.58193 9.31435 2.56821 9.24574 2.54991C9.24574 2.54534 9.25031 2.53619 9.25031 2.53161C10.746 2.53161 12.2418 2.53161 13.7466 2.53161C13.742 6.39212 13.742 10.2435 13.742 14.1177Z" fill="#001C33"/>
</svg>
