<svg width="350" height="200" viewBox="0 0 350 200" fill="none" xmlns="http://www.w3.org/2000/svg">
<path fill-rule="evenodd" clip-rule="evenodd" d="M82.206 94.851H71.218V135.563H62.0613V94.851H51.0732V86.9622H82.206V94.851Z" fill="#231F20"/>
<path fill-rule="evenodd" clip-rule="evenodd" d="M87.4185 86.9622H97.4204C101.083 86.9622 103.901 86.9622 106.014 87.3848C108.127 87.8074 109.958 88.23 111.648 89.2161C113.762 90.484 115.875 92.3153 116.861 94.4284C117.847 96.5415 118.41 99.0772 118.41 101.19C118.41 104.712 117.706 107.952 115.452 110.347C113.198 112.742 111.226 114.151 107.563 114.855L122.918 135.422H111.085L97.843 115.7H96.716L96.5752 135.422H87.4185V86.9622ZM96.5752 94.5693V109.22H98.8291C102.21 109.22 104.746 108.516 106.436 107.248C108.127 105.839 108.972 104.008 108.972 101.613C108.972 99.218 108.127 97.3867 106.577 96.2597C105.027 95.1328 102.492 94.5693 99.1109 94.4284H96.5752V94.5693Z" fill="#231F20"/>
<path fill-rule="evenodd" clip-rule="evenodd" d="M146.303 85.6943C153.628 85.6943 159.827 88.0892 164.757 93.0197C169.688 97.9502 172.083 104.008 172.083 111.192C172.083 118.377 169.547 124.434 164.616 129.224C159.686 134.014 153.628 136.549 146.303 136.549C138.837 136.549 132.779 134.154 127.849 129.224C122.918 124.434 120.523 118.377 120.523 111.192C120.523 104.008 122.918 97.9502 127.849 93.0197C132.779 88.0892 138.837 85.6943 146.303 85.6943ZM146.303 128.097C151.093 128.097 155.037 126.547 157.995 123.307C161.095 120.208 162.644 116.123 162.644 111.051C162.644 106.121 161.095 101.895 157.995 98.7954C154.896 95.5554 150.952 94.0058 146.303 94.0058C141.513 94.0058 137.569 95.5554 134.47 98.7954C131.371 102.036 129.962 106.121 129.962 111.051C129.962 115.982 131.511 120.067 134.47 123.307C137.569 126.547 141.513 128.097 146.303 128.097Z" fill="#231F20"/>
<path fill-rule="evenodd" clip-rule="evenodd" d="M213.921 89.6388V99.7816C212.09 97.9502 209.554 96.2597 207.441 95.4145C205.328 94.4284 203.356 94.2875 200.961 94.2875C195.89 94.2875 193.636 95.6963 190.537 99.2181C187.437 102.74 185.747 106.262 185.747 111.615C185.747 116.827 188.001 120.631 191.241 124.012C191.241 124.012 195.185 127.674 201.525 128.097C203.779 128.238 206.033 127.956 208.146 127.111C210.259 126.125 211.949 124.716 213.921 122.462V133.027C211.808 134.436 209.695 135.281 207.441 135.845C205.187 136.408 203.074 136.69 200.82 136.69C197.299 136.69 194.199 136.127 191.382 135C188.564 133.873 186.029 132.182 183.916 129.928C181.521 127.674 179.549 124.998 178.281 121.898C176.872 118.799 176.309 115.418 176.309 111.615C176.309 107.811 177.013 104.149 178.281 100.909C179.549 97.6685 181.521 94.851 183.916 92.4562C186.029 90.3431 188.564 88.7935 191.241 87.6665C194.058 86.5396 197.299 85.9761 201.102 85.9761C203.638 85.9761 206.033 86.2578 208.005 86.8213C210.259 87.5257 212.231 88.3709 213.921 89.6388Z" fill="#231F20"/>
<path fill-rule="evenodd" clip-rule="evenodd" d="M254.07 135.704L250.126 125.42H230.403L226.177 135.563H215.894L236.743 85.8352H243.645L264.494 135.704H254.07ZM233.221 117.813H246.885L240.124 100.345L233.221 117.813Z" fill="#231F20"/>
<path fill-rule="evenodd" clip-rule="evenodd" d="M268.58 87.1031H277.737V127.815H292.669V135.563H268.58V87.1031Z" fill="#231F20"/>
<path fill-rule="evenodd" clip-rule="evenodd" d="M75.4443 84.0039C75.4443 84.0039 137.992 60.9009 193.073 63.1548C221.811 64.4227 235.334 69.7758 235.334 69.7758C235.334 69.7758 253.225 75.129 257.874 83.863C257.592 86.3987 256.043 86.5396 256.043 86.5396C256.043 86.5396 257.029 86.3987 249.422 82.1726C241.955 77.9464 235.757 75.6924 235.757 75.6924C235.757 75.6924 227.868 72.7341 215.753 70.621C203.497 68.6488 190.537 68.2262 190.537 68.2262C190.537 68.2262 137.569 65.4088 75.867 84.8491L75.4443 84.0039Z" fill="#00B9F2"/>
<path d="M298.726 94.2875C298.726 96.5415 297.881 98.5137 296.332 100.063C294.923 101.472 292.81 102.458 290.556 102.458C288.302 102.458 286.33 101.613 284.78 100.063C283.371 98.6546 282.385 96.5415 282.385 94.2875C282.385 92.0336 283.23 90.0614 284.78 88.5118C286.189 87.1031 288.302 86.1169 290.556 86.1169C292.81 86.1169 294.923 86.9622 296.332 88.5118C297.74 90.0614 298.726 92.0336 298.726 94.2875ZM297.459 94.2875C297.459 92.3153 296.613 90.6249 295.486 89.357C294.219 88.0892 292.528 87.3848 290.556 87.3848C288.584 87.3848 286.893 88.23 285.625 89.357C284.357 90.6249 283.653 92.3153 283.653 94.2875C283.653 96.2597 284.498 97.9502 285.625 99.2181C286.893 100.486 288.584 101.19 290.556 101.19C292.528 101.19 294.219 100.345 295.486 99.2181C296.613 97.9502 297.459 96.2597 297.459 94.2875Z" fill="#231F20"/>
<path fill-rule="evenodd" clip-rule="evenodd" d="M289.711 94.0058V92.1745H290.133C290.556 92.1745 290.838 92.3153 290.979 92.4562C291.119 92.5971 291.26 92.8788 291.26 93.0197C291.26 93.3014 291.119 93.4423 290.979 93.5832C290.838 93.7241 290.556 93.8649 290.133 93.8649H289.711V94.0058ZM287.316 98.3728H289.711H289.852V95.978L291.542 98.3728H294.36H294.5L292.106 95.2737C292.528 95.1328 292.951 94.851 293.233 94.5693C293.514 94.2875 293.796 93.7241 293.796 93.0197C293.796 92.3153 293.655 91.8927 293.373 91.611C293.092 91.3292 292.669 91.0475 292.387 90.9066C292.246 90.9066 292.106 90.7657 291.965 90.7657C291.824 90.7657 291.683 90.7657 291.542 90.7657H290.979H287.457H287.316V98.3728Z" fill="#231F20"/>
</svg>
