<svg width="75" height="75" viewBox="0 0 75 75" fill="none" xmlns="http://www.w3.org/2000/svg">
<path d="M40.4335 3.5C41.1168 3.83333 41.3335 4.41667 41.3168 5.13333C41.3001 5.7 41.3168 6.28333 41.3168 6.93333C41.6668 6.93333 41.9168 6.93333 42.1835 6.93333C47.5001 6.93333 52.8001 6.93333 58.1168 6.93333C59.5501 6.93333 59.8835 7.26667 59.8835 8.7C59.8835 27.9833 59.8835 47.2667 59.8835 66.55C59.8835 67.9833 59.5501 68.3333 58.1335 68.3333C57.4001 68.3333 56.6668 68.35 55.9335 68.3333C55.1335 68.3167 54.6668 67.85 54.6835 67.1667C54.6835 66.4833 55.1668 66.05 55.9668 66.0167C56.2168 66 56.4501 66.0167 56.7001 66.0167C56.9335 66.0167 57.1835 66.0167 57.4668 66.0167C57.4668 47.1 57.4668 28.2333 57.4668 9.31667C52.1168 9.31667 46.7668 9.31667 41.3835 9.31667C41.3835 10.4167 41.3835 11.4833 41.3835 12.65C41.6668 12.65 41.9335 12.65 42.1835 12.65C45.6001 12.65 49.0335 12.65 52.4501 12.65C53.7835 12.65 54.1668 13.0333 54.1668 14.35C54.1668 29.8833 54.1668 45.4167 54.1668 60.95C54.1668 62.2833 53.8001 62.6667 52.4668 62.6667C49.0501 62.6667 45.6168 62.6667 42.2001 62.6667C41.9335 62.6667 41.6835 62.6667 41.3668 62.6667C41.3668 63.8167 41.3668 64.8833 41.3668 66.0333C41.6335 66.0333 41.8835 66.0333 42.1168 66.0333C45.2668 66.0333 48.4335 66.0333 51.5835 66.0333C51.8335 66.0333 52.0668 66.0333 52.3168 66.0667C52.9001 66.15 53.3335 66.6333 53.3501 67.2C53.3501 67.75 52.9168 68.2667 52.3335 68.35C52.1001 68.3833 51.8501 68.3833 51.6001 68.3833C48.4501 68.3833 45.2835 68.3833 42.1335 68.3833C41.9001 68.3833 41.6501 68.3833 41.3168 68.3833C41.3168 68.9833 41.3001 69.5 41.3168 70.0167C41.3501 70.75 41.1835 71.3667 40.5668 71.8C40.2501 71.8 39.9501 71.8 39.6335 71.8C38.2335 71.5 36.8335 71.1667 35.4335 70.8833C29.1668 69.6167 22.9001 68.3833 16.6335 67.1333C15.7501 66.95 15.4335 66.5667 15.4001 65.6667C15.4001 65.55 15.4001 65.45 15.4001 65.3333C15.4001 50.0167 15.4001 34.7167 15.4001 19.4C15.4001 19.1 15.4168 18.7833 15.4835 18.4833C15.6168 17.9 16.0335 17.6167 16.6001 17.6167C17.1668 17.6167 17.5668 17.9333 17.7001 18.5C17.7668 18.7833 17.7668 19.0667 17.7668 19.3667C17.7668 34.2833 17.7668 49.1833 17.7668 64.1C17.7668 64.3667 17.7668 64.6333 17.7668 64.9667C24.8168 66.3833 31.8501 67.7833 38.9335 69.2C38.9335 48.2 38.9335 27.3 38.9335 6.33333C38.7335 6.36667 38.5335 6.38333 38.3668 6.43333C31.7001 8.15 25.0668 9.91667 18.4168 11.6667C17.9335 11.8 17.7168 11.9833 17.7501 12.5167C17.8001 13.2167 17.7835 13.9333 17.7501 14.65C17.7335 15.4 17.2835 15.8833 16.6501 15.9167C15.9668 15.95 15.4335 15.5 15.4168 14.7333C15.3668 13.4833 15.3835 12.25 15.4168 11C15.4335 10.2833 15.9001 9.93333 16.5835 9.75C21.0501 8.56667 25.5001 7.38333 29.9501 6.18333C33.1001 5.35 36.2501 4.5 39.4001 3.65C39.5168 3.61667 39.6335 3.55 39.7668 3.5C39.9835 3.5 40.2168 3.5 40.4335 3.5ZM41.3501 60.2333C44.8335 60.2333 48.2835 60.2333 51.7335 60.2333C51.7335 45.1333 51.7335 30.0833 51.7335 15.0167C48.2501 15.0167 44.8168 15.0167 41.3501 15.0167C41.3501 30.1167 41.3501 45.15 41.3501 60.2333Z" fill="#008CFF"/>
<path d="M32.6001 41.2333C31.9501 41.2333 31.3168 41.25 30.6668 41.2333C29.9501 41.2 29.5168 40.7833 29.4668 40.15C29.4334 39.4666 29.8334 38.95 30.5668 38.9167C31.9334 38.8667 33.3168 38.8667 34.6834 38.9167C35.4168 38.95 35.8334 39.4666 35.7834 40.15C35.7501 40.7833 35.3001 41.1833 34.5834 41.2333C34.5334 41.2333 34.5001 41.2333 34.4501 41.2333C33.8334 41.25 33.2168 41.25 32.6001 41.2333Z" fill="#008CFF"/>
</svg>
