<svg width="809" height="833" viewBox="0 0 809 833" fill="none" xmlns="http://www.w3.org/2000/svg">
<g style="mix-blend-mode:color-dodge" opacity="0.3">
<path d="M286.013 97.3551H9.69038C4.40472 97.3551 0 101.682 0 106.875V726.836C0 732.029 4.40472 736.357 9.69038 736.357H286.013C291.299 736.357 295.703 732.029 295.703 726.836C295.703 721.644 291.299 717.316 286.013 717.316H19.3808V116.395H286.013C291.299 116.395 295.703 112.068 295.703 106.875C295.703 101.682 291.299 97.3551 286.013 97.3551Z" fill="#FF0062"/>
<path d="M286.013 135.724H48.4521C43.1664 135.724 38.7617 140.051 38.7617 145.244V688.756C38.7617 693.949 43.1664 698.276 48.4521 698.276H286.013C291.299 698.276 295.704 693.949 295.704 688.756V145.244C295.704 140.051 291.299 135.724 286.013 135.724ZM276.323 679.236H58.4361V154.764H276.617V679.236H276.323Z" fill="#FF0062"/>
<path d="M799.31 97.3551H760.842C755.556 97.3551 751.151 101.682 751.151 106.875C751.151 112.068 755.556 116.395 760.842 116.395H789.619V717.316H760.842C755.556 717.316 751.151 721.644 751.151 726.836C751.151 732.029 755.556 736.357 760.842 736.357H799.31C804.595 736.357 809 732.029 809 726.836V106.875C809 101.682 804.595 97.3551 799.31 97.3551Z" fill="#FF0062"/>
<path d="M355.901 771.552C357.663 772.706 359.719 773.572 361.774 773.572C362.655 773.572 363.536 773.572 364.417 773.283L726.485 676.928C730.596 675.774 733.533 672.024 733.533 667.696V166.304C733.533 161.976 730.596 158.226 726.485 157.072L364.417 60.7171C361.481 59.8516 358.251 60.4286 355.901 62.448C353.552 64.179 352.084 67.0638 352.084 69.9487V764.051C352.084 766.936 353.552 769.821 355.901 771.552ZM714.152 173.516V660.484L371.465 751.646V426.52H441.353C446.639 426.52 451.043 422.193 451.043 417C451.043 411.807 446.639 407.48 441.353 407.48H371.465V82.3537L714.152 173.516Z" fill="#FF0062"/>
<path d="M768.77 692.218V141.494C768.77 137.455 766.128 133.705 762.017 132.262L329.767 1.28849C326.83 0.423026 323.6 1 321.251 2.73093C318.902 4.46186 317.434 7.34674 317.434 10.5201V823.48C317.434 826.365 318.902 829.25 321.251 831.269C323.013 832.423 325.068 833 327.124 833C328.005 833 329.18 833 330.06 832.711L762.31 701.738C765.834 700.295 768.77 696.545 768.77 692.218ZM749.39 685.294L336.521 810.498V23.5021L749.39 148.706V685.294Z" fill="#FF0062"/>
</g>
</svg>
