<svg width="350" height="200" viewBox="0 0 350 200" fill="none" xmlns="http://www.w3.org/2000/svg">
<path d="M252 47H97.1001V152.331H252V47Z" fill="#00387A"/>
<path d="M172.665 96.7374H161.268V51.5503H172.665V96.7374ZM123.075 102.552V119.489H113.005V102.531H101.608V147.675H113.005V130.865H123.075V147.675H134.472V102.552H123.075ZM189.139 96.7374L189.16 70.9102L199.545 96.7374H210.626V51.5503H199.545V77.209L189.16 51.5503H178.058V96.7374H189.139ZM227.226 70.3624L227.332 51.445H216.04V96.7374H227.226L227.332 83.1075L229.839 77.1036L236.664 96.7374H248.335L238.918 70.3203L248.314 51.4239H235.695L227.226 70.3624ZM156.275 101.414C139.928 101.414 139.865 116.013 139.865 116.013V147.697H151.03V136.553H161.5V147.697H172.665V116.013C172.665 116.013 172.602 101.414 156.275 101.414ZM199.566 132.381C199.566 135.204 197.228 137.627 194.405 137.627C191.582 137.627 189.16 135.225 189.16 132.381V102.552H178.079V134.067C178.079 134.067 178.142 148.623 194.363 148.623H194.384C210.584 148.623 210.668 134.067 210.668 134.067V102.552H199.587V132.381H199.566ZM214.502 136.911V147.718H235.337C235.337 147.718 248.398 148.202 248.398 134.046C248.398 119.826 235.8 119.678 235.8 119.678H229.544C227.711 119.678 226.131 118.288 226.131 116.455C226.131 114.623 227.606 113.169 229.438 113.169H247.155V102.531H228.743C228.743 102.531 214.502 101.941 214.502 115.697C214.502 127.831 224.53 130.212 229.249 130.212H233.757C235.59 130.212 237.17 131.707 237.17 133.54C237.17 135.373 235.695 136.869 233.862 136.869L214.502 136.911ZM156.296 51.5714H143.825V82.6019C143.825 84.9824 141.887 86.8994 139.528 86.8994C137.147 86.8994 135.23 84.9824 135.23 82.6019L135.209 51.5714H122.717L122.696 82.6019C122.696 84.9824 120.758 86.8994 118.377 86.8994C116.018 86.8994 114.101 84.9824 114.101 82.6019V51.5503H101.608V83.5288C101.608 91.5129 106.917 98.1067 117.977 98.1067C122.211 98.1067 126.572 96.7795 128.952 93.5774C131.333 96.7795 135.715 98.1067 139.928 98.1067C150.967 98.1067 156.275 91.5129 156.275 83.5288V51.5714H156.296Z" fill="white"/>
<path d="M161.5 116.729C161.5 113.906 159.077 111.463 156.254 111.463C153.431 111.463 151.03 113.906 151.03 116.729V125.135H161.5V116.729Z" fill="#00387A"/>
</svg>
