<svg width="350" height="200" viewBox="0 0 350 200" fill="none" xmlns="http://www.w3.org/2000/svg">
<path d="M229.083 120.363H240.883L232.426 105.81C237.146 103.843 239.703 100.107 239.703 94.9934C239.703 87.5201 234.786 82.6034 225.15 82.6034H206.663V120.167H216.89V107.187H222.003L229.083 120.363ZM229.476 94.9934C229.476 97.7467 227.706 99.5167 223.97 99.5167H216.89V90.4701H223.97C227.706 90.4701 229.476 92.2401 229.476 94.9934ZM188.373 93.2234V105.22C188.373 110.727 185.62 112.497 182.276 112.497C178.736 112.497 176.18 110.53 176.18 105.22V93.2234H165.756V105.81C165.756 115.643 171.263 121.15 182.276 121.15C193.486 121.15 198.796 115.643 198.796 105.81V93.2234H188.373ZM175.983 82.6034H165.56V89.6834H175.983V82.6034ZM188.373 89.6834H198.796V82.6034H188.373V89.6834ZM122.686 107.58L117.376 82.6034H106.953L116.59 120.167H127.603L134.093 95.5834L140.583 120.167H151.4L161.036 82.6034H150.613L145.303 107.58L138.813 82.6034H129.176L122.686 107.58ZM302.243 96.1734H289.656V82.6034H279.233V120.167H289.656V104.433H302.243V120.167H312.666V82.6034H302.243V96.1734ZM253.273 90.8634V120.363H263.696V90.8634H273.333V82.6034H243.44V90.8634H253.273Z" fill="black"/>
<path d="M91.2202 94.2067H37.3335V71H59.7535V80.0467H68.8002V71H91.2202V94.2067ZM68.8002 120.953V130C81.7802 127.64 91.2202 116.43 91.2202 103.647V103.253H37.3335V103.647C37.3335 116.43 46.7735 127.64 59.7535 130V120.953H68.8002Z" fill="#E3000F"/>
</svg>
